<svg xmlns="http://www.w3.org/2000/svg" width="32" height="32" viewBox="0 0 32 32">
  <g id="Group_18578" data-name="Group 18578" transform="translate(-1117 -21)">
    <g id="Rectangle_17052" data-name="Rectangle 17052" transform="translate(1117 21)" fill="#fff" stroke="#cfd4d8" stroke-width="1">
      <rect width="32" height="32" rx="4" stroke="none"/>
      <rect x="0.5" y="0.5" width="31" height="31" rx="3.5" fill="none"/>
    </g>
    <g id="notifications" transform="translate(1127 29)">
      <g id="Group_18569" data-name="Group 18569" transform="translate(-4 -2)">
        <g id="Icons">
          <g id="Rounded">
            <g id="Social" transform="translate(0 0)">
              <g id="_-Round-_-Social-_-notifications" data-name="-Round-/-Social-/-notifications">
                <path id="Path" d="M0,0H20V20H0Z" fill="none"/>
                <path id="_-Icon-Color" data-name="🔹-Icon-Color" d="M10.736,18.75A1.672,1.672,0,0,0,12.4,17.083H9.069A1.667,1.667,0,0,0,10.736,18.75Zm5-5V9.583a5.077,5.077,0,0,0-3.75-5.267V3.75a1.25,1.25,0,1,0-2.5,0v.567c-2.392.567-3.75,2.7-3.75,5.267V13.75L4.661,14.825a.833.833,0,0,0,.583,1.425H16.219a.836.836,0,0,0,.592-1.425Z" transform="translate(-0.736 -0.417)" fill="#666"/>
              </g>
            </g>
          </g>
        </g>
      </g>
    </g>
  </g>
</svg>
