<svg xmlns="http://www.w3.org/2000/svg" width="16" height="16" viewBox="0 0 16 16">
  <g id="_48px_c-add" data-name="48px_c-add" transform="translate(-1 -1)">
    <g id="Group_18599" data-name="Group 18599" transform="translate(1 1)">
      <path id="Path_98" data-name="Path 98" d="M9,17a8,8,0,1,1,8-8A8.009,8.009,0,0,1,9,17Z" transform="translate(-1 -1)" fill="#0a71bc"/>
      <path id="Path_99" data-name="Path 99" d="M20.3,16.478h-3.13v-3.13a.348.348,0,1,0-.7,0v3.13h-3.13a.348.348,0,1,0,0,.7h3.13V20.3a.348.348,0,1,0,.7,0v-3.13H20.3a.348.348,0,1,0,0-.7Z" transform="translate(-8.826 -8.826)" fill="#fff"/>
    </g>
  </g>
</svg>
