<svg width="16" height="14" viewBox="0 0 16 14" fill="none" xmlns="http://www.w3.org/2000/svg">
<path d="M15.6496 2.1958H6.94961C6.85678 2.1958 6.76776 2.22576 6.70212 2.27909C6.63648 2.33242 6.59961 2.40475 6.59961 2.48018C6.59961 2.5556 6.63648 2.62793 6.70212 2.68126C6.76776 2.73459 6.85678 2.76455 6.94961 2.76455H15.6496C15.7424 2.76455 15.8315 2.73459 15.8971 2.68126C15.9627 2.62793 15.9996 2.5556 15.9996 2.48018C15.9996 2.40475 15.9627 2.33242 15.8971 2.27909C15.8315 2.22576 15.7424 2.1958 15.6496 2.1958Z" fill="white"/>
<path d="M5.215 0.5H2.433C2.38696 0.499998 2.34138 0.507417 2.2989 0.52183C2.25641 0.536242 2.21787 0.55736 2.1855 0.583961C2.15313 0.610562 2.12758 0.642117 2.11033 0.676798C2.09308 0.711479 2.08447 0.748596 2.085 0.786V2.19569H0.35C0.257174 2.19569 0.16815 2.22565 0.102513 2.27898C0.0368749 2.33231 0 2.40464 0 2.48006C0 2.55548 0.0368749 2.62781 0.102513 2.68115C0.16815 2.73448 0.257174 2.76444 0.35 2.76444H2.085V4.17412C2.085 4.24911 2.12166 4.32103 2.18693 4.37406C2.25219 4.42708 2.3407 4.45687 2.433 4.45687H5.215C5.3073 4.45687 5.39581 4.42708 5.46107 4.37406C5.52634 4.32103 5.563 4.24911 5.563 4.17412V0.786C5.56353 0.748596 5.55492 0.711479 5.53767 0.676798C5.52042 0.642117 5.49487 0.610562 5.4625 0.583961C5.43013 0.55736 5.39159 0.536242 5.3491 0.52183C5.30662 0.507417 5.26104 0.499998 5.215 0.5Z" fill="white"/>
<path d="M0.35 6.71729H9.05C9.14283 6.71729 9.23185 6.74725 9.29749 6.80058C9.36312 6.85391 9.4 6.92624 9.4 7.00166C9.4 7.07708 9.36312 7.14941 9.29749 7.20274C9.23185 7.25607 9.14283 7.28604 9.05 7.28604H0.35C0.257174 7.28604 0.16815 7.25607 0.102513 7.20274C0.0368749 7.14941 0 7.07708 0 7.00166C0 6.92624 0.0368749 6.85391 0.102513 6.80058C0.16815 6.74725 0.257174 6.71729 0.35 6.71729Z" fill="white"/>
<path d="M10.7796 5.02148H13.5626C13.6549 5.02148 13.7435 5.05127 13.8087 5.1043C13.874 5.15733 13.9106 5.22924 13.9106 5.30423V6.71717H15.6496C15.7425 6.71717 15.8315 6.74713 15.8971 6.80046C15.9628 6.85379 15.9996 6.92613 15.9996 7.00155C15.9996 7.07697 15.9628 7.1493 15.8971 7.20263C15.8315 7.25596 15.7425 7.28592 15.6496 7.28592H13.9106V8.69886C13.9106 8.77385 13.874 8.84577 13.8087 8.89879C13.7435 8.95182 13.6549 8.98161 13.5626 8.98161H10.7796C10.7339 8.98161 10.6887 8.97429 10.6465 8.96008C10.6042 8.94588 10.5659 8.92505 10.5336 8.89879C10.5013 8.87254 10.4756 8.84137 10.4581 8.80706C10.4406 8.77276 10.4316 8.73599 10.4316 8.69886V5.30423C10.4316 5.2671 10.4406 5.23034 10.4581 5.19603C10.4756 5.16173 10.5013 5.13056 10.5336 5.1043C10.5659 5.07804 10.6042 5.05722 10.6465 5.04301C10.6887 5.0288 10.7339 5.02148 10.7796 5.02148Z" fill="white"/>
<path d="M15.6496 11.2388H6.94961C6.85678 11.2388 6.76776 11.2687 6.70212 11.3221C6.63648 11.3754 6.59961 11.4477 6.59961 11.5231C6.59961 11.5986 6.63648 11.6709 6.70212 11.7242C6.76776 11.7776 6.85678 11.8075 6.94961 11.8075H15.6496C15.7424 11.8075 15.8315 11.7776 15.8971 11.7242C15.9627 11.6709 15.9996 11.5986 15.9996 11.5231C15.9996 11.4477 15.9627 11.3754 15.8971 11.3221C15.8315 11.2687 15.7424 11.2388 15.6496 11.2388Z" fill="white"/>
<path d="M5.215 9.54321H2.433C2.3407 9.54321 2.25219 9.573 2.18693 9.62603C2.12166 9.67905 2.085 9.75097 2.085 9.82596V11.2389H0.35C0.257174 11.2389 0.16815 11.2689 0.102513 11.3222C0.0368749 11.3755 0 11.4479 0 11.5233C0 11.5987 0.0368749 11.671 0.102513 11.7244C0.16815 11.7777 0.257174 11.8077 0.35 11.8077H2.085V13.2173C2.085 13.2923 2.12166 13.3642 2.18693 13.4173C2.25219 13.4703 2.3407 13.5001 2.433 13.5001H5.215C5.3073 13.5001 5.39581 13.4703 5.46107 13.4173C5.52634 13.3642 5.563 13.2923 5.563 13.2173V9.82596C5.563 9.75097 5.52634 9.67905 5.46107 9.62603C5.39581 9.573 5.3073 9.54321 5.215 9.54321Z" fill="white"/>
</svg>
