<svg xmlns="http://www.w3.org/2000/svg" xmlns:xlink="http://www.w3.org/1999/xlink" width="32" height="32" viewBox="0 0 32 32">
  <defs>
    <clipPath id="clip-path">
      <rect id="Rectangle_17054" data-name="Rectangle 17054" width="32" height="32" transform="translate(972 151)" fill="#fff" stroke="#707070" stroke-width="1"/>
    </clipPath>
  </defs>
  <g id="Mask_Group_16" data-name="Mask Group 16" transform="translate(-972 -151)" clip-path="url(#clip-path)">
    <g id="Like_UI" transform="translate(972 153.913)">
      <g id="Page-1">
        <g id="Like_UI-2" data-name="Like_UI">
          <g id="Group" transform="translate(0 5.179)">
            <path id="Shape" d="M30.813,18.73v.8a1.368,1.368,0,0,1-1.381,1.338H1.381A1.354,1.354,0,0,1,0,19.528v-.8H12.688a.8.8,0,0,0,.755.518h3.97a.8.8,0,0,0,.755-.518H30.813Z" fill="#e54d45"/>
            <path id="Shape-2" data-name="Shape" d="M30.813,18.73a1.35,1.35,0,0,1-1.381,1.316H1.381A1.337,1.337,0,0,1,0,18.73H12.688a.8.8,0,0,0,.755.518h3.97a.8.8,0,0,0,.755-.518H30.813Z" fill="#e04038"/>
            <path id="Shape-3" data-name="Shape" d="M29.216,1.467V18.751H1.554V1.467A1.252,1.252,0,0,1,2.805.216h25.16a1.252,1.252,0,0,1,1.252,1.252Z" fill="#e04038"/>
            <path id="Shape-4" data-name="Shape" d="M29.216,1.467V6.452a5.211,5.211,0,0,1-1.381.583V1.661H20.413v-.3A7.093,7.093,0,0,1,20.521.194h7.444a1.285,1.285,0,0,1,1.252,1.273Z" fill="#e54d45"/>
            <path id="Shape-5" data-name="Shape" d="M27.835,7.013V18.794H2.87V1.64H20.434a5.856,5.856,0,0,0,5.848,5.567,4.659,4.659,0,0,0,1.554-.194Z" fill="#fff"/>
            <path id="Shape-6" data-name="Shape" d="M27.835,1.661V7.034a6.136,6.136,0,0,1-1.554.216,5.857,5.857,0,0,1-5.848-5.567h7.4Z" fill="#d4e8ff"/>
            <path id="Shape-7" data-name="Shape" d="M2.87,1.661H27.835" fill="#fff"/>
          </g>
          <path id="Shape-8" data-name="Shape" d="M23.283,1.057a5.627,5.627,0,1,1-2.546,4.7,5.588,5.588,0,0,1,2.546-4.7" fill="#21d3ac"/>
          <path id="Shape-9" data-name="Shape" d="M29.821,6.193c-.043.216-.173.324-.475.367a.468.468,0,0,1,.281.539.488.488,0,0,1-.5.367.021.021,0,0,0,.022.022.494.494,0,0,1-.259.906.475.475,0,0,1-.173.022c-3,0-3.15.065-3.733-.216-.022,0-.022-.022-.043-.022-.108-.022.086.324-.3.324-1.165,0-1.338.065-1.338-.281V4.877c0-.345.151-.281,1.338-.259.151,0,.281.043.3.173,0,.022.022.043.022.086,0,.173,0,.216.022.194a3.016,3.016,0,0,0,1.489-2.352.369.369,0,0,1,.281-.345c.669-.216.8,1.165.539,2.093h2.05c.669,0,.928.863.129,1.144.194.129.388.281.345.583Z" fill="#fff"/>
          <path id="Shape-10" data-name="Shape" d="M24.944,4.812V8.2c-.108-.022.086.324-.3.324-1.165,0-1.338.065-1.338-.281V4.9c0-.345.151-.281,1.338-.259C24.793,4.639,24.9,4.682,24.944,4.812Z" fill="#d4e8ff"/>
          <circle id="Oval" cx="0.259" cy="0.259" r="0.259" transform="translate(23.822 7.509)" fill="#fff"/>
          <g id="Group-2" data-name="Group" transform="translate(4.1 7.984)">
            <path id="Shape-11" data-name="Shape" d="M.475.108A.479.479,0,0,0,0,.583V9.149a.479.479,0,0,0,.475.475H6.3a.479.479,0,0,0,.475-.475V.583A.479.479,0,0,0,6.3.108H.475ZM3.388,2.2A1.122,1.122,0,1,1,2.266,3.323,1.128,1.128,0,0,1,3.388,2.2Zm.6,5.308H2.784a.281.281,0,1,1,0-.561H3.992a.281.281,0,1,1,0,.561ZM4.9,6.495H1.877a.281.281,0,1,1,0-.561H4.9a.281.281,0,1,1,0,.561Z" fill="#c5dcfa"/>
            <circle id="Oval-2" data-name="Oval" cx="1.122" cy="1.122" r="1.122" transform="translate(2.266 2.201)" fill="#fff"/>
            <path id="Shape-12" data-name="Shape" d="M4.9,5.955H1.877a.281.281,0,1,0,0,.561H4.9a.281.281,0,0,0,0-.561Z" fill="#fff"/>
            <path id="Shape-13" data-name="Shape" d="M3.992,6.948H2.784a.281.281,0,1,0,0,.561H3.992a.281.281,0,1,0,0-.561Z" fill="#fff"/>
            <path id="Shape-14" data-name="Shape" d="M8.307.108a.479.479,0,0,0-.475.475V9.149a.479.479,0,0,0,.475.475h5.826a.479.479,0,0,0,.475-.475V.583a.479.479,0,0,0-.475-.475ZM11.22,2.2A1.122,1.122,0,1,1,10.1,3.323,1.114,1.114,0,0,1,11.22,2.2Zm.6,5.308H10.616a.281.281,0,1,1,0-.561h1.208a.281.281,0,1,1,0,.561Zm.906-1.014H9.71a.281.281,0,0,1,0-.561h3.021a.281.281,0,0,1,0,.561Z" fill="#c5dcfa"/>
            <circle id="Oval-3" data-name="Oval" cx="1.122" cy="1.122" r="1.122" transform="translate(10.098 2.201)" fill="#fff"/>
            <path id="Shape-15" data-name="Shape" d="M12.731,5.955H9.71a.281.281,0,0,0,0,.561h3.021a.281.281,0,0,0,0-.561Z" fill="#fff"/>
            <path id="Shape-16" data-name="Shape" d="M11.825,6.948H10.616a.281.281,0,1,0,0,.561h1.208a.281.281,0,1,0,0-.561Z" fill="#fff"/>
            <path id="Shape-17" data-name="Shape" d="M22.1,4.423a5.61,5.61,0,0,1-2.179-.432,1.094,1.094,0,0,1-.863.432A1.114,1.114,0,0,1,17.931,3.3a1.025,1.025,0,0,1,.129-.518,5.929,5.929,0,0,1-1.6-2.7H16.14a.479.479,0,0,0-.475.475V9.127a.479.479,0,0,0,.475.475h5.826a.479.479,0,0,0,.475-.475V4.4A1.975,1.975,0,0,1,22.1,4.423Zm-2.46,3.086H18.428a.281.281,0,1,1,0-.561h1.208a.281.281,0,0,1,0,.561Zm.906-1.014H17.521a.281.281,0,1,1,0-.561h3.021a.281.281,0,1,1,0,.561Z" fill="#c5dcfa"/>
            <path id="Shape-18" data-name="Shape" d="M19.032,4.445a1.094,1.094,0,0,0,.863-.432,5.632,5.632,0,0,1-1.856-1.208,1.025,1.025,0,0,0-.129.518,1.128,1.128,0,0,0,1.122,1.122Z" fill="#fff"/>
            <path id="Shape-19" data-name="Shape" d="M20.542,5.955H17.521a.281.281,0,1,0,0,.561h3.021a.281.281,0,1,0,0-.561Z" fill="#fff"/>
            <path id="Shape-20" data-name="Shape" d="M19.636,6.948H18.428a.281.281,0,1,0,0,.561h1.208a.281.281,0,0,0,0-.561Z" fill="#fff"/>
            <path id="Shape-21" data-name="Shape" d="M6.775,10.983a.479.479,0,0,0-.475-.475H.475A.479.479,0,0,0,0,10.983v5.028H6.775V10.983ZM3.388,14.824A1.122,1.122,0,1,1,4.51,13.7,1.114,1.114,0,0,1,3.388,14.824Z" fill="#c5dcfa"/>
            <circle id="Oval-4" data-name="Oval" cx="1.122" cy="1.122" r="1.122" transform="translate(2.266 12.58)" fill="#fff"/>
            <path id="Shape-22" data-name="Shape" d="M14.587,10.983a.479.479,0,0,0-.475-.475H8.286a.479.479,0,0,0-.475.475v5.028h6.775ZM11.22,14.824A1.122,1.122,0,1,1,12.343,13.7,1.128,1.128,0,0,1,11.22,14.824Z" fill="#c5dcfa"/>
            <circle id="Oval-5" data-name="Oval" cx="1.122" cy="1.122" r="1.122" transform="translate(10.098 12.58)" fill="#fff"/>
            <path id="Shape-23" data-name="Shape" d="M22.419,10.983a.479.479,0,0,0-.475-.475H16.119a.479.479,0,0,0-.475.475v5.028h6.775V10.983Zm-3.388,3.841A1.122,1.122,0,1,1,20.154,13.7,1.114,1.114,0,0,1,19.032,14.824Z" fill="#c5dcfa"/>
            <circle id="Oval-6" data-name="Oval" cx="1.122" cy="1.122" r="1.122" transform="translate(17.91 12.58)" fill="#fff"/>
          </g>
        </g>
      </g>
    </g>
  </g>
</svg>
