<svg xmlns="http://www.w3.org/2000/svg" width="18" height="18" viewBox="0 0 18 18">
  <g id="Group_20247" data-name="Group 20247" transform="translate(-1117 -21)">
    <g id="Rectangle_17052" data-name="Rectangle 17052" transform="translate(1117 21)" fill="#fff" stroke="#cdcdcd" stroke-width="1">
      <rect width="18" height="18" rx="4" stroke="none"/>
      <rect x="0.5" y="0.5" width="17" height="17" rx="3.5" fill="none"/>
    </g>
    <g id="trash-alt" transform="translate(1120.75 24)">
      <g id="Group_18706" data-name="Group 18706">
        <path id="Path_134" data-name="Path 134" d="M6.281,9.75h.563a.281.281,0,0,0,.281-.281V4.406a.281.281,0,0,0-.281-.281H6.281A.281.281,0,0,0,6,4.406V9.469A.281.281,0,0,0,6.281,9.75Zm3.844-7.875H8.194L7.4.546A1.125,1.125,0,0,0,6.431,0H4.069A1.125,1.125,0,0,0,3.1.546l-.8,1.329H.375A.375.375,0,0,0,0,2.25v.375A.375.375,0,0,0,.375,3H.75v7.875A1.125,1.125,0,0,0,1.875,12h6.75A1.125,1.125,0,0,0,9.75,10.875V3h.375a.375.375,0,0,0,.375-.375V2.25A.375.375,0,0,0,10.125,1.875Zm-6.1-.682a.141.141,0,0,1,.121-.068h2.2a.141.141,0,0,1,.121.068l.409.682H3.619Zm4.6,9.682H1.875V3h6.75ZM3.656,9.75h.563A.281.281,0,0,0,4.5,9.469V4.406a.281.281,0,0,0-.281-.281H3.656a.281.281,0,0,0-.281.281V9.469A.281.281,0,0,0,3.656,9.75Z" transform="translate(0 0)" fill="#666"/>
      </g>
    </g>
  </g>
</svg>
