<svg xmlns="http://www.w3.org/2000/svg" xmlns:xlink="http://www.w3.org/1999/xlink" width="16" height="16" viewBox="0 0 16 16">
  <defs>
    <clipPath id="clip-path">
      <rect id="Rectangle_17050" data-name="Rectangle 17050" width="16" height="16" transform="translate(1 224)" fill="#a7a7a7" stroke="#707070" stroke-width="1"/>
    </clipPath>
  </defs>
  <g id="Mask_Group_12" data-name="Mask Group 12" transform="translate(-1 -224)" clip-path="url(#clip-path)">
    <g id="_48px_event-confirm" data-name="48px_event-confirm" transform="translate(1.174 224)">
      <path id="Path_88" data-name="Path 88" d="M5.565,3.565a.348.348,0,0,1-.348-.348V.783a.348.348,0,0,1,.7,0V3.217A.348.348,0,0,1,5.565,3.565Z" transform="translate(-1.739 -0.435)" fill="#a7a7a7"/>
      <path id="Path_89" data-name="Path 89" d="M15.13,3.565a.348.348,0,0,1-.348-.348V.783a.348.348,0,1,1,.7,0V3.217A.348.348,0,0,1,15.13,3.565Z" transform="translate(-3.652 -0.435)" fill="#a7a7a7"/>
      <path id="Path_90" data-name="Path 90" d="M9.713,14.7h-7.8a.348.348,0,0,1-.348-.348v-8A.348.348,0,0,1,1.913,6H15.13a.348.348,0,0,1,.348.348v4.1a3.846,3.846,0,0,1,.7.584V2.87a.7.7,0,0,0-.7-.7H13.391V3.565a1.043,1.043,0,1,1-2.087,0V2.174H5.739V3.565a1.043,1.043,0,0,1-2.087,0V2.174H1.565a.7.7,0,0,0-.7.7V14.7a.7.7,0,0,0,.7.7H9.986a3.789,3.789,0,0,1-.273-.7Z" transform="translate(-0.87 -0.783)" fill="#a7a7a7"/>
      <path id="Path_91" data-name="Path 91" d="M12.609,15.739a3.13,3.13,0,1,0,3.13-3.13A3.13,3.13,0,0,0,12.609,15.739Zm5.115-1.289a.348.348,0,0,1,0,.492l-2.435,2.435a.348.348,0,0,1-.492,0l-1.043-1.043a.348.348,0,1,1,.492-.492l.8.8,2.189-2.189A.348.348,0,0,1,17.724,14.45Z" transform="translate(-3.217 -2.87)" fill="#a7a7a7"/>
    </g>
  </g>
</svg>
