<svg id="_48px_logo-facebook" data-name="48px_logo-facebook" xmlns="http://www.w3.org/2000/svg" width="24" height="24" viewBox="0 0 24 24">
  <g id="Group_18615" data-name="Group 18615">
    <path id="White_4_" d="M23,24a1,1,0,0,0,1-1V1a1,1,0,0,0-1-1H1A1,1,0,0,0,0,1V23a1,1,0,0,0,1,1Z" fill="#39579a"/>
    <path id="White_2_" d="M22.26,27.625v-9.5H19v-3.5h3.26V12.038c0-3.1,1.893-4.787,4.658-4.787a25.7,25.7,0,0,1,2.8.142v3.24H27.8c-1.5,0-1.8.715-1.8,1.764v2.228h3.5l-.5,3.5H26v9.5Z" transform="translate(-9.5 -3.625)" fill="#fff"/>
  </g>
</svg>
