<svg xmlns="http://www.w3.org/2000/svg" width="23.999" height="24" viewBox="0 0 23.999 24">
  <g id="_48px_logo-linkedin" data-name="48px_logo-linkedin" transform="translate(-0.001)">
    <g id="Group_18616" data-name="Group 18616" transform="translate(0.001)">
      <path id="Path_105" data-name="Path 105" d="M22.225,0H1.77A1.751,1.751,0,0,0,0,1.73V22.268A1.752,1.752,0,0,0,1.77,24H22.225A1.755,1.755,0,0,0,24,22.268V1.73A1.753,1.753,0,0,0,22.226,0Z" transform="translate(-0.001)" fill="#007bb5"/>
      <path id="Path_106" data-name="Path 106" d="M6.829,12.3h3.563V23.754H6.829ZM8.611,6.608A2.065,2.065,0,1,1,6.545,8.671,2.064,2.064,0,0,1,8.611,6.608" transform="translate(-3.273 -3.304)" fill="#fff"/>
      <path id="Path_107" data-name="Path 107" d="M18.7,17.711h3.412v1.566h.049a3.741,3.741,0,0,1,3.368-1.85c3.6,0,4.27,2.372,4.27,5.456v6.281H26.245v-5.57c0-1.328-.023-3.037-1.85-3.037-1.852,0-2.135,1.448-2.135,2.942v5.665H18.7V17.71Z" transform="translate(-9.353 -8.713)" fill="#fff"/>
    </g>
  </g>
</svg>
