<svg width="233" height="222" viewBox="0 0 233 222" fill="none" xmlns="http://www.w3.org/2000/svg">
<path d="M89.0249 70.9326L83.6395 57.7815H44.0361L51.876 154.569C51.876 165.269 68.1042 163.337 78.8172 163.337H159.439L159.511 161.448L163.279 70.9326H89.0249Z" fill="#7030A0"/>
<path d="M89.0249 70.9326L83.6395 57.7815H44.0361L51.876 154.569C51.876 165.269 68.1042 163.337 78.8172 163.337H159.439L159.511 161.448L163.279 70.9326H89.0249Z" fill="white" fill-opacity="0.2"/>
<path d="M159.265 163.221C159.265 163.221 59.9752 163.351 69.0423 163.221C78.1093 163.091 77.5174 82.584 77.5174 82.584H183.189L176.331 147.864C175.892 152.078 173.904 155.981 170.752 158.817C167.6 161.654 163.508 163.223 159.265 163.221Z" fill="white"/>
<path d="M159.265 163.221C159.265 163.221 59.9752 163.351 69.0423 163.221C78.1093 163.091 77.5174 82.584 77.5174 82.584H183.189L176.331 147.864C175.892 152.078 173.904 155.981 170.752 158.817C167.6 161.654 163.508 163.223 159.265 163.221Z" stroke="#7030A0" stroke-miterlimit="10"/>
<path d="M159.265 163.221C159.265 163.221 59.9752 163.351 69.0423 163.221C78.1093 163.091 77.5174 82.584 77.5174 82.584H183.189L176.331 147.864C175.892 152.078 173.904 155.981 170.752 158.817C167.6 161.654 163.508 163.223 159.265 163.221Z" stroke="white" stroke-opacity="0.2" stroke-miterlimit="10"/>
<path d="M108.011 130.141C110.004 130.141 111.62 128.527 111.62 126.536C111.62 124.545 110.004 122.931 108.011 122.931C106.017 122.931 104.401 124.545 104.401 126.536C104.401 128.527 106.017 130.141 108.011 130.141Z" fill="#7030A0"/>
<path d="M108.011 130.141C110.004 130.141 111.62 128.527 111.62 126.536C111.62 124.545 110.004 122.931 108.011 122.931C106.017 122.931 104.401 124.545 104.401 126.536C104.401 128.527 106.017 130.141 108.011 130.141Z" fill="white" fill-opacity="0.2"/>
<path d="M144.538 130.141C146.532 130.141 148.148 128.527 148.148 126.536C148.148 124.545 146.532 122.931 144.538 122.931C142.545 122.931 140.929 124.545 140.929 126.536C140.929 128.527 142.545 130.141 144.538 130.141Z" fill="#7030A0"/>
<path d="M144.538 130.141C146.532 130.141 148.148 128.527 148.148 126.536C148.148 124.545 146.532 122.931 144.538 122.931C142.545 122.931 140.929 124.545 140.929 126.536C140.929 128.527 142.545 130.141 144.538 130.141Z" fill="white" fill-opacity="0.2"/>
<path d="M99.853 115.087C99.6073 115.085 99.3695 114.999 99.1788 114.845C98.9882 114.69 98.856 114.475 98.8039 114.235C98.7518 113.995 98.783 113.744 98.8923 113.525C99.0016 113.305 99.1826 113.128 99.4054 113.025L111.158 107.545C111.287 107.484 111.426 107.45 111.569 107.443C111.711 107.436 111.854 107.457 111.988 107.505C112.122 107.554 112.245 107.628 112.351 107.724C112.456 107.82 112.541 107.935 112.602 108.064C112.721 108.325 112.733 108.622 112.636 108.891C112.539 109.161 112.34 109.382 112.082 109.506L100.315 114.986C100.171 115.055 100.013 115.09 99.853 115.087Z" fill="#7030A0"/>
<path d="M99.853 115.087C99.6073 115.085 99.3695 114.999 99.1788 114.845C98.9882 114.69 98.856 114.475 98.8039 114.235C98.7518 113.995 98.783 113.744 98.8923 113.525C99.0016 113.305 99.1826 113.128 99.4054 113.025L111.158 107.545C111.287 107.484 111.426 107.45 111.569 107.443C111.711 107.436 111.854 107.457 111.988 107.505C112.122 107.554 112.245 107.628 112.351 107.724C112.456 107.82 112.541 107.935 112.602 108.064C112.721 108.325 112.733 108.622 112.636 108.891C112.539 109.161 112.34 109.382 112.082 109.506L100.315 114.986C100.171 115.055 100.013 115.09 99.853 115.087Z" fill="white" fill-opacity="0.2"/>
<path d="M152.378 114.611C152.24 114.615 152.102 114.591 151.974 114.539L140.525 109.78C140.258 109.671 140.047 109.461 139.936 109.196C139.825 108.931 139.824 108.633 139.933 108.367C140.042 108.101 140.252 107.89 140.518 107.779C140.783 107.668 141.081 107.667 141.348 107.776L152.797 112.477C152.931 112.532 153.053 112.613 153.155 112.716C153.258 112.819 153.339 112.941 153.394 113.075C153.449 113.209 153.477 113.352 153.476 113.497C153.475 113.642 153.446 113.786 153.389 113.919C153.31 114.123 153.171 114.298 152.991 114.422C152.811 114.545 152.597 114.611 152.378 114.611Z" fill="#7030A0"/>
<path d="M152.378 114.611C152.24 114.615 152.102 114.591 151.974 114.539L140.525 109.78C140.258 109.671 140.047 109.461 139.936 109.196C139.825 108.931 139.824 108.633 139.933 108.367C140.042 108.101 140.252 107.89 140.518 107.779C140.783 107.668 141.081 107.667 141.348 107.776L152.797 112.477C152.931 112.532 153.053 112.613 153.155 112.716C153.258 112.819 153.339 112.941 153.394 113.075C153.449 113.209 153.477 113.352 153.476 113.497C153.475 113.642 153.446 113.786 153.389 113.919C153.31 114.123 153.171 114.298 152.991 114.422C152.811 114.545 152.597 114.611 152.378 114.611Z" fill="white" fill-opacity="0.2"/>
<path d="M132.469 145.153H124.311C124.024 145.153 123.749 145.039 123.546 144.836C123.343 144.633 123.229 144.358 123.229 144.071C123.229 143.785 123.343 143.51 123.546 143.307C123.749 143.104 124.024 142.99 124.311 142.99H132.469C132.756 142.99 133.031 143.104 133.235 143.307C133.438 143.51 133.552 143.785 133.552 144.071C133.552 144.358 133.438 144.633 133.235 144.836C133.031 145.039 132.756 145.153 132.469 145.153Z" fill="#7030A0"/>
<path d="M132.469 145.153H124.311C124.024 145.153 123.749 145.039 123.546 144.836C123.343 144.633 123.229 144.358 123.229 144.071C123.229 143.785 123.343 143.51 123.546 143.307C123.749 143.104 124.024 142.99 124.311 142.99H132.469C132.756 142.99 133.031 143.104 133.235 143.307C133.438 143.51 133.552 143.785 133.552 144.071C133.552 144.358 133.438 144.633 133.235 144.836C133.031 145.039 132.756 145.153 132.469 145.153Z" fill="white" fill-opacity="0.2"/>
<path d="M208.99 132.175C212.976 132.175 216.208 128.947 216.208 124.965C216.208 120.983 212.976 117.755 208.99 117.755C205.003 117.755 201.771 120.983 201.771 124.965C201.771 128.947 205.003 132.175 208.99 132.175Z" fill="#7030A0"/>
<path d="M208.99 132.175C212.976 132.175 216.208 128.947 216.208 124.965C216.208 120.983 212.976 117.755 208.99 117.755C205.003 117.755 201.771 120.983 201.771 124.965C201.771 128.947 205.003 132.175 208.99 132.175Z" fill="white" fill-opacity="0.2"/>
<path d="M222.157 113.371C224.318 113.371 226.07 111.621 226.07 109.463C226.07 107.305 224.318 105.555 222.157 105.555C219.996 105.555 218.244 107.305 218.244 109.463C218.244 111.621 219.996 113.371 222.157 113.371Z" fill="#7030A0"/>
<path d="M222.157 113.371C224.318 113.371 226.07 111.621 226.07 109.463C226.07 107.305 224.318 105.555 222.157 105.555C219.996 105.555 218.244 107.305 218.244 109.463C218.244 111.621 219.996 113.371 222.157 113.371Z" fill="white" fill-opacity="0.2"/>
<path d="M108.242 44.4716C111.36 44.4716 113.887 41.9473 113.887 38.8333C113.887 35.7194 111.36 33.1951 108.242 33.1951C105.124 33.1951 102.597 35.7194 102.597 38.8333C102.597 41.9473 105.124 44.4716 108.242 44.4716Z" fill="#7030A0"/>
<path d="M108.242 44.4716C111.36 44.4716 113.887 41.9473 113.887 38.8333C113.887 35.7194 111.36 33.1951 108.242 33.1951C105.124 33.1951 102.597 35.7194 102.597 38.8333C102.597 41.9473 105.124 44.4716 108.242 44.4716Z" fill="white" fill-opacity="0.2"/>
<path d="M59.4846 38.5449C59.3796 38.545 59.2759 38.5218 59.181 38.4769C59.0861 38.432 59.0024 38.3666 58.9359 38.2853L53.0597 31.3925C52.9969 31.3221 52.9489 31.2397 52.9185 31.1505C52.8881 31.0612 52.8759 30.9667 52.8827 30.8726C52.8894 30.7785 52.9149 30.6868 52.9577 30.6027C53.0005 30.5186 53.0597 30.444 53.1319 30.3831C53.2784 30.2593 53.4676 30.1976 53.6591 30.211C53.8506 30.2245 54.0292 30.3121 54.157 30.4552L60.0332 37.348C60.1554 37.4962 60.2148 37.6862 60.1986 37.8775C60.1824 38.0688 60.092 38.2463 59.9466 38.3719C59.8184 38.4831 59.6544 38.5445 59.4846 38.5449Z" fill="#7030A0"/>
<path d="M59.4846 38.5449C59.3796 38.545 59.2759 38.5218 59.181 38.4769C59.0861 38.432 59.0024 38.3666 58.9359 38.2853L53.0597 31.3925C52.9969 31.3221 52.9489 31.2397 52.9185 31.1505C52.8881 31.0612 52.8759 30.9667 52.8827 30.8726C52.8894 30.7785 52.9149 30.6868 52.9577 30.6027C53.0005 30.5186 53.0597 30.444 53.1319 30.3831C53.2784 30.2593 53.4676 30.1976 53.6591 30.211C53.8506 30.2245 54.0292 30.3121 54.157 30.4552L60.0332 37.348C60.1554 37.4962 60.2148 37.6862 60.1986 37.8775C60.1824 38.0688 60.092 38.2463 59.9466 38.3719C59.8184 38.4831 59.6544 38.5445 59.4846 38.5449Z" fill="white" fill-opacity="0.2"/>
<path d="M53.4064 38.2997C53.3149 38.3025 53.2239 38.2859 53.1393 38.2511C53.0547 38.2163 52.9785 38.1641 52.9155 38.0979C52.8482 38.0321 52.7948 37.9535 52.7584 37.8669C52.7219 37.7802 52.7031 37.6872 52.7031 37.5931C52.7031 37.4991 52.7219 37.4061 52.7584 37.3194C52.7948 37.2328 52.8482 37.1542 52.9155 37.0884L58.9505 30.8157C59.0899 30.7039 59.2653 30.6467 59.4438 30.6545C59.6224 30.6624 59.7921 30.7348 59.9211 30.8584C60.0501 30.982 60.1297 31.1482 60.145 31.3261C60.1604 31.5039 60.1105 31.6813 60.0045 31.8251L53.955 38.0834C53.8845 38.1568 53.799 38.2141 53.7043 38.2514C53.6096 38.2887 53.508 38.3052 53.4064 38.2997Z" fill="#7030A0"/>
<path d="M53.4064 38.2997C53.3149 38.3025 53.2239 38.2859 53.1393 38.2511C53.0547 38.2163 52.9785 38.1641 52.9155 38.0979C52.8482 38.0321 52.7948 37.9535 52.7584 37.8669C52.7219 37.7802 52.7031 37.6872 52.7031 37.5931C52.7031 37.4991 52.7219 37.4061 52.7584 37.3194C52.7948 37.2328 52.8482 37.1542 52.9155 37.0884L58.9505 30.8157C59.0899 30.7039 59.2653 30.6467 59.4438 30.6545C59.6224 30.6624 59.7921 30.7348 59.9211 30.8584C60.0501 30.982 60.1297 31.1482 60.145 31.3261C60.1604 31.5039 60.1105 31.6813 60.0045 31.8251L53.955 38.0834C53.8845 38.1568 53.799 38.2141 53.7043 38.2514C53.6096 38.2887 53.508 38.3052 53.4064 38.2997Z" fill="white" fill-opacity="0.2"/>
<path d="M38.2028 140.481C38.1024 140.482 38.0029 140.463 37.9108 140.423C37.8187 140.383 37.7361 140.324 37.6686 140.25L29.4389 131.483C29.3717 131.417 29.3183 131.338 29.2818 131.252C29.2453 131.165 29.2266 131.072 29.2266 130.978C29.2266 130.884 29.2453 130.791 29.2818 130.704C29.3183 130.618 29.3717 130.539 29.4389 130.473C29.506 130.406 29.5859 130.352 29.6738 130.315C29.7618 130.279 29.8562 130.26 29.9515 130.26C30.0468 130.26 30.1411 130.279 30.2291 130.315C30.317 130.352 30.3969 130.406 30.464 130.473L38.6936 139.241C38.7957 139.34 38.8652 139.469 38.8929 139.608C38.9207 139.748 38.9055 139.893 38.8492 140.024C38.793 140.155 38.6984 140.266 38.5779 140.343C38.4574 140.419 38.3165 140.457 38.1739 140.452L38.2028 140.481Z" fill="#7030A0"/>
<path d="M38.2028 140.481C38.1024 140.482 38.0029 140.463 37.9108 140.423C37.8187 140.383 37.7361 140.324 37.6686 140.25L29.4389 131.483C29.3717 131.417 29.3183 131.338 29.2818 131.252C29.2453 131.165 29.2266 131.072 29.2266 130.978C29.2266 130.884 29.2453 130.791 29.2818 130.704C29.3183 130.618 29.3717 130.539 29.4389 130.473C29.506 130.406 29.5859 130.352 29.6738 130.315C29.7618 130.279 29.8562 130.26 29.9515 130.26C30.0468 130.26 30.1411 130.279 30.2291 130.315C30.317 130.352 30.3969 130.406 30.464 130.473L38.6936 139.241C38.7957 139.34 38.8652 139.469 38.8929 139.608C38.9207 139.748 38.9055 139.893 38.8492 140.024C38.793 140.155 38.6984 140.266 38.5779 140.343C38.4574 140.419 38.3165 140.457 38.1739 140.452L38.2028 140.481Z" fill="white" fill-opacity="0.2"/>
<path d="M30.1612 140.063C29.974 140.058 29.7946 139.986 29.6559 139.861C29.5227 139.723 29.4482 139.54 29.4482 139.349C29.4482 139.158 29.5227 138.974 29.6559 138.837L37.8856 130.343C37.9527 130.276 38.0325 130.222 38.1205 130.186C38.2084 130.149 38.3028 130.13 38.3981 130.13C38.4934 130.13 38.5878 130.149 38.6757 130.186C38.7637 130.222 38.8436 130.276 38.9107 130.343C38.9779 130.409 39.0313 130.488 39.0678 130.574C39.1042 130.661 39.123 130.754 39.123 130.848C39.123 130.942 39.1042 131.035 39.0678 131.122C39.0313 131.209 38.9779 131.287 38.9107 131.353L30.681 139.861C30.541 139.993 30.3543 140.066 30.1612 140.063Z" fill="#7030A0"/>
<path d="M30.1612 140.063C29.974 140.058 29.7946 139.986 29.6559 139.861C29.5227 139.723 29.4482 139.54 29.4482 139.349C29.4482 139.158 29.5227 138.974 29.6559 138.837L37.8856 130.343C37.9527 130.276 38.0325 130.222 38.1205 130.186C38.2084 130.149 38.3028 130.13 38.3981 130.13C38.4934 130.13 38.5878 130.149 38.6757 130.186C38.7637 130.222 38.8436 130.276 38.9107 130.343C38.9779 130.409 39.0313 130.488 39.0678 130.574C39.1042 130.661 39.123 130.754 39.123 130.848C39.123 130.942 39.1042 131.035 39.0678 131.122C39.0313 131.209 38.9779 131.287 38.9107 131.353L30.681 139.861C30.541 139.993 30.3543 140.066 30.1612 140.063Z" fill="white" fill-opacity="0.2"/>
<path d="M3.68168 100.912C5.71502 100.912 7.36337 99.2656 7.36337 97.2347C7.36337 95.2039 5.71502 93.5576 3.68168 93.5576C1.64835 93.5576 0 95.2039 0 97.2347C0 99.2656 1.64835 100.912 3.68168 100.912Z" fill="#7030A0"/>
<path d="M3.68168 100.912C5.71502 100.912 7.36337 99.2656 7.36337 97.2347C7.36337 95.2039 5.71502 93.5576 3.68168 93.5576C1.64835 93.5576 0 95.2039 0 97.2347C0 99.2656 1.64835 100.912 3.68168 100.912Z" fill="white" fill-opacity="0.2"/>
<path d="M232.091 34.7957C232.093 28.2234 230.179 21.7927 226.582 16.2893C222.985 10.7859 217.861 6.44818 211.836 3.80612C205.81 1.16405 199.145 0.332079 192.654 1.41189C186.163 2.49169 180.128 5.4365 175.285 9.88648C170.443 14.3365 167.003 20.0989 165.386 26.4697C163.769 32.8404 164.045 39.5436 166.181 45.7602C168.316 51.9767 172.219 57.4374 177.411 61.4749C182.603 65.5125 188.86 67.952 195.418 68.4955C193.292 71.2664 190.755 73.6976 187.896 75.7055C187.837 75.7455 187.793 75.8032 187.77 75.8702C187.746 75.9371 187.745 76.0099 187.766 76.0776C187.787 76.1454 187.829 76.2046 187.886 76.2467C187.943 76.2887 188.013 76.3113 188.084 76.3112C198.239 75.9617 207.848 71.6367 214.837 64.2704C220.072 61.3268 224.428 57.0459 227.46 51.8664C230.492 46.687 232.09 40.7954 232.091 34.7957V34.7957Z" stroke="#7030A0" stroke-width="1.25" stroke-miterlimit="10"/>
<path d="M232.091 34.7957C232.093 28.2234 230.179 21.7927 226.582 16.2893C222.985 10.7859 217.861 6.44818 211.836 3.80612C205.81 1.16405 199.145 0.332079 192.654 1.41189C186.163 2.49169 180.128 5.4365 175.285 9.88648C170.443 14.3365 167.003 20.0989 165.386 26.4697C163.769 32.8404 164.045 39.5436 166.181 45.7602C168.316 51.9767 172.219 57.4374 177.411 61.4749C182.603 65.5125 188.86 67.952 195.418 68.4955C193.292 71.2664 190.755 73.6976 187.896 75.7055C187.837 75.7455 187.793 75.8032 187.77 75.8702C187.746 75.9371 187.745 76.0099 187.766 76.0776C187.787 76.1454 187.829 76.2046 187.886 76.2467C187.943 76.2887 188.013 76.3113 188.084 76.3112C198.239 75.9617 207.848 71.6367 214.837 64.2704C220.072 61.3268 224.428 57.0459 227.46 51.8664C230.492 46.687 232.09 40.7954 232.091 34.7957V34.7957Z" stroke="white" stroke-opacity="0.2" stroke-width="1.25" stroke-miterlimit="10"/>
<path d="M184.994 18.602C188.973 16.4187 193.448 15.2964 197.988 15.3431C199.868 15.2856 201.743 15.574 203.518 16.1939C206.492 17.3908 206.795 19.7989 205.554 22.5532C203.891 26.5427 201.063 29.9395 197.44 32.3012C195.594 33.4391 193.507 34.1304 191.347 34.32C190.309 34.4241 189.261 34.3608 188.243 34.1325C187.333 33.8874 186.308 33.4836 187.131 32.2291C187.626 31.7288 188.208 31.3232 188.849 31.0322C192.879 28.5077 197.654 27.4389 202.377 28.004C203.418 28.1269 204.418 28.484 205.301 29.0485C206.183 29.613 206.927 30.3701 207.474 31.2629C208.716 33.6422 207.734 36.483 206.55 38.6749C204.456 42.5106 201.107 45.8849 196.674 46.779C195.511 47.0286 194.312 47.0628 193.137 46.8799C192.664 46.8371 192.204 46.7049 191.78 46.4905C190.841 45.7263 191.636 44.7025 192.357 44.241C194.278 43.0009 197.44 42.799 199.576 42.6837C201.713 42.5683 204.5 42.4962 206.362 44.1257C207.133 44.8192 207.742 45.6733 208.146 46.6276C208.55 47.5819 208.74 48.6131 208.701 49.6486C208.557 54.4793 203.576 57.2335 199.187 56.8586C198.032 56.7577 198.032 58.5602 199.187 58.6611C204.139 59.1082 209.596 56.0367 210.405 50.831C210.605 49.6685 210.561 48.4771 210.275 47.3327C209.989 46.1882 209.467 45.1159 208.743 44.1839C208.019 43.2519 207.109 42.4808 206.07 41.9196C205.031 41.3584 203.887 41.0195 202.709 40.9244C199.822 40.6648 187.218 41.1263 189.715 46.8799C190.683 49.1006 194.307 48.9708 196.285 48.6969C199.113 48.2567 201.746 46.9867 203.85 45.0485C207.604 41.6742 212.036 34.6805 208.571 29.7632C205.106 24.846 197.541 25.6679 192.56 27.3695C190.249 28.1626 186.395 29.4892 185.196 31.8109C183.998 34.1325 186.178 35.6322 188.17 36.0216C194.133 37.1608 200.024 33.6566 203.605 29.1431C205.776 26.6974 207.3 23.7478 208.037 20.5632C208.47 17.6071 206.593 15.5018 203.937 14.4923C197.671 12.113 189.686 14.002 184.012 17.0879C182.987 17.6359 183.897 19.1933 184.922 18.6453L184.994 18.602Z" fill="#7030A0"/>
<path d="M184.994 18.602C188.973 16.4187 193.448 15.2964 197.988 15.3431C199.868 15.2856 201.743 15.574 203.518 16.1939C206.492 17.3908 206.795 19.7989 205.554 22.5532C203.891 26.5427 201.063 29.9395 197.44 32.3012C195.594 33.4391 193.507 34.1304 191.347 34.32C190.309 34.4241 189.261 34.3608 188.243 34.1325C187.333 33.8874 186.308 33.4836 187.131 32.2291C187.626 31.7288 188.208 31.3232 188.849 31.0322C192.879 28.5077 197.654 27.4389 202.377 28.004C203.418 28.1269 204.418 28.484 205.301 29.0485C206.183 29.613 206.927 30.3701 207.474 31.2629C208.716 33.6422 207.734 36.483 206.55 38.6749C204.456 42.5106 201.107 45.8849 196.674 46.779C195.511 47.0286 194.312 47.0628 193.137 46.8799C192.664 46.8371 192.204 46.7049 191.78 46.4905C190.841 45.7263 191.636 44.7025 192.357 44.241C194.278 43.0009 197.44 42.799 199.576 42.6837C201.713 42.5683 204.5 42.4962 206.362 44.1257C207.133 44.8192 207.742 45.6733 208.146 46.6276C208.55 47.5819 208.74 48.6131 208.701 49.6486C208.557 54.4793 203.576 57.2335 199.187 56.8586C198.032 56.7577 198.032 58.5602 199.187 58.6611C204.139 59.1082 209.596 56.0367 210.405 50.831C210.605 49.6685 210.561 48.4771 210.275 47.3327C209.989 46.1882 209.467 45.1159 208.743 44.1839C208.019 43.2519 207.109 42.4808 206.07 41.9196C205.031 41.3584 203.887 41.0195 202.709 40.9244C199.822 40.6648 187.218 41.1263 189.715 46.8799C190.683 49.1006 194.307 48.9708 196.285 48.6969C199.113 48.2567 201.746 46.9867 203.85 45.0485C207.604 41.6742 212.036 34.6805 208.571 29.7632C205.106 24.846 197.541 25.6679 192.56 27.3695C190.249 28.1626 186.395 29.4892 185.196 31.8109C183.998 34.1325 186.178 35.6322 188.17 36.0216C194.133 37.1608 200.024 33.6566 203.605 29.1431C205.776 26.6974 207.3 23.7478 208.037 20.5632C208.47 17.6071 206.593 15.5018 203.937 14.4923C197.671 12.113 189.686 14.002 184.012 17.0879C182.987 17.6359 183.897 19.1933 184.922 18.6453L184.994 18.602Z" fill="white" fill-opacity="0.2"/>
<path d="M79.16 211V189.656H76.504V206.328L64.216 189.656H61.496V211H64.152V193.976L76.6 211H79.16ZM90.8083 211.384C95.5123 211.384 98.4563 207.736 98.4563 203.256C98.4563 198.776 95.5123 195.16 90.8083 195.16C86.1043 195.16 83.1603 198.776 83.1603 203.256C83.1603 207.736 86.1043 211.384 90.8083 211.384ZM90.8083 209.24C87.5123 209.24 85.6562 206.424 85.6562 203.256C85.6562 200.12 87.5123 197.304 90.8083 197.304C94.1043 197.304 95.9283 200.12 95.9283 203.256C95.9283 206.424 94.1043 209.24 90.8083 209.24ZM118.011 211C124.635 211 128.955 206.424 128.955 200.344C128.955 194.296 124.635 189.656 118.011 189.656H110.715V211H118.011ZM118.011 208.632H113.371V192.024H118.011C123.291 192.024 126.203 195.736 126.203 200.344C126.203 204.92 123.195 208.632 118.011 208.632ZM145.089 211V200.376C145.089 196.632 142.369 195.16 139.105 195.16C136.577 195.16 134.593 195.992 132.929 197.72L134.049 199.384C135.425 197.912 136.929 197.24 138.785 197.24C141.025 197.24 142.689 198.424 142.689 200.504V203.288C141.441 201.848 139.681 201.176 137.569 201.176C134.945 201.176 132.161 202.808 132.161 206.264C132.161 209.624 134.945 211.384 137.569 211.384C139.649 211.384 141.409 210.648 142.689 209.24V211H145.089ZM138.433 209.656C136.193 209.656 134.625 208.248 134.625 206.296C134.625 204.312 136.193 202.904 138.433 202.904C140.129 202.904 141.761 203.544 142.689 204.824V207.736C141.761 209.016 140.129 209.656 138.433 209.656ZM153.804 211.384C155.212 211.384 156.076 210.968 156.684 210.392L155.98 208.6C155.66 208.952 155.02 209.24 154.348 209.24C153.292 209.24 152.78 208.408 152.78 207.256V197.656H155.916V195.544H152.78V191.32H150.38V195.544H147.82V197.656H150.38V207.768C150.38 210.072 151.532 211.384 153.804 211.384ZM171.37 211V200.376C171.37 196.632 168.65 195.16 165.386 195.16C162.858 195.16 160.874 195.992 159.21 197.72L160.33 199.384C161.706 197.912 163.21 197.24 165.066 197.24C167.306 197.24 168.97 198.424 168.97 200.504V203.288C167.722 201.848 165.962 201.176 163.85 201.176C161.226 201.176 158.442 202.808 158.442 206.264C158.442 209.624 161.226 211.384 163.85 211.384C165.93 211.384 167.69 210.648 168.97 209.24V211H171.37ZM164.714 209.656C162.474 209.656 160.906 208.248 160.906 206.296C160.906 204.312 162.474 202.904 164.714 202.904C166.41 202.904 168.042 203.544 168.97 204.824V207.736C168.042 209.016 166.41 209.656 164.714 209.656Z" fill="#808080"/>
</svg>
