<svg id="Layer_1" data-name="Layer 1" xmlns="http://www.w3.org/2000/svg" viewBox="0 0 1200 1200"><defs><style>.cls-1{fill:#2195f2;}.cls-2{fill:#359ff3;}.cls-3{fill:#5cb2f5;}.cls-4{fill:#4daaf4;}.cls-5{fill:#97cdf8;}.cls-6{fill:#8dc9f8;}.cls-7{fill:#fefefe;}</style></defs><title>call</title><path class="cls-1" d="M8.2,515v-7a17.4,17.4,0,0,0,0-13.8V473.4c2.8-13.2,1.6-26.7,2-40,1.1-41.9,1.5-83.7,4.5-125.5,2.7-36.3,4.7-72.8,11.3-108.8C43.2,105.9,123,31.9,217.4,22.3c56.9-5.9,113.8-11.9,171.1-13.1,36.1-.8,72.2-1.3,108.2-2.3,58.9-1.8,117.7-1.1,176.5-.8,53.7.3,107.5,1,161.2,3.6s109,6,162.8,15c91.8,15.4,168.4,96.5,177.9,191.7,5.7,57,11.8,113.8,13,171.1.8,36.9,1.3,73.7,2.4,110.6,1.6,55.7.3,111.4.9,167.2.2,20.3-1.8,40.6-1.3,61-1.4,6.6-5.8,5-9.7,3s-7.1-5.8-10.4-9.1Q1029.6,580,889.3,439.6a188.1,188.1,0,0,1-14.6-16.4,86.4,86.4,0,0,0-26.1-22.4c-18.1-19.3-35.7-39-57.3-54.8-51.4-37.9-108.4-59.5-172.5-64.2-41.8-3-81.9,3.3-121.1,16.4-24.9,8.2-49.3,8.9-74.8,3.6-77-16.1-148.6,20.5-177,92.6-19.4,49.2-13,96.8,15.8,140.8a118.7,118.7,0,0,1,20,63.7c1.8,63,18.2,122.1,53.8,175,15.5,23,32.8,44.5,54.5,62.1,4.3,3.4,7.5,7.7,11.2,11.6a102.6,102.6,0,0,0,24.6,27.1,147.3,147.3,0,0,1,13.7,12.4q141.3,141,282.2,282.3c4.7,4.8,12.7,8.5,9.4,17.9-3,1.6-6.7-.6-9.5,1.8H689.3a23.7,23.7,0,0,0-16.2,0h-6.9c-4.7-2.5-9.7-.6-14.6-1.2H638.3c-7.6.7-15.4-1.3-22.9,1.2H583.1c-7.6-2.6-15.3-.5-22.9-1.2H546.7c-5.5.6-11.3-1.3-16.7,1.2h-6.9a23.7,23.7,0,0,0-16.2,0H474.6c-13.6-2.7-27.5-1.7-41.2-2-42.2-1-84.5-1.4-126.6-4.6-35.6-2.7-71.3-4.7-106.5-11.2C107.6,1154.1,33.4,1075,23.4,979.9c-6-56.9-11-113.8-12-171.1-.5-28.7-.1-57.5-3.2-86.1v-30c2.5-4.6.6-9.6,1.2-14.4V633.5c-.6-6.4,1.3-13-1.2-19.3V577.3c2.6-8.8.5-17.8,1.2-26.7-.6-5,1.2-10.1-1.2-14.9v-6.9A17.4,17.4,0,0,0,8.2,515Z"/><path class="cls-1" d="M398.3,852.1c13.5,8.5,26.7,17.6,40.6,25.4,84,47,172,55.9,263.5,25.7,24.4-8.1,48.1-9.6,73.4-3.4,62.9,15.3,128.6-10.6,165-63.5s37.6-122.3,1.3-176.7c-13-19.4-20.3-39.9-20.6-63.5-.7-73.9-24.8-139.9-69.3-198.7,5.4,1.7,8.6,6.2,12.4,10l312.8,312.9c3.3,3.2,6.7,6.3,10.1,9.4.1,38.5-2.8,76.8-5.5,115.1-2.8,39.9-7.9,79.6-10.1,119.4-5.9,105.6-84.4,191.1-189.4,204.3-77.8,9.7-156.1,14-234.4,18-5.7.3-11.5-.1-17.3-.2-3.1-3.3-6.1-6.8-9.4-10L409.1,864C405.3,860.2,401.9,856.1,398.3,852.1Z"/><path class="cls-1" d="M627.2,25h11.4a5.4,5.4,0,0,0,6.8,0h6.9c17,2.6,34.2,2.2,51.3,4,42.7,4.3,83,17.8,122.4,33.7,68.9,27.9,129.9,68,183.9,119.4,49.6,47.5,90.1,101.4,120.9,162.4,22.8,45.2,39.9,92.7,49.7,142.5,4.2,21.6,4,43.6,5.8,65.5.2,2.5-.8,5.3,1.1,7.6v18.2a18.1,18.1,0,0,0,0,13.7v47.8a5.2,5.2,0,0,0,0,6.8V658c-2.7,15.3-2.4,30.8-3.7,46.2-3.9,43.5-17.4,84.6-33.8,124.6-21.9,53.3-50.1,103-86.9,147.6-49.9,60.6-108.3,111-177.5,148.6a593.5,593.5,0,0,1-169.6,60.9c-17.8,3.6-35.9,3.9-53.9,4.8-49.8,2.6-99.6,2.2-149.3-2.3-38-3.4-74.4-14.5-110.1-27.6-67.9-25-129.8-60.8-184.1-108.8S119.7,949.7,85.8,885.9A595.5,595.5,0,0,1,26.5,719.4c-3.1-15.9-3.8-32-4.6-48.1-2.7-54-3.2-108,2.9-161.7,5.4-47.1,20.7-91.7,39.2-135.1a567.7,567.7,0,0,1,96.9-153.2c40.7-46.3,87.4-86,140.5-117.9,56.2-33.6,116.1-57.6,180.1-71,22.2-4.7,45-4.4,67.5-6.3,2.6-.2,5.3.8,7.6-1.1h13.7c4.4,2.4,9.1.5,13.6,1.1s9.3,1.3,13.7-1.1h13.7A24.1,24.1,0,0,0,627.2,25Z"/><path class="cls-2" d="M627.2,25c-5.3,3.2-10.6,3-15.9,0Z"/><path class="cls-3" d="M583.7,27.1c-4.5-.4-9.4,1.6-13.4-2.1H584C585.5,25.9,585.5,26.6,583.7,27.1Z"/><path class="cls-2" d="M583.7,27.1,584,25h13.6C593.4,28,588.5,27.1,583.7,27.1Z"/><path class="cls-4" d="M1187.4,592c-2.7-4.6-3.5-9.1,0-13.7Z"/><path class="cls-5" d="M645.4,25c-2.2,3.3-4.5,2.5-6.8,0Z"/><path class="cls-6" d="M1187.4,646.6c-3.2-2.2-2.4-4.5,0-6.8Z"/><path class="cls-7" d="M817.8,966.6c-51.3-1.4-96.1-17.2-139.3-38.4-83.6-41.1-155.8-98-221.7-163.1-68.6-67.9-128.6-142.4-171.7-229.3-21-42.4-37.1-86.4-39-134.4-1.4-34.9,6.6-66.9,30.3-93.9,13.3-15.2,32-21.3,49.4-29.2,20-9.2,40.5-17,61-25.1s37.4-2.8,49.1,17.3c23.3,40,46.3,80,69.4,120.1,13.3,23.1,9,40.9-13.5,55.2C455.4,469,436.4,501,440.4,545c1.8,20.2,10,37.9,22.4,53.8A873.8,873.8,0,0,0,612.9,748.9c50.9,39.9,115.4,29.4,151.3-24.6,1.9-2.8,3.6-5.8,5.6-8.6,10.9-15.5,29.6-21,46.1-11.7q65.3,36.8,129.9,75c16.2,9.5,21.3,26.2,14,44.6-10.5,26.4-21.9,52.4-32.6,78.7-16.4,39.9-48.9,56.9-89.1,62.9C830.6,966.3,822.9,966.2,817.8,966.6Z"/></svg>