<svg xmlns="http://www.w3.org/2000/svg" xmlns:xlink="http://www.w3.org/1999/xlink" width="16" height="16" viewBox="0 0 16 16">
  <defs>
    <clipPath id="clip-path">
      <rect id="Rectangle_17046" data-name="Rectangle 17046" width="16" height="16" transform="translate(1 40)" fill="#a7a7a7" stroke="#707070" stroke-width="1"/>
    </clipPath>
  </defs>
  <g id="Mask_Group_9" data-name="Mask Group 9" transform="translate(-1 -40)" clip-path="url(#clip-path)">
    <g id="_64px_agenda-bookmark" data-name="64px_agenda-bookmark" transform="translate(2.548 40)">
      <path id="Path_74" data-name="Path 74" d="M12.323.323H9.484V5.742a.258.258,0,0,1-.413.206L7.161,4.516,5.252,5.948a.258.258,0,0,1-.413-.206V.323H2.516a.258.258,0,0,0-.258.258V16.065a.258.258,0,0,0,.258.258h9.806Z" transform="translate(-2.258 -0.323)" fill="#a7a7a7"/>
      <path id="Path_75" data-name="Path 75" d="M16,.323h-.516v16H16a1.809,1.809,0,0,0,1.806-1.806V2.129A1.809,1.809,0,0,0,16,.323Z" transform="translate(-4.903 -0.323)" fill="#a7a7a7"/>
    </g>
  </g>
</svg>
