<svg xmlns="http://www.w3.org/2000/svg" xmlns:xlink="http://www.w3.org/1999/xlink" width="16" height="16" viewBox="0 0 16 16">
  <defs>
    <clipPath id="clip-path">
      <rect id="Rectangle_17049" data-name="Rectangle 17049" width="16" height="16" transform="translate(1 178)" fill="#a7a7a7" stroke="#707070" stroke-width="1"/>
    </clipPath>
  </defs>
  <g id="Mask_Group_11" data-name="Mask Group 11" transform="translate(-1 -178)" clip-path="url(#clip-path)">
    <g id="_64px_segmentation" data-name="64px_segmentation" transform="translate(1 180.667)">
      <path id="Path_82" data-name="Path 82" d="M19.733,5.067H17.6a.267.267,0,0,1-.267-.267V4.267A.267.267,0,0,1,17.6,4h2.133A.267.267,0,0,1,20,4.267V4.8A.267.267,0,0,1,19.733,5.067Z" transform="translate(-4 -4)" fill="#a7a7a7"/>
      <path id="Path_83" data-name="Path 83" d="M12.667,5.067H.933A.267.267,0,0,1,.667,4.8V4.267A.267.267,0,0,1,.933,4H12.667a.267.267,0,0,1,.267.267V4.8A.267.267,0,0,1,12.667,5.067Z" transform="translate(-0.667 -4)" fill="#a7a7a7"/>
      <path id="Path_84" data-name="Path 84" d="M3.067,11.067H.933A.267.267,0,0,1,.667,10.8v-.533A.267.267,0,0,1,.933,10H3.067a.267.267,0,0,1,.267.267V10.8A.267.267,0,0,1,3.067,11.067Z" transform="translate(-0.667 -5.2)" fill="#a7a7a7"/>
      <path id="Path_85" data-name="Path 85" d="M17.333,11.067H5.6a.267.267,0,0,1-.267-.267v-.533A.267.267,0,0,1,5.6,10H17.333a.267.267,0,0,1,.267.267V10.8A.267.267,0,0,1,17.333,11.067Z" transform="translate(-1.6 -5.2)" fill="#a7a7a7"/>
      <path id="Path_86" data-name="Path 86" d="M19.733,17.067H17.6a.267.267,0,0,1-.267-.267v-.533A.267.267,0,0,1,17.6,16h2.133a.267.267,0,0,1,.267.267V16.8A.267.267,0,0,1,19.733,17.067Z" transform="translate(-4 -6.4)" fill="#a7a7a7"/>
      <path id="Path_87" data-name="Path 87" d="M12.667,17.067H.933A.267.267,0,0,1,.667,16.8v-.533A.267.267,0,0,1,.933,16H12.667a.267.267,0,0,1,.267.267V16.8A.267.267,0,0,1,12.667,17.067Z" transform="translate(-0.667 -6.4)" fill="#a7a7a7"/>
    </g>
  </g>
</svg>
