<svg xmlns="http://www.w3.org/2000/svg" width="16" height="16" viewBox="0 0 16 16">
  <g id="skype" transform="translate(0 -32)">
    <g id="Group_18677" data-name="Group 18677" transform="translate(0 32)">
      <path id="Path_129" data-name="Path 129" d="M15.171,41.566A7.774,7.774,0,0,0,15.339,40a7.331,7.331,0,0,0-7.334-7.334,7.551,7.551,0,0,0-1.565.168,4,4,0,0,0-5.608,5.6A7.774,7.774,0,0,0,.664,40,7.331,7.331,0,0,0,8,47.336a7.551,7.551,0,0,0,1.565-.168A4,4,0,0,0,16,44a3.941,3.941,0,0,0-.829-2.433ZM8.22,44.835c-2.343,0-4.3-1.043-4.3-2.322A1,1,0,0,1,4.969,41.42c1.115,0,1.218,1.6,3.147,1.6.918,0,1.511-.407,1.511-.939,0-.668-.572-.772-1.5-1-2.233-.55-4.208-.786-4.208-3.115,0-2.115,2.093-2.9,3.9-2.9,1.968,0,3.958.782,3.958,1.979a1.076,1.076,0,0,1-1.082,1.136c-1.011,0-1.043-1.2-2.679-1.2-.918,0-1.5.25-1.5.8,0,.707.743.779,2.468,1.179,1.479.332,3.24.957,3.24,2.772,0,2.111-2.04,3.09-4,3.09Z" transform="translate(0 -32)"/>
    </g>
  </g>
</svg>
