<svg id="Layer_1" data-name="Layer 1" xmlns="http://www.w3.org/2000/svg" viewBox="0 0 1184.8 1184.8"><defs><style>.cls-1{fill:#1b95d1;}.cls-2{fill:#fefefe;}.cls-3{fill:#2d9ed5;}.cls-4{fill:#33a0d6;}.cls-5{fill:#2a9cd4;}.cls-6{fill:#89c8e7;}.cls-7{fill:#7dc3e5;}.cls-8{fill:#50aedc;}.cls-9{fill:#d7ecf7;}.cls-10{fill:#8dcae8;}.cls-11{fill:#6cbae1;}.cls-12{fill:#3aa4d7;}.cls-13{fill:#79c0e4;}.cls-14{fill:#62b6df;}.cls-15{fill:#49aada;}.cls-16{fill:#d8edf7;}.cls-17{fill:#007398;}</style></defs><title>Skype</title><path class="cls-1" d="M1193.2,578.7v39.2a112.2,112.2,0,0,0,0,34.7v16.1c-2.4,4.5-.5,9.4-1.1,14.1s-1.3,10.8,1.1,15.9v13.9c-2.3,3.7-.6,7.7-1.1,11.6s.1,5.6-.2,8.4c-4.2,4.4-7.7,1.2-10.9-1.3s-7.3-6.8-10.9-10.3q-138-138.2-276.2-276.3a210.9,210.9,0,0,1-16.3-17.8,83.5,83.5,0,0,0-26-22.4c-18.1-19.3-35.7-39-57.3-54.9-51.5-37.9-108.4-59.4-172.5-64.1-41.8-3-81.9,3.3-121.1,16.4-24.9,8.2-49.3,8.9-74.8,3.6-77.1-16.1-148.6,20.5-177,92.6-19.4,49.2-13,96.8,15.8,140.8a118.7,118.7,0,0,1,20,63.7c1.8,63,18.2,122.1,53.8,175,15.5,23,32.8,44.5,54.5,62.1,4.3,3.4,7.5,7.7,11.2,11.6a104.2,104.2,0,0,0,24.6,27.1,147.3,147.3,0,0,1,13.7,12.4q141.3,141,282.2,282.3c4.7,4.8,12.7,8.5,9.4,17.8-3,1.7-6.7-.5-9.5,1.9H692.3a23.7,23.7,0,0,0-16.2,0h-6.9c-4.7-2.5-9.7-.6-14.6-1.2H641.3c-7.6.7-15.4-1.4-22.9,1.2H586.1c-7.6-2.6-15.3-.5-22.9-1.2H549.7c-5.5.6-11.3-1.3-16.7,1.2h-6.9a23.7,23.7,0,0,0-16.2,0H477.6c-13.3-2.8-26.8-1.6-40.1-2-41.8-1.1-83.7-1.5-125.5-4.5-36-2.6-72.1-4.7-107.7-11.1C110.7,1158.3,36,1078.4,26.4,983.3c-5.8-56.9-11.8-113.8-13.1-171.1-.7-36.1-1.2-72.2-2.3-108.3C9.3,647,10,590,10.3,533.1s.8-111.4,3.6-167S19.4,255.4,29.5,201C46.7,108.5,126.2,35.7,220.2,26c57.3-5.9,114.5-12.1,172.2-13.1,28.8-.5,57.6-1.6,86.4-2.3,58.5-1.3,116.9-1.1,175.4-.9,61.1.2,122.2,1.1,183.2,3.7,54.5,2.4,109,6,162.8,15,91.5,15.3,168.2,96.2,178,191.9,5.7,56.6,11.1,113.1,11.8,170,.3,29.2,1.9,58.4,2.1,87.6.5,5.1-1.2,10.4,1.1,15.4v9.2c-2.4,4.6-.5,9.6-1.1,14.3v34.5C1192.8,560.4,1190.7,569.6,1193.2,578.7Z" transform="translate(-8.7 -8.2)"/><path class="cls-2" d="M1191.3,479.3c-3.4-86.8-9.4-173.5-18.6-260-10.2-96.5-92-177.8-188.5-188.1A3600.9,3600.9,0,0,0,523.3,11.6q-153.4,3.3-306.1,20C123.6,41.7,41.9,124.3,31.9,217.8a3602.5,3602.5,0,0,0-18,525.5c3.2,81.8,8.9,163.6,18.4,245,10.9,94.2,93.2,174.1,187.5,183.9q124.5,13,249.6,18.2c2.8.1,6.3-1.4,8.2,2.4q-229.7,0-459.3.2c-7.5,0-9.6-1.1-9.6-9.3Q9.2,601,8.7,18.3c0-8.4,1.7-10.1,10-10.1q582.2.5,1164.3,0c9,0,10.5,2.5,10.4,10.8q-.3,230.3-.2,460.4C1192.5,481,1191.9,481,1191.3,479.3Z" transform="translate(-8.7 -8.2)"/><path class="cls-2" d="M724.6,1192.8c2.1-4.3,6.3-1.3,9.2-2.8,2.1-3.3,5.3-4.5,8.9-4.4,12.3.2,24.5-2.2,36.7-2.6,52.6-1.8,105-5.9,157.4-11.1,30.2-3,60.8-3.7,89.6-14.5,80.5-30.2,128.1-87.8,140.8-172.9,6.4-42.9,8.4-86.4,11.9-129.6,3-36.4,3.6-72.9,6.7-109.2.3-4.6,0-9.4,4.7-12.3.3-3.1.5-6.1.8-9.2s1.2-1.7,1.9-.1q0,229.8.3,459.4c0,7.9-1.6,9.5-9.5,9.5Q954.4,1192.6,724.6,1192.8Z" transform="translate(-8.7 -8.2)"/><path class="cls-3" d="M1193.2,652.6a56.4,56.4,0,0,1,0-34.7Z" transform="translate(-8.7 -8.2)"/><path class="cls-4" d="M1193.2,578.7c-4.5-9-1.4-18.5-2.2-27.8.8-1.5,1.5-1.5,2.2.1Z" transform="translate(-8.7 -8.2)"/><path class="cls-5" d="M562.9,1190.5c7.8.8,15.8-2.1,23.2,2.3H563C561.4,1192,561.4,1191.3,562.9,1190.5Z" transform="translate(-8.7 -8.2)"/><path class="cls-5" d="M618.4,1192.8c7.4-4.4,15.4-1.5,23.1-2.3,1.6.8,1.5,1.5,0,2.3Z" transform="translate(-8.7 -8.2)"/><path class="cls-6" d="M1193.2,698.7c-4.4-4.9-1.5-10.6-1.9-16,.5-1.7,1.2-1.7,1.9-.1Z" transform="translate(-8.7 -8.2)"/><path class="cls-7" d="M509.9,1192.8c5.4-3.8,10.8-3.3,16.2,0Z" transform="translate(-8.7 -8.2)"/><path class="cls-8" d="M533,1192.8c4.9-4.1,10.6-1.7,16-2.2,1.7.7,1.7,1.4.1,2.2Z" transform="translate(-8.7 -8.2)"/><path class="cls-7" d="M676.1,1192.8c5.4-3.3,10.8-3.8,16.2,0Z" transform="translate(-8.7 -8.2)"/><path class="cls-9" d="M1191.3,479.3h1.9v13.9C1189.1,489.1,1191.3,484.1,1191.3,479.3Z" transform="translate(-8.7 -8.2)"/><path class="cls-10" d="M1191.3,516.3c.3-4.7-2.4-9.7,1.9-13.8v13.8C1192.5,518,1191.9,517.9,1191.3,516.3Z" transform="translate(-8.7 -8.2)"/><path class="cls-11" d="M1193.2,682.6h-1.9c-.2-4.8-1.6-9.7,1.9-14Z" transform="translate(-8.7 -8.2)"/><path class="cls-12" d="M549.1,1192.8a15.5,15.5,0,0,0-.1-2.2h13.9a17.7,17.7,0,0,1,.1,2.3Z" transform="translate(-8.7 -8.2)"/><path class="cls-12" d="M641.5,1192.8v-2.3h13.9c1.6.8,1.5,1.5-.1,2.2Z" transform="translate(-8.7 -8.2)"/><path class="cls-8" d="M655.3,1192.8a16.2,16.2,0,0,0,.1-2.2c4.7.3,9.7-1.5,13.8,2.2Z" transform="translate(-8.7 -8.2)"/><path class="cls-13" d="M1191.3,516.3h1.9v11.6c-.7,1.6-1.4,1.5-1.9-.1Z" transform="translate(-8.7 -8.2)"/><path class="cls-14" d="M1191.3,527.8h1.9v11.5c-.7,1.6-1.5,1.6-2.1-.1C1191.2,535.5,1191.2,531.6,1191.3,527.8Z" transform="translate(-8.7 -8.2)"/><path class="cls-15" d="M1191.1,539.3h2.1V551H1191C1191,547.1,1191.1,543.2,1191.1,539.3Z" transform="translate(-8.7 -8.2)"/><path class="cls-16" d="M1193.2,724.1h-1.9c0-4-2.2-8.3,1.9-11.6Z" transform="translate(-8.7 -8.2)"/><path class="cls-2" d="M401.3,855.8c-19.9-20.1-41.3-38.8-58.1-61.9-41-56.5-62.3-119.6-63.2-189.3-.4-24-7.6-44.8-20.8-64.7A157.1,157.1,0,0,1,427.8,300.6c21.9,5.3,43.3,5.8,64.6-1.9,132.7-48,276.2-3.4,358.7,98.4a38.7,38.7,0,0,0,4.1,4c38.8,37.1,56.9,84.6,68.3,135.6,4.6,20.8,6,41.9,6.5,62.9.6,23.4,8.3,43.3,20.6,62.4,38.1,59.4,35.6,133.4-8,188.6-28.8,36.4-66.7,57.9-114.2,61.6a186,186,0,0,1-55.8-4.4c-20.9-4.7-41.2-4.3-61.2,3.2-32,11.9-65.4,17.8-99.2,18.7-50.5,1.2-99.1-8.7-145.6-29.3C441.9,889.5,421.5,872.9,401.3,855.8Z" transform="translate(-8.7 -8.2)"/><path class="cls-17" d="M401.3,855.8c13.5,8.5,26.7,17.6,40.6,25.4,84,47,172,55.9,263.5,25.7,24.4-8.1,48.1-9.6,73.4-3.4,62.9,15.3,128.6-10.6,165-63.5s37.6-122.3,1.3-176.7c-13-19.4-20.3-39.9-20.6-63.5-.7-74-24.8-140-69.3-198.7,5.4,1.7,8.6,6.2,12.4,10L1180.4,724c3.3,3.2,6.7,6.3,10.1,9.4.1,38.5-2.8,76.8-5.5,115.1-2.8,39.9-7.9,79.6-10.1,119.4-5.9,105.6-84.4,191.1-189.4,204.2-77.8,9.8-156.1,14.1-234.4,18.1-5.7.3-11.5-.1-17.3-.2-3.1-3.3-6.1-6.8-9.4-10.1L412.1,867.7C408.3,863.9,404.9,859.7,401.3,855.8Z" transform="translate(-8.7 -8.2)"/><path class="cls-17" d="M606.8,821.9c-70.9,1.5-127.9-28-174.9-79-20.2-21.9-18.9-51.6,1.6-70.1s49.8-16.7,70.7,5.7c38.7,41.4,86.1,54,140.8,42.9a54.6,54.6,0,0,0,6.6-1.9c14.7-4.8,27.1-12.4,28.7-29.3s-10.7-24.5-23.4-30.8c-25.7-12.6-53.6-18.4-81.2-25.2s-54.5-15.4-79.8-29.1c-84.1-45.7-73.9-164.8-3.4-207.3,40.2-24.3,84.3-30.1,129.8-27.6,62,3.3,111.1,32.9,150.9,79,19.5,22.4,17.5,51.6-3.5,70s-49.8,14.6-70-6.6c-36.5-38.5-80.6-55.1-133.6-42.2a70.2,70.2,0,0,0-18,7.3c-20.5,11.9-20.4,34,.2,45.6,12.2,6.9,25.6,10.3,38.9,14C622,546.9,657.7,553,691,567.6c44.5,19.4,77.4,49.1,84.3,99.8,10.8,78.7-29.4,133.8-107.7,149A326.6,326.6,0,0,1,606.8,821.9Z" transform="translate(-8.7 -8.2)"/></svg>