<?xml version="1.0" encoding="utf-8"?>
<!-- Generator: Adobe Illustrator 22.0.0, SVG Export Plug-In . SVG Version: 6.00 Build 0)  -->
<svg version="1.1" id="Layer_1" xmlns="http://www.w3.org/2000/svg" xmlns:xlink="http://www.w3.org/1999/xlink" x="0px" y="0px"
	 viewBox="0 0 32 32" style="enable-background:new 0 0 32 32;" xml:space="preserve">
<style type="text/css">
	.st0{fill:#FFFFFF;}
	.st1{fill:none;stroke:#CFD4D8;}
	.st2{fill:#FFE255;}
</style>
<g id="Group_18722" transform="translate(-1117 -21.275)">
	<g id="Rectangle_17052" transform="translate(1117 21.275)">
		<path class="st0" d="M4,0h24c2.2,0,4,1.8,4,4v24c0,2.2-1.8,4-4,4H4c-2.2,0-4-1.8-4-4V4C0,1.8,1.8,0,4,0z"/>
		<path class="st1" d="M4,0.5h24c1.9,0,3.5,1.6,3.5,3.5v24c0,1.9-1.6,3.5-3.5,3.5H4c-1.9,0-3.5-1.6-3.5-3.5V4C0.5,2.1,2.1,0.5,4,0.5
			z"/>
	</g>
	<g id="star" transform="translate(1104.5 30.288)">
		<g id="Group_18723" transform="translate(20.5 -0.013)">
			<path id="Path_138" class="st2" d="M15.2,5.1l-4.4-0.6l-2-4C8.6,0.1,8-0.1,7.6,0.1C7.4,0.2,7.2,0.3,7.1,0.5l-2,4L0.8,5.1
				C0.3,5.2-0.1,5.7,0,6.2c0,0.2,0.1,0.4,0.3,0.5l3.2,3.1l-0.8,4.4c-0.1,0.5,0.3,1,0.8,1.1c0.2,0,0.4,0,0.6-0.1L8,13.1l3.9,2.1
				c0.5,0.2,1,0.1,1.3-0.4c0.1-0.2,0.1-0.4,0.1-0.6l-0.8-4.4l3.2-3.1c0.4-0.4,0.4-1,0-1.4C15.6,5.3,15.4,5.2,15.2,5.1z"/>
		</g>
	</g>
</g>
</svg>
