<svg width="25" height="24" viewBox="0 0 25 24" fill="none" xmlns="http://www.w3.org/2000/svg">
<path fill-rule="evenodd" clip-rule="evenodd" d="M6.603 15.8735L9.58 15.6025L15.18 9.99746L12.484 7.30046L6.867 12.9175L6.603 15.8735ZM13.824 5.96146L16.519 8.65646L18.466 6.70646L15.772 4.01246L13.824 5.96146ZM4.793 17.6855C4.583 17.4755 4.478 17.1835 4.504 16.8875L4.883 12.7175C4.925 12.2605 5.127 11.8295 5.453 11.5035L14.449 2.50746C15.151 1.80246 16.424 1.83746 17.165 2.57646L19.903 5.31446L19.904 5.31546C20.669 6.08146 20.7 7.29946 19.972 8.02946L10.975 17.0265C10.65 17.3515 10.219 17.5535 9.761 17.5955L5.591 17.9745C5.561 17.9765 5.531 17.9775 5.5 17.9775C5.237 17.9775 4.982 17.8735 4.793 17.6855ZM20.5 20.9775C20.5 21.5275 20.05 21.9775 19.5 21.9775H5.5C4.951 21.9775 4.5 21.5275 4.5 20.9775C4.5 20.4285 4.951 19.9775 5.5 19.9775H19.5C20.05 19.9775 20.5 20.4285 20.5 20.9775Z" fill="#4D4D4D"/>
</svg>
