<svg width="157" height="23" viewBox="0 0 157 23" fill="none" xmlns="http://www.w3.org/2000/svg">
<path d="M16.05 0.999999C16.59 0.999999 17.03 1.16 17.37 1.48C17.71 1.8 17.88 2.22 17.88 2.74C17.88 3.26 17.71 3.68 17.37 4C17.03 4.3 16.59 4.45 16.05 4.45H11.34V20.17C11.34 20.69 11.15 21.13 10.77 21.49C10.39 21.83 9.92 22 9.36 22C8.8 22 8.34 21.83 7.98 21.49C7.62 21.13 7.44 20.69 7.44 20.17V4.45H2.73C2.19 4.45 1.75 4.29 1.41 3.97C1.07 3.65 0.9 3.23 0.9 2.71C0.9 2.21 1.07 1.8 1.41 1.48C1.77 1.16 2.21 0.999999 2.73 0.999999H16.05ZM37.4993 19.06C37.7593 19.22 37.9593 19.43 38.0993 19.69C38.2593 19.95 38.3393 20.22 38.3393 20.5C38.3393 20.86 38.2193 21.19 37.9793 21.49C37.6793 21.85 37.2193 22.03 36.5993 22.03C36.1193 22.03 35.6793 21.92 35.2793 21.7C33.8393 20.88 33.1193 19.21 33.1193 16.69C33.1193 15.97 32.8793 15.4 32.3993 14.98C31.9393 14.56 31.2693 14.35 30.3893 14.35H24.7793V20.17C24.7793 20.71 24.6293 21.15 24.3293 21.49C24.0493 21.83 23.6693 22 23.1893 22C22.6093 22 22.0993 21.83 21.6593 21.49C21.2393 21.13 21.0293 20.69 21.0293 20.17V2.83C21.0293 2.31 21.1993 1.88 21.5393 1.54C21.8993 1.18 22.3393 0.999999 22.8593 0.999999H31.4993C32.5393 0.999999 33.5193 1.28 34.4393 1.84C35.3593 2.4 36.0893 3.17 36.6293 4.15C37.1893 5.13 37.4693 6.23 37.4693 7.45C37.4693 8.45 37.1993 9.43 36.6593 10.39C36.1193 11.33 35.4193 12.08 34.5593 12.64C35.8193 13.52 36.5093 14.7 36.6293 16.18C36.6893 16.5 36.7193 16.81 36.7193 17.11C36.7993 17.73 36.8793 18.18 36.9593 18.46C37.0393 18.72 37.2193 18.92 37.4993 19.06ZM31.3493 11.26C31.7093 11.26 32.0593 11.09 32.3993 10.75C32.7393 10.41 33.0193 9.96 33.2393 9.4C33.4593 8.82 33.5693 8.2 33.5693 7.54C33.5693 6.98 33.4593 6.47 33.2393 6.01C33.0193 5.53 32.7393 5.15 32.3993 4.87C32.0593 4.59 31.7093 4.45 31.3493 4.45H24.7793V11.26H31.3493ZM56.3885 0.969999C56.9085 0.969999 57.3285 1.14 57.6485 1.48C57.9685 1.82 58.1285 2.26 58.1285 2.8V13.66C58.1285 15.32 57.7785 16.79 57.0785 18.07C56.3785 19.35 55.3985 20.35 54.1385 21.07C52.8785 21.79 51.4385 22.15 49.8185 22.15C48.1985 22.15 46.7485 21.79 45.4685 21.07C44.2085 20.35 43.2285 19.35 42.5285 18.07C41.8285 16.79 41.4785 15.32 41.4785 13.66V2.8C41.4785 2.28 41.6585 1.85 42.0185 1.51C42.3785 1.15 42.8385 0.969999 43.3985 0.969999C43.8785 0.969999 44.2985 1.15 44.6585 1.51C45.0185 1.85 45.1985 2.28 45.1985 2.8V13.66C45.1985 14.62 45.4085 15.48 45.8285 16.24C46.2485 16.98 46.8085 17.55 47.5085 17.95C48.2285 18.35 48.9985 18.55 49.8185 18.55C50.6785 18.55 51.4785 18.35 52.2185 17.95C52.9785 17.55 53.5785 16.98 54.0185 16.24C54.4785 15.48 54.7085 14.62 54.7085 13.66V2.8C54.7085 2.26 54.8585 1.82 55.1585 1.48C55.4585 1.14 55.8685 0.969999 56.3885 0.969999ZM69.0879 22.3C67.6479 22.3 66.3679 22.12 65.2479 21.76C64.1279 21.4 63.0779 20.79 62.0979 19.93C61.5579 19.45 61.2879 18.92 61.2879 18.34C61.2879 17.88 61.4579 17.48 61.7979 17.14C62.1379 16.78 62.5479 16.6 63.0279 16.6C63.4079 16.6 63.7479 16.72 64.0479 16.96C64.8479 17.62 65.6279 18.1 66.3879 18.4C67.1479 18.7 68.0479 18.85 69.0879 18.85C70.2079 18.85 71.1679 18.6 71.9679 18.1C72.7879 17.6 73.1979 16.98 73.1979 16.24C73.1979 15.34 72.7979 14.64 71.9979 14.14C71.1979 13.62 69.9279 13.23 68.1879 12.97C63.8079 12.33 61.6179 10.29 61.6179 6.85C61.6179 5.59 61.9479 4.5 62.6079 3.58C63.2679 2.64 64.1679 1.93 65.3079 1.45C66.4479 0.949999 67.7179 0.699999 69.1179 0.699999C70.3779 0.699999 71.5579 0.889999 72.6579 1.27C73.7779 1.65 74.7079 2.15 75.4479 2.77C76.0279 3.23 76.3179 3.76 76.3179 4.36C76.3179 4.82 76.1479 5.23 75.8079 5.59C75.4679 5.93 75.0679 6.1 74.6079 6.1C74.3079 6.1 74.0379 6.01 73.7979 5.83C73.2779 5.41 72.5479 5.03 71.6079 4.69C70.6879 4.33 69.8579 4.15 69.1179 4.15C67.8579 4.15 66.8779 4.39 66.1779 4.87C65.4979 5.33 65.1579 5.94 65.1579 6.7C65.1579 7.56 65.5079 8.21 66.2079 8.65C66.9279 9.09 68.0479 9.45 69.5679 9.73C71.2879 10.03 72.6579 10.42 73.6779 10.9C74.7179 11.36 75.4979 12 76.0179 12.82C76.5379 13.62 76.7979 14.69 76.7979 16.03C76.7979 17.29 76.4379 18.4 75.7179 19.36C75.0179 20.3 74.0779 21.03 72.8979 21.55C71.7179 22.05 70.4479 22.3 69.0879 22.3ZM94.0383 0.999999C94.5783 0.999999 95.0183 1.16 95.3583 1.48C95.6983 1.8 95.8683 2.22 95.8683 2.74C95.8683 3.26 95.6983 3.68 95.3583 4C95.0183 4.3 94.5783 4.45 94.0383 4.45H89.3283V20.17C89.3283 20.69 89.1383 21.13 88.7583 21.49C88.3783 21.83 87.9083 22 87.3483 22C86.7883 22 86.3283 21.83 85.9683 21.49C85.6083 21.13 85.4283 20.69 85.4283 20.17V4.45H80.7183C80.1783 4.45 79.7383 4.29 79.3983 3.97C79.0583 3.65 78.8883 3.23 78.8883 2.71C78.8883 2.21 79.0583 1.8 79.3983 1.48C79.7583 1.16 80.1983 0.999999 80.7183 0.999999H94.0383Z" fill="#7030A0"/>
<path d="M115.488 19.66C115.588 19.92 115.638 20.16 115.638 20.38C115.638 20.9 115.468 21.33 115.128 21.67C114.788 21.99 114.398 22.15 113.958 22.15C113.598 22.15 113.268 22.04 112.968 21.82C112.688 21.6 112.468 21.3 112.308 20.92L110.748 17.29H101.808L100.248 20.95C100.108 21.33 99.8876 21.63 99.5876 21.85C99.3076 22.05 98.9976 22.15 98.6576 22.15C98.1376 22.15 97.7376 22.01 97.4576 21.73C97.1976 21.45 97.0676 21.07 97.0676 20.59C97.0676 20.41 97.0976 20.22 97.1576 20.02L104.628 2.08C104.788 1.68 105.028 1.37 105.348 1.15C105.668 0.929999 106.028 0.839999 106.428 0.879998C106.788 0.879998 107.118 0.989999 107.418 1.21C107.738 1.41 107.968 1.7 108.108 2.08L115.488 19.66ZM103.278 13.84H109.278L106.248 6.82L103.278 13.84ZM134.108 0.999999C134.588 0.999999 134.978 1.16 135.278 1.48C135.578 1.8 135.728 2.2 135.728 2.68V20.17C135.728 20.69 135.548 21.13 135.188 21.49C134.848 21.83 134.418 22 133.898 22C133.618 22 133.338 21.96 133.058 21.88C132.798 21.78 132.608 21.65 132.488 21.49L121.478 7.51V20.32C121.478 20.8 121.318 21.2 120.998 21.52C120.698 21.84 120.298 22 119.798 22C119.318 22 118.928 21.84 118.628 21.52C118.328 21.2 118.178 20.8 118.178 20.32V2.83C118.178 2.31 118.348 1.88 118.688 1.54C119.048 1.18 119.488 0.999999 120.008 0.999999C120.308 0.999999 120.598 1.06 120.878 1.18C121.178 1.3 121.398 1.46 121.538 1.66L132.458 15.58V2.68C132.458 2.2 132.608 1.8 132.908 1.48C133.228 1.16 133.628 0.999999 134.108 0.999999ZM156.708 19.66C156.808 19.92 156.858 20.16 156.858 20.38C156.858 20.9 156.688 21.33 156.348 21.67C156.008 21.99 155.618 22.15 155.178 22.15C154.818 22.15 154.488 22.04 154.188 21.82C153.908 21.6 153.688 21.3 153.528 20.92L151.968 17.29H143.028L141.468 20.95C141.328 21.33 141.108 21.63 140.808 21.85C140.528 22.05 140.218 22.15 139.878 22.15C139.358 22.15 138.958 22.01 138.678 21.73C138.418 21.45 138.288 21.07 138.288 20.59C138.288 20.41 138.318 20.22 138.378 20.02L145.848 2.08C146.008 1.68 146.248 1.37 146.568 1.15C146.888 0.929999 147.248 0.839999 147.648 0.879998C148.008 0.879998 148.338 0.989999 148.638 1.21C148.958 1.41 149.188 1.7 149.328 2.08L156.708 19.66ZM144.498 13.84H150.498L147.468 6.82L144.498 13.84Z" fill="#FA482B"/>
</svg>
