<svg id="Layer_1" data-name="Layer 1" xmlns="http://www.w3.org/2000/svg" viewBox="0 0 1194.8 1194.8"><defs><style>.cls-1{fill:#6f3fa9;}.cls-2{fill:#532e7f;}.cls-3{fill:#fefefe;}.cls-4{fill:#7b50b1;}.cls-5{fill:#7d52b2;}.cls-6{fill:#794caf;}.cls-7{fill:#855db6;}.cls-8{fill:#7548ad;}.cls-9{fill:#664291;}.cls-10{fill:#ad92ce;}.cls-11{fill:#a385c8;}.cls-12{fill:#9a78c3;}.cls-13{fill:#8d68bb;}.cls-14{fill:#7959a0;}.cls-15{fill:#d2c3e4;}.cls-16{fill:#bfabd9;}.cls-17{fill:#b299d1;}.cls-18{fill:#b9a8ce;}.cls-19{fill:#cebde2;}.cls-20{fill:#543081;}.cls-21{fill:#fefdfe;}.cls-22{fill:#fdfdfd;}</style></defs><title>viber</title><path class="cls-1" d="M583,4.3h37.3c7.6,2.6,15.4.6,23.1,1.2s14.2,1.3,21.1-1.2h4.7a31.1,31.1,0,0,0,18.6,0h16.3a8.7,8.7,0,0,0,9.3,0H725c14.2,2.9,28.5,1.7,42.7,2,43.4,1,86.8,1.3,130,4.7,39,3,78.2,4.6,116.5,13.4,87.1,20,158.7,98.6,168.3,190.8,5.9,57.5,11,114.9,12,172.6.5,29.7.2,59.5,3.2,89.2v16.2c-1.8,1.8-1,4-1.2,6v8c.4,3.1-1.1,6.4,1.2,9.3v16.3c-2.5,5.6-.6,11.5-1.2,17.2.6,9.8-1.4,19.7,1.2,29.4V612c-2.6,5.6-.5,11.5-1.3,17.2-3.6,5.4-7.3,2.2-10.6-.1s-5.7-5.2-8.5-7.9L953.9,397.8c-8.7-8.8-17.7-17.3-25.1-27.3-5.9-8-14.4-12.8-22.4-18.1-14.2-14.9-27.5-30.5-43.2-43.8-36.9-31.3-79.7-46.3-127.1-52.1-53.5-6.6-107.1-11.1-161-9.2-50.8,1.8-101.4,6.1-150.9,17.6s-85.1,41.1-117.8,77c-34.7,38-47.3,84.4-53.1,133.7-3.9,32.7-7.8,65.5-6.9,98.4,1.3,44.5,5,89,14.7,132.6,11.4,51.4,41.3,91,81.7,123.5,9.4,7.5,19.3,14.2,28.9,21.4,5.3,9.1,12.3,16.3,20.8,22.7,10.6,8.1,18.7,19.1,27.1,29.6,2.2,12.7,1.2,25.5,1.1,38.2,0,15,3,28.4,16.4,37.5,1.9,8.9,10.4,11.9,15.9,17.6,13.8,14.1,28,27.9,41.9,41.9l138,138c3.5,3.5,7.6,6.8,10.1,11.2s4.7,8-2.6,9.3c-40.4,0-80.7.8-121-.2-61.6-1.4-123.2-.8-184.7-5.2-45.9-3.4-92.2-5.2-137.4-14.1-92.9-18.1-166.5-97.2-176.4-192.4-6-57.7-12.2-115.5-13.1-173.7-.5-29.4-1.6-58.8-2.3-88.2-1.4-62-1.2-124.1-.9-186.1.3-58.1,1.1-116.2,3.7-174.2,2.5-55.3,5.7-110.8,15.4-165.3,16.7-94.7,98-168.6,192.8-178.6,57.4-6,114.8-11,172.6-12,29.7-.5,59.5-.2,89.2-3.2h27.9c6,2.5,12.3.6,18.4,1.2s11.2,1.3,16.5-1.2h4.7A116.1,116.1,0,0,0,583,4.3Z" transform="translate(-3.1 -4.1)"/><path class="cls-2" d="M910.6,349.1c5.3,2.1,8.6,6.5,12.4,10.3l261.2,261.1c3.5,3.5,7.4,6.8,11.1,10.1,1.4.1,1.5,1.6,2.4,2.3v28c-2.5,6.6-.6,13.6-1.2,20.3.6,4.9-1.3,9.9,1.2,14.6v14a8.7,8.7,0,0,0,0,9.3v11.6c-2.9,15.7-1.6,31.6-2,47.4-1.1,40.2-1.6,80.5-4.6,120.6-2.6,35.9-4.6,72-11.4,107.4-17.4,90-96.6,163.9-187.6,174.7-56.9,6.8-113.9,12.2-171.3,13.5-55.4,1.2-110.7,3.1-166.1,3.1-3.7,0-7.8,1.7-11-1.6L515.9,1067.4l-73-73.1c-3.3-3.3-6.9-6.3-8.7-10.7,2.7-3.4,6.4-3.9,10.5-3.6a31.1,31.1,0,0,0,26.6-11.9c17.2-20.6,37.4-38.3,55.9-57.6,2.4-2.6,5.4-4.7,7.1-7.7,8.1-14.2,20.6-15.6,35.1-13.7,21.6,2.7,43.3,1.7,65,.2,25.1-1.8,50.3-2.2,75.3-5.7,34.8-5,70.6-6.5,102.7-23.2,67.2-34.8,115.8-85,131-162,6.5-32.7,9.7-65.8,11.8-99.1,3.8-58.5-2.7-116-13.9-173.2-4.5-22.5-14.6-42.3-26.9-61.4C911.5,360.2,906.2,355.7,910.6,349.1Z" transform="translate(-3.1 -4.1)"/><path class="cls-3" d="M643.7,1195.8c42.7,1.7,85.3-1.2,127.8-3.2s84.4-4.4,126.5-8.2,85.2-4.3,126.5-16.2c80.7-23.2,142.9-97.1,152.3-180.1s15.5-166.7,18.6-250.4c0-2.4-1.3-5.6,2.3-7q0,229.3.2,458.7c0,7.9-1.6,9.5-9.6,9.5q-587.8-.5-1175.7,0c-7.9,0-9.5-1.6-9.5-9.5q.4-587.9,0-1175.7c0-8,1.6-9.6,9.5-9.6q232.8.5,465.7.2c-1.2,3-3.8,2.3-6,2.3-79.8,2.8-159.4,9.7-239,16.2C126.6,31.6,45.3,101.7,28,205.9,20.9,249,18.6,293,15.3,336.6Q4.2,485.9,5.8,635.4a3517,3517,0,0,0,21,354c10.3,93.7,92.3,175.5,186.1,185.8a3570.4,3570.4,0,0,0,423.8,21C639,1196.2,641.4,1196,643.7,1195.8Z" transform="translate(-3.1 -4.1)"/><path class="cls-3" d="M1197.7,477c-3.8-1.9-2.2-5.5-2.4-8.3q-5-127.8-18.4-255.1C1166.7,117.4,1083.7,35.1,987.2,25Q860,11.7,732.1,6.6c-2.5,0-5.6,1.2-7.1-2.3q231.8,0,463.3-.2c8,0,9.6,1.6,9.6,9.6Q1197.4,245.3,1197.7,477Z" transform="translate(-3.1 -4.1)"/><path class="cls-4" d="M583,4.3a62.9,62.9,0,0,1-37.2,0Z" transform="translate(-3.1 -4.1)"/><path class="cls-5" d="M1197.7,579.4c-4.5-9.9-1.6-20.3-2.2-30.4.8-1.5,1.5-1.5,2.2.1Z" transform="translate(-3.1 -4.1)"/><path class="cls-6" d="M643.7,6.6c-7.8-.7-16,2-23.4-2.3h23.3C645.1,5,645.2,5.8,643.7,6.6Z" transform="translate(-3.1 -4.1)"/><path class="cls-7" d="M643.7,6.6a17.7,17.7,0,0,1-.1-2.3h20.9C657.9,8.7,650.6,5.9,643.7,6.6Z" transform="translate(-3.1 -4.1)"/><path class="cls-8" d="M1197.7,632.9l-2.4-2.3c.6-6.2-1.5-12.8,2.4-18.6Z" transform="translate(-3.1 -4.1)"/><path class="cls-9" d="M1195.5,682c.3-7.1-1.9-14.4,2.2-21.1v20.9C1197,683.5,1196.3,683.5,1195.5,682Z" transform="translate(-3.1 -4.1)"/><path class="cls-10" d="M524.7,6.3c-6.2-.5-12.8,2.7-18.5-2h18.6C526.4,5.1,526.4,5.8,524.7,6.3Z" transform="translate(-3.1 -4.1)"/><path class="cls-11" d="M687.8,4.3c-6.2,3.8-12.4,3.2-18.6,0Z" transform="translate(-3.1 -4.1)"/><path class="cls-12" d="M524.7,6.3c0-.6.1-1.3.1-2h16.3C536,8,530.3,6.4,524.7,6.3Z" transform="translate(-3.1 -4.1)"/><path class="cls-13" d="M1197.7,549.1h-2.2c.4-5.4-1.8-11.2,2.2-16.2Z" transform="translate(-3.1 -4.1)"/><path class="cls-14" d="M1195.5,682l2.2-.2v14C1193.9,691.7,1195.8,686.6,1195.5,682Z" transform="translate(-3.1 -4.1)"/><path class="cls-15" d="M713.4,4.3c-3.1,3.8-6.2,3.3-9.3,0Z" transform="translate(-3.1 -4.1)"/><path class="cls-16" d="M1195.7,507.1v-9.3c.7-1.6,1.3-1.6,2,.1v9.3C1196.9,508.9,1196.3,508.8,1195.7,507.1Z" transform="translate(-3.1 -4.1)"/><path class="cls-17" d="M1195.7,507.1h2v9.3C1194.5,513.9,1195.5,510.4,1195.7,507.1Z" transform="translate(-3.1 -4.1)"/><path class="cls-18" d="M1197.7,719.1c-3.9-3.1-3.2-6.2,0-9.3Z" transform="translate(-3.1 -4.1)"/><path class="cls-19" d="M1197.7,497.9h-2c-.3-1.9-.4-3.8,2-4.6Z" transform="translate(-3.1 -4.1)"/><path class="cls-3" d="M910.6,349.1c39,48.9,44.1,108,49.2,166.7,5.6,65.7.6,130.9-13.2,195.5C937,756,910.9,790.5,879,821.5c-41.9,40.7-92.8,59.6-150.2,65.6S614.5,897.8,557,894c-5.8-.4-9.3,2-12.9,5.8-23,24.2-46.5,48-69.2,72.3-11.6,12.4-24.5,17.3-40.7,11.5-13.8-8-18.8-20.2-18.4-35.7s-.3-29.9-.4-44.9c-6.9-14.3-15.7-23.9-30.1-34.2-5.6-4.1-11.6-7.7-16.4-12.9-31.7-20.8-59.1-45.8-81.8-76.5C261.7,744.8,253.6,705,248,664a687.5,687.5,0,0,1,8.7-239.3c7.7-35.7,26.4-65.2,50.4-91.6,31.8-35.1,68.8-63.8,115.9-73.8,75-16,151.2-20.5,227.9-16.4a915,915,0,0,1,121.2,14.4c48.2,9.1,85.8,36.1,119.2,70.2C898,334.4,904.2,341.9,910.6,349.1Z" transform="translate(-3.1 -4.1)"/><path class="cls-20" d="M368.9,855.9c13.4,6.6,26.5,14,41,18.2,4.4,1.3,6.3,3.5,6,8.2-.4,6.9-.4,13.8-.5,20.7C399.1,888.1,382.9,873.1,368.9,855.9Z" transform="translate(-3.1 -4.1)"/><path class="cls-2" d="M442.6,885.1c0-19.8-.1-39.6,0-59.3.1-5.6-1.1-9-7.2-11.4C368,788.2,324.2,742.5,313.5,668.3c-10.9-76-10.5-151.5,5.4-226.7,8.6-40.3,35.7-67.7,66-92.9,26.8-22.3,58.9-29.5,92.3-34.1,93.4-12.7,186.2-10.6,279.2,4.8,50.7,8.3,121.8,74.7,130.6,131.7,12.5,80.7,13.9,160.4-1.7,240.5-7.6,38.8-32.1,66.2-60.5,91.2s-59.8,34.3-95.2,38.8c-47.8,6-95.7,10.3-143.9,9-7.3-.2-12.1,2.2-17.1,7.4-33.9,35.2-68.1,70.1-102.2,105.1-1.9,1.9-3.7,4-5.7,5.8-3.9,3.5-6.8,9.7-13.3,7.4s-4.7-9.1-4.7-14.2C442.5,923.1,442.6,904.1,442.6,885.1Z" transform="translate(-3.1 -4.1)"/><path class="cls-3" d="M413.8,470.6a48.6,48.6,0,0,1,7.2-24.4c11-18.2,26.8-31,46-39.6,10.4-4.6,19.9-2.2,27.4,6.2,17.9,20,33.8,41.5,46.6,65.1,7.9,14.3,5.5,28.6-7.7,38.3-25.8,19-24.8,26.2-11.5,55,18.7,40.5,48.3,69.6,89.7,86.7,19.5,8,28.3,5.8,41.3-10.8,16.1-20.8,28.4-22.9,50.5-8.3,18.4,12.1,36.6,24.7,53.6,38.9,12.7,10.6,14.8,20.1,7.5,34.9a102.5,102.5,0,0,1-26.5,33.5c-17.2,14.4-34.6,17.5-56.7,8.7C551.6,703.5,463.8,612.5,416.7,481.6,415.3,477.6,414.5,473.4,413.8,470.6Z" transform="translate(-3.1 -4.1)"/><path class="cls-3" d="M604.5,383.8c91.3,1.8,166.5,73.3,174,163.1.8,8.9,1.6,17.7,2.3,26.6.6,7.1-1.6,12.6-9.5,13.1s-10.1-5.1-10.8-11.2c-1.6-13.4-1.6-27.1-3.9-40.4-13.1-73.8-70.9-124.6-147.2-130-4.7-.4-9.3-.9-13.8-1.6s-9.7-4-9.1-10.1,4.6-9.5,11.1-9.5Z" transform="translate(-3.1 -4.1)"/><path class="cls-21" d="M734.2,549.1c0,4.2.2,6.5-.1,8.8-.8,6-3.6,10.3-10.4,10.2s-9-4.1-9.6-9.6c-.9-7.3-.5-14.8-1.7-22-8.1-47.7-42.3-79.5-91.1-85.2-8.4-.9-20.5.5-18.7-12.8s13.2-8.4,21-7.4C688.7,439.2,732.6,487,734.2,549.1Z" transform="translate(-3.1 -4.1)"/><path class="cls-22" d="M688,540c.4,5.5-.1,11.7-7.7,12.6s-11-3.8-12.2-10.9-1.9-13.1-4.4-19.1C658.5,510,649,502.1,635.2,500l-10.3-1.6c-6.3-1.1-10-4.8-9.1-11.2s5.7-8.5,11.9-8.5C661.3,478.5,687,504.4,688,540Z" transform="translate(-3.1 -4.1)"/></svg>