<svg id="Layer_1" data-name="Layer 1" xmlns="http://www.w3.org/2000/svg" viewBox="0 0 1187.3 1187.3"><defs><style>.cls-1{fill:#2dc000;}.cls-2{fill:#fefefe;}.cls-3{fill:#3fc516;}.cls-4{fill:#3fc616;}.cls-5{fill:#42c619;}.cls-6{fill:#3bc411;}.cls-7{fill:#39c40e;}.cls-8{fill:#4eca28;}.cls-9{fill:#37c30d;}.cls-10{fill:#45c71d;}.cls-11{fill:#7ad75d;}.cls-12{fill:#c9ecbe;}.cls-13{fill:#43c71b;}.cls-14{fill:#87db6e;}.cls-15{fill:#5ecf3b;}.cls-16{fill:#78d75c;}.cls-17{fill:#6dd34e;}.cls-18{fill:#88db6e;}.cls-19{fill:#4ac923;}.cls-20{fill:#49c823;}.cls-21{fill:#58cd34;}.cls-22{fill:#64d042;}.cls-23{fill:#bfebb2;}.cls-24{fill:#8fdd78;}.cls-25{fill:#82d967;}.cls-26{fill:#bdebaf;}.cls-27{fill:#6ed44f;}.cls-28{fill:#80d964;}.cls-29{fill:#a3e38f;}.cls-30{fill:#bceaae;}.cls-31{fill:#a4e390;}.cls-32{fill:#a2e38e;}.cls-33{fill:#8fdd77;}.cls-34{fill:#73d555;}.cls-35{fill:#c6edba;}.cls-36{fill:#b7e9a8;}.cls-37{fill:#b5e9a6;}.cls-38{fill:#239800;}.cls-39{fill:#239901;}.cls-40{fill:#239900;}</style></defs><title>wechat</title><path class="cls-1" d="M1194.8,712.6v13.9c-2.3,15.2-1.9,30.6-2.1,45.8-.3,22.6-2.1,45.3-1.4,67.9.1,2.7,0,5.5-1.6,7.8-3.9,4-6.2.9-8-2.1-4.9-8.1-11.9-14.1-18.4-20.7L969.5,631.5c-7.6-7.6-13.7-16.8-22.9-22.7-3.1-2.4-5.3-5.6-7.4-8.8-20.2-30.8-47.7-53-80.2-69.6-4.1-2.1-8.4-3.9-11.3-7.8-2.8-8.2-10.6-11.8-16.2-17.5-29.6-30.7-60.9-59.6-89.7-91.2-4.9-5.3-10-10.6-16.7-14-19-19.7-37.6-39.8-60.9-54.8-48-31-100-47-157.3-47.6-74.2-.7-140.1,21.9-196.1,70.2-48.4,41.7-77.4,94.2-75.4,159.9,1.5,51.8,22.2,96.4,56.9,134.6a266,266,0,0,0,36.3,32.4c12,9.1,12.9,12.5,8.5,26.7-5.7,18-11.9,35.9-17.9,53.8-.9,2.6-2,5.1-1.4,7.9,2.9,7,8.9,11.5,14,16.6q187.3,187.5,374.7,375.1c5,4.9,13.5,8.7,10.5,18.5-3.7,1.3-7.8-.9-11.3,1.6h-14a23.7,23.7,0,0,0-16.2,0H654.7c-4.7-2.5-9.8-.6-14.7-1.2-7.4.7-15.1-1.4-22.4,1.2H585.1c-7.5-2.6-15.3-.5-23-1.2H548.6c-5.6.6-11.3-1.3-16.8,1.2h-7a23.7,23.7,0,0,0-16.2,0H494.7a2.9,2.9,0,0,0-4.6,0H476.2c-12.9-2.9-26.1-1.6-39-1.9-32.8-.8-65.6-.9-98.3-3.1-48.3-3.2-97.4-3.5-144.5-15.1C100.2,1151.4,43.6,1089.9,25,994.8c-5-26-5.6-52.8-8.2-79.3-6.1-61.8-6-123.8-7.8-185.8a6.2,6.2,0,0,0-1.1-3.2V712.6a8.7,8.7,0,0,0,0-9.3V687.1c2.4-4.4.6-9.1,1.2-13.6s1.2-8.1-1.2-11.9v-6.9c2.5-5.4.6-11.1,1.2-16.6s1.2-13.8-1.2-20.5V585.1c2.5-6.8.5-13.8,1.2-20.7s1.3-12.6-1.2-18.7V522.5a18.6,18.6,0,0,0,0-13.9V476.2c2.9-12.9,1.6-26.1,1.9-39,.8-32.8.8-65.6,3.1-98.3,3.4-49.1,3.5-98.9,15.7-146.7,23.8-93.3,85.2-149,179.3-167.1,34.3-6.6,69.6-7.7,104.6-10.4C366.7,10.5,421,10.4,475.3,9a6.2,6.2,0,0,0,3.2-1.1h16.2c1.8,1.7,4,1,6.1,1.2h23.1c2.6-.4,5.5.9,7.9-1.2h13.9a121.5,121.5,0,0,0,37.1,0h37.1c7.5,2.5,15.3.5,23,1.2s14.1,1.3,21-1.2h4.7a30.7,30.7,0,0,0,18.5,0h16.2a8.7,8.7,0,0,0,9.3,0h9.3c14.4,2.9,29.1,1.6,43.6,1.9,32.8.8,65.6.7,98.2,3.1,51.8,3.7,104.6,3.1,154.7,17.6,85.1,24.5,137.6,82.1,157.5,168.3,6.6,28.9,7,58.8,9.9,88.3,6.3,62.6,6.2,125.4,7.8,188.2a7.3,7.3,0,0,0,1.2,3.2v16.2c-1.8,1.8-1,4.1-1.2,6.2v25.5c.5,3.4-1.1,6.9,1.2,10v13.9a80.7,80.7,0,0,0,0,30.2v41.7c-2.4,9.7-.6,19.6-1.2,29.4v11.5c.6,4.9-1.3,10,1.2,14.7v16.3c-2.2,2.8-.7,6.2-1.2,9.2S1192.6,709.7,1194.8,712.6Z" transform="translate(-7.7 -7.7)"/><path class="cls-2" d="M478.5,7.9c-1.4,3.6-4.6,2.2-7,2.3-85.3,3.1-170.3,9.6-255.2,18.4C121.5,38.4,38.4,121.5,28.6,216.3c-8.7,84.1-15,168.4-18.4,252.9-.1,2.4,1.3,5.6-2.3,7Q7.9,247,7.7,17.7c0-8.3,1.7-10,10-10Q248.1,8.2,478.5,7.9Z" transform="translate(-7.7 -7.7)"/><path class="cls-2" d="M7.9,726.5c3.6,1.4,2.2,4.5,2.3,6.9q5.1,126.9,18.4,253c9.8,94.8,92.8,177.8,187.7,187.7,84.2,8.7,168.5,15,253,18.3,2.4.1,5.6-1.3,6.9,2.4q-229.5,0-459,.2c-8,0-9.5-1.6-9.5-9.5Q8.2,956,7.9,726.5Z" transform="translate(-7.7 -7.7)"/><path class="cls-2" d="M1194.8,478.5c-3.7-1.3-2.2-4.5-2.3-6.9q-4.9-128-18.4-255.3c-10-95.6-93-177.9-188.9-187.8-85.3-8.9-170.7-15.2-256.4-18.3-2.4-.1-5.6,1.4-6.9-2.3q231.8,0,463.6-.2c7.9,0,9.5,1.5,9.5,9.5Q1194.6,247.8,1194.8,478.5Z" transform="translate(-7.7 -7.7)"/><path class="cls-2" d="M1185.8,849.8c1.4-21.1,3-42.2,4.2-63.3,1-18.1,1.6-36.2,2.4-54.3.1-2.1-.7-4.7,2.4-5.7q0,229.5.2,459c0,7.9-1.6,9.5-9.5,9.5q-230.7-.4-461.3-.2a2.9,2.9,0,0,1,.4-3.6,13.5,13.5,0,0,1,9.6-3.4c15.4,0,30.8-1.4,46.2-2.1,52.7-2.5,105.2-6.2,157.7-11.5,29.5-3,59.4-3.6,87.6-13.9,82.4-30.1,130.5-88.7,143.5-175.4,6.1-40.7,8.5-81.9,11.6-123C1181.1,857.3,1181.1,852.5,1185.8,849.8Z" transform="translate(-7.7 -7.7)"/><path class="cls-3" d="M582.8,7.9a61.8,61.8,0,0,1-37.1,0Z" transform="translate(-7.7 -7.7)"/><path class="cls-4" d="M1194.8,580.5c-3.6-10.1-3.8-20.1,0-30.2Z" transform="translate(-7.7 -7.7)"/><path class="cls-5" d="M1192.6,652.4c.8-10-2.5-20.4,2.2-30.2v30.1C1194.1,653.8,1193.4,653.9,1192.6,652.4Z" transform="translate(-7.7 -7.7)"/><path class="cls-6" d="M643.2,10.1c-7.8-.8-15.9,2.4-23.3-2.2h23.2C644.6,8.6,644.6,9.3,643.2,10.1Z" transform="translate(-7.7 -7.7)"/><path class="cls-6" d="M561.9,1192.5c7.7.9,15.8-2.3,23.2,2.3H561.9C560.4,1194.1,560.4,1193.3,561.9,1192.5Z" transform="translate(-7.7 -7.7)"/><path class="cls-6" d="M617.6,1194.8c7.3-4.6,15.5-1.4,23.2-2.3,1.5.8,1.4,1.6-.1,2.3Z" transform="translate(-7.7 -7.7)"/><path class="cls-7" d="M7.9,617.6c4.4,6.5,1.5,13.9,2.3,20.9-.8,1.4-1.6,1.4-2.3-.1Z" transform="translate(-7.7 -7.7)"/><path class="cls-8" d="M643.2,10.1a16.2,16.2,0,0,1-.1-2.2h20.8C657.4,12.6,650.1,9.2,643.2,10.1Z" transform="translate(-7.7 -7.7)"/><path class="cls-9" d="M10.2,564.2c-.8,7,2.1,14.3-2.3,20.9V564.3C8.6,562.8,9.4,562.7,10.2,564.2Z" transform="translate(-7.7 -7.7)"/><path class="cls-10" d="M10.2,564.2H7.9V545.7C12.3,551.4,9.4,558,10.2,564.2Z" transform="translate(-7.7 -7.7)"/><path class="cls-11" d="M687.1,7.9c-6.2,3.8-12.4,3.2-18.5,0Z" transform="translate(-7.7 -7.7)"/><path class="cls-12" d="M724.3,1192.9a6.1,6.1,0,0,1-.1,1.9H705.7c2.9-4.5,7.8-1.2,11.4-2.7S722.2,1190.3,724.3,1192.9Z" transform="translate(-7.7 -7.7)"/><path class="cls-13" d="M7.9,638.4h2.3c-.7,5.4,1.8,11.2-2.3,16.2Z" transform="translate(-7.7 -7.7)"/><path class="cls-14" d="M508.6,1194.8c5.4-4,10.8-3.4,16.2,0Z" transform="translate(-7.7 -7.7)"/><path class="cls-15" d="M531.8,1194.8c4.9-4.4,10.7-1.5,16.1-2.1,1.6.6,1.7,1.3.1,2.1Z" transform="translate(-7.7 -7.7)"/><path class="cls-14" d="M675.5,1194.8c5.4-3.3,10.8-4,16.2,0Z" transform="translate(-7.7 -7.7)"/><path class="cls-16" d="M9.9,673.3c-.4,4.6,2.4,9.8-2,13.8V673.2C8.7,671.7,9.3,671.7,9.9,673.3Z" transform="translate(-7.7 -7.7)"/><path class="cls-17" d="M1194.8,677.8c-4.3-4-1.6-9.1-2.1-13.8.6-1.6,1.3-1.6,2.1-.1Z" transform="translate(-7.7 -7.7)"/><path class="cls-18" d="M7.9,508.6c3.9,4.7,3.3,9.3,0,13.9Z" transform="translate(-7.7 -7.7)"/><path class="cls-19" d="M548,1194.8a14.8,14.8,0,0,0-.1-2.1l14-.2v2.3Z" transform="translate(-7.7 -7.7)"/><path class="cls-20" d="M640.7,1194.8a17.7,17.7,0,0,0,.1-2.3c4.7.4,9.7-1.5,13.9,2.3Z" transform="translate(-7.7 -7.7)"/><path class="cls-21" d="M1194.8,663.9h-2.1c-.1-3.8-.1-7.7-.1-11.6h2.2Z" transform="translate(-7.7 -7.7)"/><path class="cls-22" d="M9.9,673.3h-2V661.6C11.4,665,10.1,669.3,9.9,673.3Z" transform="translate(-7.7 -7.7)"/><path class="cls-23" d="M1194.8,712.6c-4.4-2.3-1.6-6-2-9.2.6-1.6,1.3-1.6,2-.1Z" transform="translate(-7.7 -7.7)"/><path class="cls-24" d="M1192.8,517.8c0-3.1,0-6.2.1-9.3.7-1.2,1.3-1.2,1.9.1v9.3C1194.1,519.4,1193.4,519.4,1192.8,517.8Z" transform="translate(-7.7 -7.7)"/><path class="cls-25" d="M524.8,9.8h-9.3c-1.5-.7-1.4-1.4.1-2h9.2C526.4,8.6,526.4,9.3,524.8,9.8Z" transform="translate(-7.7 -7.7)"/><path class="cls-26" d="M712.6,7.9c-3.1,3.9-6.2,3.4-9.3,0Z" transform="translate(-7.7 -7.7)"/><path class="cls-27" d="M1194.8,536.4c-3.2-2.5-2.2-6-2-9.3.7-1.2,1.4-1.3,2,.1Z" transform="translate(-7.7 -7.7)"/><path class="cls-28" d="M1194.8,527.2h-2v-9.3h2Z" transform="translate(-7.7 -7.7)"/><path class="cls-29" d="M1194.8,508.6h-1.9v-9.2c.7-1.3,1.4-1.3,2,0Z" transform="translate(-7.7 -7.7)"/><path class="cls-30" d="M7.9,703.3c3.4,3.1,3.9,6.2,0,9.3Z" transform="translate(-7.7 -7.7)"/><path class="cls-31" d="M1194.8,703.3h-2c-.1-3.2-1.7-6.8,2-9.3Z" transform="translate(-7.7 -7.7)"/><path class="cls-32" d="M508.5,9.8h-9.2c-.9-.5-1.2-.9-.9-1.4a1.2,1.2,0,0,1,.9-.6h9.3C510.2,8.6,510.1,9.3,508.5,9.8Z" transform="translate(-7.7 -7.7)"/><path class="cls-33" d="M508.5,9.8a12.1,12.1,0,0,0,.1-1.9h7a12.7,12.7,0,0,1-.1,2Z" transform="translate(-7.7 -7.7)"/><path class="cls-34" d="M524.8,9.8V7.9h7C530,10.7,527.4,10.1,524.8,9.8Z" transform="translate(-7.7 -7.7)"/><path class="cls-35" d="M490.1,1194.8c1.5-3.3,3.1-3.3,4.6,0Z" transform="translate(-7.7 -7.7)"/><path class="cls-36" d="M1194.8,499.3h-2c-.3-1.9-.8-4,2-4.6Z" transform="translate(-7.7 -7.7)"/><path class="cls-37" d="M499.3,7.9v2c-1.9.3-4,.7-4.6-2Z" transform="translate(-7.7 -7.7)"/><path class="cls-38" d="M724.3,1192.9l-7.2-.8c-3.1-3.4-6.1-6.9-9.4-10.2Q515.6,989.7,323.5,797.5c-3.8-3.8-8.7-6.8-9.8-12.6,1.5-5.9,6.1-8.7,10.9-11.3,21.9-12.2,44.1-23.8,66.3-35.5,7.8-4.1,15.6-4.1,23.6-1.8,24.9,7.2,50.4,10.6,76.2,13,14.8,1.4,16.4-.2,13.4-14.5-14.1-67.7,4.5-126.3,51-175.9,50.3-53.6,114.2-76.9,186.8-78.1,21.7-.4,21.8-.3,14-21.2a224.6,224.6,0,0,0-23.8-47.5c-2.8-4.3-7.1-8.6-3.8-14.7,1.8,1.3,4,2.4,5.6,4L847.2,514.6c1.5,1.5,3.9,2.9,2.3,5.7-5.2,4.3-10.4,1.2-15.3-.5-32.7-11.8-66.3-18.2-101.1-15.7C652.3,510,586.7,543.6,544,614.2c-34.4,57.1-27.9,124.1,15.8,180.9,37.4,48.5,88.3,73.5,148,82a267.2,267.2,0,0,0,107.9-6.4c11.5-3,21.8-1.5,32.4,3.9,15.8,8,31.2,16.7,48.1,25.7-2.4-12.5-6.8-23.1-10.3-33.9-6.8-21.6-6.5-23,11.2-37.3,25.8-20.8,45.4-46.2,58-76.8,16.7-40.5,16.3-81.1,0-121.8-3.1-7.7-10.6-14.8-6.2-24.6,2.9,2.5,6,4.8,8.7,7.5q110,109.8,219.7,219.5c4.8,4.8,9,9.6,8.5,16.9-3.3,54.9-4.6,110.3-17,164.1-19.7,84.8-95,149.9-181.6,160.1S812.2,1190.1,724.3,1192.9Z" transform="translate(-7.7 -7.7)"/><path class="cls-2" d="M728.3,397.4c18.2,26.6,33.4,54.4,39.9,87.9H753.6c-75.6-1-142.7,20.7-195.2,76.8-48.5,51.9-65.8,113.1-46.6,182.7,2.1,7.7.8,9.3-6.8,9.2-32.6-.5-64.6-4.8-95.8-14.1-4.7-1.4-8.6-2.1-13.1.5-27.4,15-54.9,29.7-82.4,44.5-3.8-3.8.1-7.3,1.1-10.4,6.3-19.8,12.8-39.6,19.9-59.1,2.5-6.7,1-9.9-4.6-14-47.9-34.6-82.1-79-94.8-137.8-15.2-70.3,6.3-130.3,54-181.9,108.2-117,309.5-119.2,420.4-4.8C716.1,383.6,722.1,390.6,728.3,397.4Z" transform="translate(-7.7 -7.7)"/><path class="cls-2" d="M948.9,605.9c13.2,25.6,22.9,52.3,23.2,81.5.6,63.8-29.6,112-78.1,150.2-7.6,6-9.5,10.5-6.1,19.6,6.2,16.5,10.9,33.6,16.4,51-4.3.6-7-1.8-9.8-3.3-10.2-5.4-20.6-10.7-30.3-16.9-19.3-12.2-38-15.2-61.8-10-72.2,15.6-141.7,6-202.9-38.3-51.6-37.3-82.9-87.2-81.4-152.8,1.2-51.7,25.3-93.8,63.8-126.5,76.6-64.7,163-77.3,256.8-43.9l10.8,3.8c23.2,12,45.6,24.9,64.7,43.1C927.6,576.1,938.4,590.8,948.9,605.9Z" transform="translate(-7.7 -7.7)"/><path class="cls-38" d="M446.1,443.3c-.6,20.9-18.2,37.6-39.4,37.3s-37-18.3-36.1-38.9,16.9-37.7,37.7-37.4S446.6,422.9,446.1,443.3Z" transform="translate(-7.7 -7.7)"/><path class="cls-38" d="M556.7,443.4c-.1-22.3,15.6-38.8,37.1-38.9s38,16.8,38,38.2-17.3,37.7-38.7,37.9C573.6,480.8,556.8,463.7,556.7,443.4Z" transform="translate(-7.7 -7.7)"/><path class="cls-39" d="M675.8,599.6c15.9-.2,31.3,15.4,31.2,31.3s-14.6,30.1-30.9,29.9-30.3-14-30.4-30.3S659.9,599.7,675.8,599.6Z" transform="translate(-7.7 -7.7)"/><path class="cls-40" d="M855.8,631.7c-.3,15.7-14,29-30.2,29.1s-31.9-15.6-31.7-30.9,16.3-29.9,31.4-30S856,615.4,855.8,631.7Z" transform="translate(-7.7 -7.7)"/></svg>