<svg id="Layer_1" data-name="Layer 1" xmlns="http://www.w3.org/2000/svg" viewBox="0 0 1194.3 1194.3"><defs><style>.cls-1{fill:#29a61a;}.cls-2{fill:#1e7f16;}.cls-3{fill:#fefefe;}.cls-4{fill:#3bae2e;}.cls-5{fill:#37ac29;}.cls-6{fill:#4bb43e;}.cls-7{fill:#39ad2b;}.cls-8{fill:#3faf31;}.cls-9{fill:#5bbb50;}.cls-10{fill:#77c66e;}.cls-11{fill:#46b239;}.cls-12{fill:#34ab26;}.cls-13{fill:#489f3f;}.cls-14{fill:#5cba51;}.cls-15{fill:#5dac55;}.cls-16{fill:#c9e8c5;}.cls-17{fill:#a0d799;}.cls-18{fill:#bce3b7;}.cls-19{fill:#afdea9;}.cls-20{fill:#89ce81;}.cls-21{fill:#8dd085;}.cls-22{fill:#98d491;}.cls-23{fill:#7bc872;}.cls-24{fill:#b4e0af;}.cls-25{fill:#c4e7c0;}.cls-26{fill:#a2d09e;}</style></defs><title>whatsapp</title><path class="cls-1" d="M1199.2,583.3v32.6c-2.5,5.4-.6,11.1-1.2,16.6s-1.2,13.8,1.2,20.6v4.7c-2.5,3.5-.3,7.6-1.5,11.3-4.9,3.3-8-.5-11.2-3s-6.7-6.3-10-9.6Q1052.6,532.6,928.6,408.7c-9.3-9.3-17.2-20-27.1-28.7-3.5-3-7-6-11.3-8.1-12.7-11.4-23.1-25-35.5-36.7Q770.6,256,656.4,238.7c-79.3-12-154.5,1.3-224.7,39.4-94.1,51.1-154.5,129.2-181.8,233A335.5,335.5,0,0,0,238.7,596c-.1,50.7,8.7,100.3,30.3,146.7,7.6,16.4,9.2,32,5.3,49.5-11.5,52.1-22.1,104.5-32.5,156.9-1.6,8.2-1.2,15.3,5.5,21.1,2.2,6.3,8.1,9.2,12.4,13.5l195.6,195.7c2.8,2.7,5.7,5.3,7.5,8.8s4.2,7.2-1.8,9.2c-46.1-1.4-92.1-1.5-138-5.8-29.6-2.7-59.3-5.7-89-7.6-107.2-7-192.7-82.9-209.5-187.9-5.7-35.4-7.3-71.5-10.3-107.3C8.9,826.6,8.8,764.3,7.4,702.1S6.3,578,6.8,516.1c.4-50,.8-100,3.5-149.8,2.3-41.3,6.1-82.5,10.3-123.6,2.8-26.7,5.2-53.3,15.4-78.3C69.4,82.6,129.6,34.1,217.5,22.3c73-9.8,146.3-13.5,219.9-14.2,13.4-.1,27,.8,40.4-2h9.3c2.9,2.3,6.2.7,9.4,1.2h13c2.6-.4,5.5.9,7.8-1.2h14c6.3,2.5,12.9.6,19.4,1.2,11.4-.7,22.8,1.4,34.1-1.2H622c7.6,2.6,15.5.5,23.1,1.2s14.2,1.3,21.2-1.2h4.6a31.1,31.1,0,0,0,18.6,0h16.3a8.7,8.7,0,0,0,9.3,0h9.3c14.5,2.9,29.3,1.6,43.9,2,33.2.8,66.6.6,99.7,3.1,52.8,3.9,106.4,3.5,157.5,18.4,68.5,19.8,116,64.6,143.7,130.3,13.1,31.2,15.1,64.6,18.6,97.7,7.8,72.4,8.8,145.1,10.3,217.8a6.2,6.2,0,0,0,1.1,3.2v11.6c-1.7,1.8-1,4-1.2,6.1v23.2c.4,2.6-.9,5.5,1.2,7.9v16.3c-2.5,6.1-.6,12.5-1.2,18.8S1196.7,576.5,1199.2,583.3Z" transform="translate(-5.1 -5.9)"/><path class="cls-2" d="M463.8,1194.8q-82.2-82.5-164.5-165.1c-18.3-18.4-36.2-37-54.3-55.5,3-4.8,8.3-5.4,13.1-6.6,54.5-13.4,109.3-25.7,163.7-39.1,12.2-3,23.1-1.3,34.9,3.7,103.5,43.6,206.2,41.7,307.9-6.8A334.3,334.3,0,0,0,859.9,858c53.1-54.1,88.5-118.2,101.8-193.3,18-102-3.6-195.1-63.3-279.6-3.2-4.6-7.9-9-4.9-15.7,5.1,1.5,8.1,5.9,11.6,9.4L1186.4,660c3.3,3.2,6.8,6.3,10.2,9.4a3.8,3.8,0,0,1,1.4,3.3c.1,4.9,0,9.9,0,14.9s-1.3,9.7,1.2,14.4v9.3a3,3,0,0,0,0,4.6v11.7c-3,16-1.4,32.3-1.9,48.4-1,32.1-1.3,64.3-3,96.3s-4.6,60.9-7.8,91.2c-2.2,20.4-3.3,41-9.9,60.5-30.1,89.6-91,143.6-185.2,157.8-32.4,4.9-65.3,6.7-98,9.5-58.3,5.1-116.7,5.2-175,6.6-71.3,1.7-142.6.4-213.8.8-11.2,0-22.4-1.2-33.6-1.1C468.3,1197.6,465.5,1197.6,463.8,1194.8Z" transform="translate(-5.1 -5.9)"/><path class="cls-3" d="M463.8,1194.8c84,4.3,168.1,3.6,252.2,1.4,52.3-1.4,104.5-3.7,156.6-8.3s103-4.4,152.9-18.3c81.1-22.6,143.4-97,152.9-180.4s15.6-169.5,18.5-254.7c.1-2.4-1.4-5.6,2.3-6.9q0,231.4.2,463.1c0,8-1.5,9.5-9.5,9.5q-587.7-.3-1175.3,0c-7.9,0-9.5-1.5-9.5-9.5Q5.6,603,5.1,15.4c0-7.9,1.6-9.5,9.5-9.5q231.6.4,463.2.2c-1.4,3.7-4.6,2.3-7,2.4C386,11.8,301.4,18.2,216.9,26.9,121.7,36.7,38.5,120.2,28.4,215.3A3641.9,3641.9,0,0,0,10.3,742.6c3.2,83.3,8.9,166.5,18.6,249.3C40.1,1086.8,123,1167.2,218,1177,299.8,1185.4,381.6,1191.8,463.8,1194.8Z" transform="translate(-5.1 -5.9)"/><path class="cls-3" d="M1199.2,478.6c-3.7-1.4-2.2-4.6-2.3-7q-5-128.4-18.5-256.3c-10.1-95.9-93.3-178.5-189.6-188.5C903.2,17.9,817.4,11.6,731.4,8.4c-2.4-.1-5.6,1.4-7-2.3q232.8,0,465.5-.2c8,0,9.5,1.6,9.5,9.5Q1198.9,247,1199.2,478.6Z" transform="translate(-5.1 -5.9)"/><path class="cls-4" d="M584.8,6.1c-11.4,4.8-23.4,1.3-35.1,2.2-1.4-.8-1.3-1.5.2-2.2Z" transform="translate(-5.1 -5.9)"/><path class="cls-5" d="M645.4,8.4c-7.8-.8-15.9,2.3-23.4-2.3h23.3C646.8,6.8,646.9,7.5,645.4,8.4Z" transform="translate(-5.1 -5.9)"/><path class="cls-6" d="M645.4,8.4c0-.8-.1-1.5-.1-2.3h21C659.7,10.8,652.3,7.5,645.4,8.4Z" transform="translate(-5.1 -5.9)"/><path class="cls-7" d="M1199.2,583.3c-4.4-6.6-1.5-14-2.2-21,.7-1.5,1.5-1.5,2.2,0Z" transform="translate(-5.1 -5.9)"/><path class="cls-8" d="M1199.2,653.1c-4.5-6.6-1.4-13.9-2.3-20.9.7-1.6,1.5-1.6,2.3,0Z" transform="translate(-5.1 -5.9)"/><path class="cls-9" d="M549.9,6.1a15,15,0,0,1-.2,2.2c-6.1-.8-12.7,2.5-18.4-2.2Z" transform="translate(-5.1 -5.9)"/><path class="cls-10" d="M689.5,6.1c-6.2,3.9-12.4,3.2-18.6,0Z" transform="translate(-5.1 -5.9)"/><path class="cls-11" d="M1199.2,562.3h-2.3c.8-6.2-2.1-12.8,2.3-18.6Z" transform="translate(-5.1 -5.9)"/><path class="cls-12" d="M1199.2,632.2h-2.3c.5-5.5-1.7-11.3,2.3-16.3Z" transform="translate(-5.1 -5.9)"/><path class="cls-13" d="M1197.2,688.2l.2-16.7c.8-1,1.4-.9,1.8.2V688C1198.6,689.3,1198,689.3,1197.2,688.2Z" transform="translate(-5.1 -5.9)"/><path class="cls-14" d="M1199.2,671.7l-1.8-.2-.8-2.1c.7-3.9-.9-8.3,2.6-11.6Z" transform="translate(-5.1 -5.9)"/><path class="cls-15" d="M1197.2,688.2l2-.2v14C1194.9,697.9,1197.5,692.8,1197.2,688.2Z" transform="translate(-5.1 -5.9)"/><path class="cls-16" d="M496.3,8c-3.1-.2-6.9,2.5-9.2-1.9h9.3C497.9,6.8,497.9,7.5,496.3,8Z" transform="translate(-5.1 -5.9)"/><path class="cls-17" d="M510.3,8.1H501c-1-.4-1.3-.9-.9-1.3s.6-.7.9-.7h9.3C511.9,6.8,511.9,7.5,510.3,8.1Z" transform="translate(-5.1 -5.9)"/><path class="cls-18" d="M715.1,6.1c-3.1,3.9-6.2,3.4-9.3,0Z" transform="translate(-5.1 -5.9)"/><path class="cls-19" d="M1197.3,504.1c0-3.1-.1-6.2-.1-9.3.7-1.3,1.4-1.3,2,.1v9.3C1198.5,505.7,1197.8,505.7,1197.3,504.1Z" transform="translate(-5.1 -5.9)"/><path class="cls-20" d="M1197.3,520.4c-.1-3.1-.1-6.2-.1-9.3.7-1.3,1.4-1.3,2,0v9.3C1198.5,522,1197.8,522,1197.3,520.4Z" transform="translate(-5.1 -5.9)"/><path class="cls-21" d="M510.3,8.1v-2h7C515.6,9.3,512.8,8.3,510.3,8.1Z" transform="translate(-5.1 -5.9)"/><path class="cls-22" d="M1199.2,511.1h-2c0-2.4.1-4.7.1-7h1.9Z" transform="translate(-5.1 -5.9)"/><path class="cls-23" d="M1197.3,520.4h1.9v7C1196.4,525.7,1196.9,523,1197.3,520.4Z" transform="translate(-5.1 -5.9)"/><path class="cls-24" d="M501,6.1v2h-4.7c0-.6.1-1.2.1-1.9Z" transform="translate(-5.1 -5.9)"/><path class="cls-25" d="M1199.2,494.9h-2c-.3-1.9-.8-4,2-4.6Z" transform="translate(-5.1 -5.9)"/><path class="cls-26" d="M1199.2,715.9c-3.3-1.5-3-3.1,0-4.6Z" transform="translate(-5.1 -5.9)"/><path class="cls-3" d="M893.5,369.4c30.7,41,53.6,85.6,67,135.3,56.2,207.6-82.9,423.9-295,458.2-76,12.2-148.8,2.8-218.6-29.7a23.2,23.2,0,0,0-16.6-1.5q-86.2,20.7-172.8,40.8c-4.1.9-8.3,1.1-12.5,1.7-10.2-5.2-10.9-13.7-8.8-23.7,12-57.6,23.8-115.3,36-172.8a31.2,31.2,0,0,0-2.7-21.2c-106.1-223,35.3-487.8,280.2-522.3,134.6-18.9,247,25.7,336.8,127.6C888.7,364.4,891.1,366.9,893.5,369.4Z" transform="translate(-5.1 -5.9)"/><path class="cls-2" d="M334.5,871.7c6.6-32.1,12.1-62.2,19.2-91.9,4-16.6,2.3-30.5-5.7-46.1-45.3-88.8-46.3-178.9-1.1-267.8,57.3-112.4,180.5-173,305.2-152.2,121.4,20.2,217.1,117.2,237.1,240.1,26.5,163-93,317.3-256.9,332.5-59.8,5.6-115.6-6.3-168.2-34.3-10.7-5.6-20.2-6.6-31.8-3.6C400.6,856.5,368.5,863.7,334.5,871.7Z" transform="translate(-5.1 -5.9)"/><path class="cls-3" d="M699.7,778.6c-41-.9-78.2-14.6-112.3-36.4-62.1-39.9-115.6-88.8-150.7-154.9-15.7-29.6-24.3-61.6-17.2-95.4,6.1-29.7,26.1-50.6,49.9-67.5,12.1-8.6,29-3.2,35.7,10.6,11.2,23.4,21.3,47.2,31.6,71,3.8,8.9,2,17.6-3.6,25.3-4.3,6-9,11.7-13.4,17.6-10,13.4-10.5,23.3-.7,37.1,20.9,29.4,48,52.6,75.7,75.1,12.1,9.8,24.7,18.8,38.7,25.6s25.7,6.6,35.5-6c17.8-22.8,38-27.1,64.2-16.2,15.6,6.5,32.8,9.3,49,14.4S807,700,799.7,713.7c-15.6,29.5-36.3,54.3-71.1,62.1A103.6,103.6,0,0,1,699.7,778.6Z" transform="translate(-5.1 -5.9)"/></svg>