<svg width="500" height="493" viewBox="0 0 500 493" fill="none" xmlns="http://www.w3.org/2000/svg">
<g clip-path="url(#clip0_125_4911)">
<path d="M478.733 140.754C491.917 20.6965 375.521 -21.0122 293.007 9.72731C209.824 40.7162 190.538 -10.6535 73.5679 4.02383C-44.8692 18.8773 15.2633 204.807 15.2633 204.807C15.2633 204.807 34.1092 366.469 56.4347 440.987C78.6417 515.105 291.202 488.29 342.907 486.078C394.316 483.879 438.988 488.122 483.718 406.744C528.371 325.514 465.596 260.412 478.733 140.754Z" fill="#F4F7FA"/>
<path d="M331.412 332.928C346.341 331.146 350.016 313.112 350.564 292.278C351.111 271.444 383.738 264.697 394.517 259.575C409.91 252.261 415.46 248.138 418.761 212.208C417.65 161.801 436.746 128.874 459.307 131.178C482.166 133.515 490.73 156.731 484.88 178.247C481.971 188.951 491.508 192.518 494.707 202.641C496.001 206.742 495.765 210.047 495.451 213.256C493.618 231.971 467.607 234.022 461.553 252.446C456.192 268.761 473.403 276.854 467.698 291.551C462.53 304.864 447.068 301.676 417.268 324.314C414.455 326.452 412.055 331.182 403.676 335.651C393.814 340.916 376.957 347.822 369.216 357.694C358.995 356.996 348.704 356.134 338.621 356.813C328.854 355.266 319.167 353.211 309.572 350.787C313.407 342.877 319.941 334.301 331.412 332.928Z" fill="url(#paint0_linear_125_4911)"/>
<g style="mix-blend-mode:soft-light" opacity="0.5">
<g style="mix-blend-mode:soft-light" opacity="0.5">
<path d="M319.367 382.378L319.935 383.028C323.556 379.925 327.167 376.749 330.666 373.585C356.574 350.159 379.168 324.983 397.817 298.76C413.622 276.535 426.828 253.247 437.061 229.542C445.293 210.478 451.66 191.042 455.983 171.774C459.022 158.229 461.028 144.914 461.945 132.181C462.104 129.963 462.144 127.674 462.181 125.463C462.231 122.515 462.282 119.468 462.622 116.567L461.795 116.409C461.446 119.358 461.399 122.426 461.349 125.393C461.312 127.594 461.272 129.87 461.115 132.066C460.201 144.757 458.202 158.041 455.171 171.549C450.859 190.768 444.507 210.159 436.293 229.179C426.078 252.835 412.899 276.076 397.122 298.257C378.5 324.441 355.942 349.576 330.074 372.966C326.589 376.105 322.984 379.28 319.367 382.378Z" fill="#FCFDFE"/>
</g>
<g style="mix-blend-mode:soft-light" opacity="0.5">
<path d="M422.616 257.388L423.345 257.845C440.612 227.942 496.775 207.989 497.337 207.786L497.009 206.998C496.442 207.2 440.014 227.245 422.616 257.388Z" fill="#FCFDFE"/>
</g>
<g style="mix-blend-mode:soft-light" opacity="0.5">
<path d="M366.667 336.221L367.344 336.757C381.56 317.996 370.559 271.575 370.447 271.107L369.638 271.245C369.75 271.707 380.661 317.754 366.667 336.221Z" fill="#FCFDFE"/>
</g>
<g style="mix-blend-mode:soft-light" opacity="0.5">
<path d="M357.627 346.095L358.208 346.735C369.634 336.497 391.165 329.091 418.831 325.882C420.226 325.721 420.226 325.721 420.336 325.622L419.762 324.975L420.05 325.297L419.897 324.901C419.806 324.922 419.281 324.983 418.676 325.055C390.849 328.282 369.17 335.754 357.627 346.095Z" fill="#FCFDFE"/>
</g>
<g style="mix-blend-mode:soft-light" opacity="0.5">
<path d="M325.888 376.61L326.615 377.07C335.162 362.398 325.407 337.513 325.307 337.264L324.538 337.52C324.636 337.771 334.243 362.279 325.888 376.61Z" fill="#FCFDFE"/>
</g>
<g style="mix-blend-mode:soft-light" opacity="0.5">
<path d="M452.445 182.831L453.193 183.248C461.822 166.013 475.037 150.223 479.38 145.036C480.427 143.78 480.8 143.337 480.901 143.157L480.167 142.709C480.088 142.845 479.487 143.564 478.726 144.473C474.369 149.668 461.11 165.507 452.445 182.831Z" fill="#FCFDFE"/>
</g>
<g style="mix-blend-mode:soft-light" opacity="0.5">
<path d="M442.731 213.247L443.552 213.434C446.343 195.228 424.098 163.615 423.146 162.277L422.479 162.725C422.71 163.05 445.457 195.389 442.731 213.247Z" fill="#FCFDFE"/>
</g>
</g>
<path d="M315.08 321.345C317.331 322.899 324.289 310.329 342.13 302.232C346.587 300.211 370.133 287.492 385.594 300.371L394.597 307.871C402.948 303.577 410.023 297.982 403.437 287.581C393.209 271.428 413.67 248.543 424.8 243.926C438.579 238.214 470.333 224.25 454.91 199.055C442.069 178.081 429.549 166.889 447.812 144.603C466.076 122.318 465.853 98.0197 444.106 80.8656C421.22 62.8116 428.234 20.0128 402.193 13.1372C356.829 1.15638 341.877 72.8964 367.039 120.056C392.201 167.215 358.986 160.57 342.013 176.995C339.824 179.366 337.923 181.987 336.35 184.805C324.088 206.836 340.393 227.115 340.648 254.365C340.993 291.535 311.284 318.729 315.08 321.345Z" fill="url(#paint1_linear_125_4911)"/>
<g style="mix-blend-mode:soft-light" opacity="0.5">
<g style="mix-blend-mode:soft-light" opacity="0.5">
<path d="M369.476 282.376L370.655 283.074C418.564 201.272 424.421 94.8766 385.937 5.39999L384.699 5.85697C423.022 94.9673 417.193 200.919 369.476 282.376Z" fill="#FCFDFE"/>
</g>
<g style="mix-blend-mode:soft-light" opacity="0.5">
<path d="M391.58 235.374L392.605 236.286C417.749 208.772 462.585 209.748 463.035 209.762L463.002 208.44C462.545 208.426 417.12 207.423 391.58 235.374Z" fill="#FCFDFE"/>
</g>
<g style="mix-blend-mode:soft-light" opacity="0.5">
<path d="M377.864 267.075L379.182 267.423C387.427 230.272 336.301 178.535 335.785 178.017L334.847 178.915C335.358 179.422 385.953 230.621 377.864 267.075Z" fill="#FCFDFE"/>
</g>
<g style="mix-blend-mode:soft-light" opacity="0.5">
<path d="M409.607 143.393L410.898 143.85C420.015 115.156 462.76 96.5388 463.191 96.3539L462.594 95.133C462.158 95.3249 418.893 114.178 409.607 143.393Z" fill="#FCFDFE"/>
</g>
<g style="mix-blend-mode:soft-light" opacity="0.5">
<path d="M406.408 82.001L407.692 81.6627C396.744 47.9999 354.432 23.6267 354.004 23.3843L353.376 24.518C353.799 24.757 395.638 48.8773 406.408 82.001Z" fill="#FCFDFE"/>
</g>
</g>
<path d="M42.9189 344.542C30.591 344.241 20.9526 334.252 20.9526 321.8V64.1266C20.9526 51.3941 31.1962 41.4209 43.8015 41.8883L364.372 53.7749L364.698 53.7906C375.525 54.4011 384.277 64.3952 384.277 76.0743V310.545C384.277 322.161 375.58 331.944 364.836 332.347L44.3195 344.532C43.8364 344.549 43.3933 344.553 42.9189 344.542Z" fill="url(#paint2_linear_125_4911)"/>
<path d="M47.461 344.653C35.1435 344.353 25.5156 334.362 25.5156 321.922V64.3691C25.5156 51.647 35.7487 41.6755 48.3487 42.143L368.623 54.0139L368.949 54.0296C379.763 54.6401 388.51 64.6308 388.51 76.3028V310.667C388.51 322.278 379.82 332.056 369.087 332.47L48.8546 344.647C48.3819 344.661 47.9354 344.665 47.461 344.653Z" fill="#C281E8"/>
<path d="M368.721 326.421L48.4341 338.391C39.3434 338.731 31.9429 331.435 31.9429 322.093V64.7128C31.9429 55.3727 39.3434 48.0698 48.4341 48.3994L368.721 60.0663C376.357 60.3436 382.522 67.4686 382.522 75.9802V310.494C382.522 319.006 376.357 326.135 368.721 326.421Z" fill="#F4F7FA"/>
<path d="M126.86 280.217L76.041 281.387C75.895 281.389 75.7501 281.362 75.6149 281.307C75.4798 281.251 75.3571 281.169 75.2542 281.066C75.1514 280.962 75.0704 280.839 75.0162 280.703C74.962 280.567 74.9357 280.422 74.9387 280.276V267.785C74.9358 267.486 75.0492 267.198 75.255 266.982C75.4608 266.766 75.7428 266.638 76.041 266.627L126.86 265.648C127.003 265.648 127.145 265.677 127.277 265.732C127.409 265.788 127.529 265.87 127.629 265.973C127.729 266.075 127.807 266.197 127.859 266.331C127.911 266.464 127.936 266.607 127.932 266.75V279.071C127.937 279.364 127.828 279.647 127.628 279.861C127.428 280.075 127.152 280.203 126.86 280.217Z" fill="#C281E8"/>
<path d="M273.197 303.499L76.0323 309.458C75.8866 309.461 75.7418 309.435 75.6067 309.38C75.4715 309.326 75.3488 309.244 75.2458 309.141C75.1429 309.038 75.0618 308.915 75.0075 308.78C74.9532 308.645 74.9268 308.5 74.9299 308.354V295.864C74.9269 295.565 75.0401 295.276 75.2456 295.058C75.4512 294.841 75.7332 294.711 76.0323 294.697L273.197 289.482C273.331 289.484 273.464 289.513 273.587 289.567C273.71 289.621 273.821 289.699 273.914 289.796C274.006 289.894 274.078 290.009 274.125 290.135C274.173 290.26 274.194 290.394 274.189 290.529V302.389C274.198 302.666 274.1 302.936 273.915 303.143C273.73 303.349 273.473 303.477 273.197 303.499Z" fill="#D8DEE8"/>
<path d="M72.9157 114.18C70.125 115.875 67.439 119.648 68.0494 123.846C68.6686 128.107 72.4012 130.852 75.3436 131.768C79.4808 133.059 80.843 130.353 85.2942 130.81C92.0302 131.508 97.2715 138.565 99.4587 143.761C101.611 148.866 99.9331 150.084 101.323 155.953C103.765 166.263 111.33 172.627 118.538 178.69C124.542 183.748 133.697 189.853 135.342 188.067C135.931 187.425 135.401 185.944 135.08 185.051C133.81 181.505 130.912 180.676 126.959 177.343C124.148 174.973 120.6 171.98 121.174 169.618C121.741 167.29 126.232 165.875 129.582 166.92C132.933 167.965 134.737 171.356 135.603 172.99C136.345 174.385 136.223 176.192 136.91 176.285C137.384 176.347 137.913 175.617 138.15 174.987C138.762 173.367 137.691 171.792 137.302 170.532C136.402 167.628 138.532 164.518 140.649 161.424C144.192 156.249 146.266 156.228 151.741 150.228C155.403 146.217 157.233 144.15 157.434 141.204C157.782 136.146 153.642 132.324 152.949 131.684C149.606 128.59 143.934 126.427 141.518 128.585C139.352 130.523 141.633 134.304 139.076 137.131C137.295 139.104 134.192 139.468 131.75 138.673C128.323 137.55 126.354 134.138 126.155 131.084C126.117 130.482 125.935 127.693 127.725 125.799C128.238 125.259 129.481 124.188 133.666 124.073C139.542 123.91 140.766 125.927 144.275 125.17C147.199 124.538 150.729 122.191 150.682 119.82C150.631 117.042 145.732 116.681 140.107 110.311C137.918 107.836 136.137 105.764 136.27 103.104C136.47 99.361 140.368 96.4866 141.141 95.9162C144.174 93.6802 146.866 91.868 146.866 91.868C147.624 91.3587 148.725 90.6278 148.598 89.9092C148.514 89.4383 147.923 89.1017 146.866 88.7703C143.527 87.7238 140.968 88.247 140.968 88.247C136.995 89.0581 135.736 91.0377 130.863 93.654C128.897 94.7005 125.581 96.4848 121.057 97.4389C115.892 98.529 114.117 97.4982 111.553 99.415C109.08 101.262 109.859 102.87 107.314 105.757C104.648 108.78 101.384 109.742 96.3261 111.237C92.6625 112.299 88.8957 112.966 85.0901 113.225C77.4628 113.777 75.8442 112.399 72.9157 114.18Z" fill="#C281E8"/>
<path d="M157.088 91.404C151.697 92.7592 147.007 93.9366 146.03 97.3098C145.521 99.0645 145.994 101.496 147.415 102.811C150.242 105.427 154.507 101.491 157.606 103.774C159.262 104.995 158.635 106.564 160.531 115.285C161.798 121.106 162.835 123.903 164.827 126.436C165.956 127.87 167.538 129.882 169.113 129.588C171.443 129.152 170.56 124.25 174.241 120.807C175.533 119.599 175.768 120.084 181.915 117.157C185.497 115.451 187.294 114.584 187.688 113.843C189.708 110.07 184.345 105.324 186.502 100.835C186.908 99.9889 186.964 100.439 189.722 96.9488C192.891 92.9371 192.851 92.2988 192.769 91.9831C192.42 90.6435 190.06 90.4848 183.956 89.5866C173.811 88.0936 172.99 87.4604 169.973 88.1232C167.97 88.5645 167.438 89.0406 163.114 90.1151C159.734 90.9488 159.356 90.8337 157.088 91.404Z" fill="#C281E8"/>
<path d="M143.429 188.074C140.443 190.352 139.848 194.314 139.608 195.923C139.013 199.898 140.131 202.5 142.224 209.056C144.757 217.02 146.023 220.997 146.213 223.252C146.508 226.754 145.894 227.367 143.438 241.149C141.612 251.403 141.416 254.067 143.089 255.929C145.552 258.666 150.846 258.321 151.057 257.614C151.16 257.265 150.01 256.983 149.155 255.826C147.237 253.252 148.616 248.951 148.981 247.817C150.42 243.343 153.167 241.416 157.615 236.968C162.858 231.722 166.273 228.307 168.778 223.247C170.023 220.734 172.676 215.196 171.858 208.015C171.37 203.982 169.901 200.13 167.579 196.796C164.608 192.56 160.313 189.431 155.37 187.901C151.944 186.825 147.078 185.292 143.429 188.074Z" fill="#C281E8"/>
<path d="M194.285 163.104C192.352 166.953 190.216 171.211 189.378 175.139C188.628 178.657 187.913 186.638 191.749 189.736C195.218 192.539 199.219 188.761 204.059 191.897C206.527 193.496 207.616 195.858 208.927 198.699C211.748 204.825 210.403 208.209 211.608 216.071C212.175 219.766 213.973 231.504 218.459 232.292C222.199 232.955 226.268 225.734 226.948 224.527C228.752 221.325 229.447 218.001 230.763 211.484C232.536 202.699 231.877 201.469 233.743 199.001C236.145 195.827 239.053 195.464 239.691 192.412C240.159 190.167 239.042 188.144 238.371 186.896C235.892 182.29 232.441 182.784 230.1 178.331C228.759 175.77 228.396 172.732 228.94 172.442C229.427 172.182 230.773 174.045 231.425 174.949C233.433 177.726 233.187 178.725 234.406 180.126C236.869 182.958 241.034 182.498 241.339 182.457C243.246 182.217 246.678 181.081 247.095 178.746C247.418 176.946 245.852 175.017 243.971 172.695C242.452 170.824 241.315 170.016 241.5 169.662C241.685 169.308 243.038 169.779 246.602 171.112C250.468 172.557 252.399 173.28 252.671 173.449C253.972 174.253 255.08 175.336 258.722 181.793C262.411 188.332 263.752 191.614 264.589 191.346C265.006 191.21 264.938 190.313 265.24 187.284C265.699 182.749 265.95 180.452 267.029 178.814C267.94 177.431 269.886 175.561 271.899 175.833C273.106 175.995 274.556 178.006 277.402 182.016C280.207 185.967 281.152 187.31 283.05 188.358C284.046 188.909 285.83 189.893 287.236 189.056C288.795 188.135 289.329 185.306 288.683 183.265C287.9 180.797 285.718 180.553 285.788 179.044C285.879 176.894 290.377 175.496 290.769 175.381C293.67 174.509 294.411 175.514 295.897 174.528C298.102 173.067 299.009 169.165 298.456 166.139C297.884 163.026 295.951 161.866 296.537 160.523C297.029 159.394 298.578 159.804 301.648 158.993C303.928 158.389 307.292 157.5 309.13 154.695C310.224 153.026 310.418 151.23 310.718 148.432C310.897 146.576 310.897 144.707 310.718 142.851C310.348 138.743 309.533 138.446 309.924 137.257C310.78 134.641 314.911 135.432 322.742 133.101C327.219 131.768 330.45 130.146 330.765 130.8C331.163 131.621 325.93 133.878 325.578 138.183C325.309 141.446 327.936 144.78 329.038 144.483C329.949 144.237 329.291 141.656 330.922 137.914C331.524 136.538 332.434 134.449 334.372 133.113C336.697 131.51 338.07 132.668 340.161 130.957C341.834 129.588 341.412 128.473 342.814 127.024C345.99 123.741 351.338 126.169 351.681 124.931C352.001 123.794 347.876 120.132 342.502 119.229C337.721 118.423 336.983 120.645 331.55 120.572C328.463 120.53 324.722 119.119 317.215 116.288C312.971 114.689 310.761 113.607 306.905 113.283C304.221 113.056 304.14 113.482 301.323 113.164C298.135 112.803 294.172 112.355 291.085 109.439C288.655 107.149 289.398 105.832 287.393 104.442C284.152 102.195 279.718 103.896 275.944 105.403C271.932 107.006 269.088 108.998 264.258 112.38C258.64 116.309 256.758 118.28 253.646 117.821C251.323 117.473 250.856 116.156 248.239 116.117C246.127 116.088 245.464 116.941 241.167 118.819C237.007 120.637 234.888 121.538 233.074 121.155C230.264 120.562 230.156 118.465 227.105 117.119C223.85 115.681 220.746 116.641 216.949 117.816C212.259 119.264 207.64 120.689 205.395 124.946C203.016 129.459 205.221 133.503 202.537 135.492C200.309 137.142 198.026 134.927 195.964 136.653C193.488 138.729 194.22 144.071 194.614 146.89C195.38 152.444 197.285 153.827 196.639 157.704C196.362 159.445 195.856 159.982 194.285 163.104Z" fill="#C281E8"/>
<path d="M239.691 209.675C238.529 209.552 236.583 214.559 237.05 219.296C237.078 219.579 237.46 223.254 238.536 223.376C239.534 223.489 240.573 220.472 240.68 220.158C240.854 219.635 241.377 217.955 241.175 215.178C241.117 214.4 240.779 209.792 239.691 209.675Z" fill="#C281E8"/>
<path d="M281.281 198.045C281.196 198.263 281.524 198.636 282.438 199.425C284.85 201.509 286.055 202.549 288.042 203.299C289.758 203.944 294.024 205.116 294.938 203.45C295.526 202.383 294.683 200.246 293.337 199.25C291.903 198.19 290.825 199.111 287.407 198.912C283.847 198.703 281.489 197.51 281.281 198.045Z" fill="#C281E8"/>
<path d="M293.336 188.911C292.628 189.031 292.813 190.549 291.418 193.819C290.766 195.345 290.413 195.75 290.616 196.275C291.064 197.429 293.755 197.984 295.103 196.623C296.356 195.348 295.784 193.051 295.583 192.244C295.199 190.713 294.165 188.761 293.336 188.911Z" fill="#C281E8"/>
<path d="M307.702 201.668C308.234 202.512 309.139 203.557 311.354 204.623C312.127 204.994 317.835 207.738 319.271 205.638C319.855 204.783 319.569 203.37 319.112 202.498C318.415 201.169 317.117 200.853 314.999 200.245C308.691 198.434 307.262 197.557 306.748 198.343C306.162 199.235 307.411 201.202 307.702 201.668Z" fill="#C281E8"/>
<path d="M297.019 182.785C296.264 183.038 296.321 186.797 297.659 189.788C298.357 191.344 299.633 193.188 300.214 192.938C300.842 192.67 300.523 190.013 300.054 188.215C299.36 185.543 297.75 182.541 297.019 182.785Z" fill="#C281E8"/>
<path d="M303.085 165.145C303.097 164.273 305.094 164.492 307.702 162.734C309.512 161.513 312.165 158.965 313.574 155.461C313.86 154.749 314.153 153.853 314.366 153.9C314.687 153.971 314.727 156.167 314.366 158.086C313.7 161.609 311.548 164.756 308.815 166.237C307.742 166.819 306.94 166.948 306.27 166.919C304.78 166.849 303.075 165.961 303.085 165.145Z" fill="#C281E8"/>
<path d="M297.659 216.396C294.162 219.71 292.252 219.125 291.729 220.995C291.141 223.113 293.541 224.056 293.972 228.336C294.24 230.996 293.503 232.501 294.132 232.89C295.088 233.478 296.667 229.946 300.368 228.622C300.656 228.519 304.533 227.197 307.693 229.247C309.53 230.436 309.3 231.579 312.298 234.429C314.217 236.253 315.213 237.174 316.416 236.994C318.401 236.696 319.521 233.618 320.21 231.727C320.78 230.157 322.086 226.576 321.157 222.324C320.756 220.484 320.459 220.929 314.991 212.445C313.481 210.103 312.874 209.093 311.503 208.454C308.712 207.152 305.646 208.747 305.145 209.009C304.048 209.579 303.087 210.561 301.161 212.525C298.896 214.845 299.037 215.086 297.659 216.396Z" fill="#C281E8"/>
<path d="M117.326 141.924C114.056 139.598 108.405 134.773 105.356 126.673C104.116 123.38 100.483 113.731 105.078 108.204C107.803 104.927 112.212 104.564 114.48 104.377C116.398 104.22 122.311 103.735 126.028 107.517C131.958 113.531 127.706 125.733 126.851 128.189C124.381 135.275 119.93 139.716 117.326 141.924Z" fill="url(#paint3_linear_125_4911)"/>
<path d="M122.734 118.205C122.734 122.25 119.595 125.475 115.719 125.409C111.844 125.342 108.678 121.997 108.678 117.938C108.678 113.88 111.833 110.655 115.719 110.735C119.605 110.815 122.734 114.16 122.734 118.205Z" fill="url(#paint4_linear_125_4911)"/>
<path d="M160.174 224.381C156.975 222.148 151.453 217.496 148.467 209.555C147.246 206.325 143.703 196.861 148.196 191.299C150.861 187.999 155.173 187.547 157.388 187.315C159.265 187.118 165.049 186.513 168.683 190.165C174.478 195.987 170.323 208.146 169.487 210.591C167.077 217.655 162.724 222.141 160.174 224.381Z" fill="url(#paint5_linear_125_4911)"/>
<path d="M165.467 200.81C165.467 204.811 162.398 208.065 158.606 208.083C154.814 208.1 151.72 204.858 151.72 200.845C151.72 196.831 154.805 193.575 158.606 193.571C162.406 193.568 165.467 196.81 165.467 200.81Z" fill="url(#paint6_linear_125_4911)"/>
<path d="M300.945 220.613C297.98 218.459 292.852 213.975 290.086 206.321C288.962 203.21 285.668 194.093 289.835 188.74C292.306 185.564 296.305 185.131 298.36 184.903C300.104 184.714 305.466 184.134 308.839 187.655C314.215 193.266 310.36 204.973 309.584 207.329C307.897 212.428 304.921 217.003 300.945 220.613Z" fill="url(#paint7_linear_125_4911)"/>
<path d="M305.851 197.916C305.851 201.767 303.005 204.893 299.487 204.914C295.969 204.935 293.1 201.804 293.1 197.937C293.1 194.07 295.962 190.939 299.487 190.939C303.012 190.939 305.851 194.063 305.851 197.916Z" fill="url(#paint8_linear_125_4911)"/>
<path d="M260.532 172.191C257.499 169.976 252.26 165.373 249.434 157.599C248.285 154.437 244.917 145.175 249.176 139.819C251.703 136.641 255.79 136.257 257.897 136.06C259.676 135.895 265.16 135.38 268.606 138.984C274.1 144.729 270.16 156.513 269.368 158.885C267.638 164.017 264.591 168.605 260.532 172.191Z" fill="url(#paint9_linear_125_4911)"/>
<path d="M265.547 149.314C265.547 153.209 262.637 156.338 259.041 156.305C255.444 156.272 252.512 153.075 252.512 149.166C252.512 145.257 255.439 142.128 259.041 142.175C262.642 142.223 265.547 145.42 265.547 149.314Z" fill="url(#paint10_linear_125_4911)"/>
<path d="M118.463 141.924C115.191 139.598 109.54 134.773 106.491 126.673C105.252 123.38 101.619 113.731 106.214 108.204C108.94 104.927 113.349 104.564 115.615 104.377C117.533 104.22 123.448 103.735 127.165 107.517C133.095 113.531 128.841 125.733 127.986 128.189C125.518 135.275 121.067 139.716 118.463 141.924Z" fill="url(#paint11_linear_125_4911)"/>
<path d="M123.872 118.205C123.872 122.25 120.732 125.475 116.855 125.409C112.977 125.342 109.813 121.997 109.813 117.938C109.813 113.88 112.97 110.655 116.855 110.735C120.739 110.815 123.872 114.16 123.872 118.205Z" fill="#F4F7FA"/>
<path d="M161.314 224.381C158.116 222.148 152.594 217.496 149.608 209.555C148.387 206.325 144.842 196.861 149.335 191.299C152.001 187.999 156.312 187.547 158.529 187.315C160.406 187.118 166.188 186.513 169.824 190.165C175.617 195.987 171.464 208.146 170.628 210.591C168.213 217.655 163.861 222.141 161.314 224.381Z" fill="url(#paint12_linear_125_4911)"/>
<path d="M166.602 200.81C166.602 204.811 163.534 208.065 159.742 208.083C155.951 208.1 152.856 204.858 152.856 200.845C152.856 196.831 155.942 193.575 159.742 193.571C163.543 193.568 166.602 196.81 166.602 200.81Z" fill="#F4F7FA"/>
<path d="M302.08 220.613C299.115 218.459 293.987 213.975 291.222 206.321C290.097 203.21 286.804 194.093 290.971 188.74C293.443 185.564 297.441 185.131 299.497 184.903C301.241 184.714 306.603 184.134 309.974 187.655C315.35 193.266 311.497 204.973 310.721 207.329C309.033 212.428 306.057 217.004 302.08 220.613Z" fill="url(#paint13_linear_125_4911)"/>
<path d="M306.987 197.916C306.987 201.767 304.14 204.893 300.622 204.914C297.104 204.935 294.235 201.804 294.235 197.937C294.235 194.07 297.097 190.939 300.622 190.939C304.147 190.939 306.987 194.063 306.987 197.916Z" fill="#F4F7FA"/>
<path d="M261.667 172.191C258.634 169.976 253.396 165.373 250.569 157.599C249.42 154.437 246.053 145.175 250.313 139.819C252.838 136.641 256.927 136.257 259.034 136.06C260.813 135.895 266.296 135.38 269.743 138.984C275.237 144.729 271.299 156.513 270.507 158.885C268.776 164.017 265.727 168.606 261.667 172.191Z" fill="url(#paint14_linear_125_4911)"/>
<path d="M266.684 149.314C266.684 153.209 263.773 156.338 260.178 156.305C256.584 156.272 253.65 153.075 253.65 149.166C253.65 145.257 256.575 142.128 260.178 142.175C263.782 142.223 266.684 145.42 266.684 149.314Z" fill="#F4F7FA"/>
<path d="M137.709 423.12L370.325 423.12V309.967H137.709V423.12Z" fill="#D8DEE8"/>
<g style="mix-blend-mode:multiply" opacity="0.3">
<path d="M147.349 414.582H360.687V316.742H147.349V414.582Z" fill="#D8DEE8"/>
</g>
<g style="mix-blend-mode:multiply" opacity="0.6">
<path d="M337.191 414.582H347.044V316.742H337.191V414.582Z" fill="#D8DEE8"/>
</g>
<path d="M336.805 414.582H343.374V316.742H336.805V414.582Z" fill="#D8DEE8"/>
<g style="mix-blend-mode:multiply" opacity="0.6">
<path d="M312.075 414.582H321.927V316.742H312.075V414.582Z" fill="#D8DEE8"/>
</g>
<path d="M311.689 414.582H318.257V316.742H311.689V414.582Z" fill="#D8DEE8"/>
<g style="mix-blend-mode:multiply" opacity="0.6">
<path d="M286.958 414.582H296.812V316.742H286.958V414.582Z" fill="#D8DEE8"/>
</g>
<path d="M286.573 414.582H293.142V316.742H286.573V414.582Z" fill="#D8DEE8"/>
<g style="mix-blend-mode:multiply" opacity="0.6">
<path d="M261.844 414.582H271.697V316.742H261.844V414.582Z" fill="#D8DEE8"/>
</g>
<path d="M261.455 414.582H268.023V316.742H261.455V414.582Z" fill="#D8DEE8"/>
<g style="mix-blend-mode:multiply" opacity="0.6">
<path d="M236.726 414.582H246.579V316.742H236.726V414.582Z" fill="#D8DEE8"/>
</g>
<path d="M236.339 414.582H242.907V316.742H236.339V414.582Z" fill="#D8DEE8"/>
<g style="mix-blend-mode:multiply" opacity="0.6">
<path d="M211.61 414.582H221.462V316.742H211.61V414.582Z" fill="#D8DEE8"/>
</g>
<path d="M211.222 414.582H217.791V316.742H211.222V414.582Z" fill="#D8DEE8"/>
<g style="mix-blend-mode:multiply" opacity="0.6">
<path d="M186.494 414.582H196.346V316.742H186.494V414.582Z" fill="#D8DEE8"/>
</g>
<path d="M186.106 414.582H192.675V316.742H186.106V414.582Z" fill="#D8DEE8"/>
<g style="mix-blend-mode:multiply" opacity="0.6">
<path d="M161.377 414.582H171.23V316.742H161.377V414.582Z" fill="#D8DEE8"/>
</g>
<path d="M160.988 414.582H167.557V316.742H160.988V414.582Z" fill="#D8DEE8"/>
<path d="M370.325 423.12H486.711V309.967H370.325V423.12Z" fill="#F4F7FA"/>
<path d="M483.153 419.564V313.528H373.883V419.564H483.153Z" fill="#D8DEE8"/>
<path d="M375.431 417.422H427.73V315.668H375.431V417.422Z" fill="#D8DEE8"/>
<path d="M429.308 417.422H481.607V315.668H429.308V417.422Z" fill="#D8DEE8"/>
<g style="mix-blend-mode:multiply" opacity="0.3">
<path d="M429.308 353.558H481.607V344.664H429.308V353.558Z" fill="#D8DEE8"/>
</g>
<g style="mix-blend-mode:multiply" opacity="0.3">
<path d="M429.308 388.425H481.607V379.529H429.308V388.425Z" fill="#D8DEE8"/>
</g>
<g style="mix-blend-mode:multiply" opacity="0.3">
<path d="M375.431 353.558H427.73V344.664H375.431V353.558Z" fill="#D8DEE8"/>
</g>
<g style="mix-blend-mode:multiply" opacity="0.3">
<path d="M375.431 388.425H427.73V379.529H375.431V388.425Z" fill="#D8DEE8"/>
</g>
<path d="M455.518 419.019H458.267V312.997H455.518V419.019Z" fill="#D8DEE8"/>
<path d="M458.267 419.019V312.996H456.893L458.267 419.019Z" fill="#97A6B7"/>
<path d="M454.475 316.198H459.308V310.624H454.475V316.198Z" fill="#D8DEE8"/>
<path d="M454.475 421.807H459.308V416.232H454.475V421.807Z" fill="#D8DEE8"/>
<path d="M417.687 419.019H420.436V312.997H417.687V419.019Z" fill="#D8DEE8"/>
<path d="M420.436 419.019V312.996H419.06L420.436 419.019Z" fill="#97A6B7"/>
<path d="M416.644 316.198H421.477V310.624H416.644V316.198Z" fill="#D8DEE8"/>
<path d="M416.644 421.807H421.477V416.232H416.644V421.807Z" fill="#D8DEE8"/>
<path d="M398.769 419.019H401.518V312.997H398.769V419.019Z" fill="#D8DEE8"/>
<path d="M401.52 419.019V312.996H400.144L401.52 419.019Z" fill="#97A6B7"/>
<path d="M397.726 316.198H402.56V310.624H397.726V316.198Z" fill="#D8DEE8"/>
<path d="M397.726 421.807H402.56V416.232H397.726V421.807Z" fill="#D8DEE8"/>
<path d="M436.6 419.019H439.351V312.997H436.6V419.019Z" fill="#D8DEE8"/>
<path d="M439.351 419.019V312.996H437.977L439.351 419.019Z" fill="#97A6B7"/>
<path d="M435.559 316.198H440.393V310.624H435.559V316.198Z" fill="#D8DEE8"/>
<path d="M435.559 421.807H440.393V416.232H435.559V421.807Z" fill="#D8DEE8"/>
<path d="M14.3579 423.12L246.975 423.12V309.967H14.3579V423.12Z" fill="#D8DEE8"/>
<g style="mix-blend-mode:multiply" opacity="0.3">
<path d="M23.998 414.582H237.336V316.742H23.998V414.582Z" fill="#D8DEE8"/>
</g>
<g style="mix-blend-mode:multiply" opacity="0.6">
<path d="M213.842 414.582H223.695V316.742H213.842V414.582Z" fill="#D8DEE8"/>
</g>
<path d="M213.455 414.582H220.023V316.742H213.455V414.582Z" fill="#D8DEE8"/>
<g style="mix-blend-mode:multiply" opacity="0.6">
<path d="M188.724 414.582H198.577V316.742H188.724V414.582Z" fill="#D8DEE8"/>
</g>
<path d="M188.338 414.582H194.907V316.742H188.338V414.582Z" fill="#D8DEE8"/>
<g style="mix-blend-mode:multiply" opacity="0.6">
<path d="M163.608 414.582H173.461V316.742H163.608V414.582Z" fill="#D8DEE8"/>
</g>
<path d="M163.222 414.582H169.791V316.742H163.222V414.582Z" fill="#D8DEE8"/>
<g style="mix-blend-mode:multiply" opacity="0.6">
<path d="M138.491 414.582H148.344V316.742H138.491V414.582Z" fill="#D8DEE8"/>
</g>
<path d="M138.106 414.582H144.675V316.742H138.106V414.582Z" fill="#D8DEE8"/>
<g style="mix-blend-mode:multiply" opacity="0.6">
<path d="M113.375 414.582H123.228L123.228 316.742H113.375L113.375 414.582Z" fill="#D8DEE8"/>
</g>
<path d="M112.988 414.582H119.557L119.557 316.742H112.988L112.988 414.582Z" fill="#D8DEE8"/>
<g style="mix-blend-mode:multiply" opacity="0.6">
<path d="M88.2589 414.582H98.1118L98.1118 316.742H88.2589L88.2589 414.582Z" fill="#D8DEE8"/>
</g>
<path d="M87.8718 414.582H94.4404L94.4404 316.742H87.8718L87.8718 414.582Z" fill="#D8DEE8"/>
<g style="mix-blend-mode:multiply" opacity="0.6">
<path d="M63.1427 414.582H72.9956L72.9956 316.742H63.1427L63.1427 414.582Z" fill="#D8DEE8"/>
</g>
<path d="M62.7556 414.582H69.3242L69.3242 316.742H62.7556L62.7556 414.582Z" fill="#D8DEE8"/>
<g style="mix-blend-mode:multiply" opacity="0.6">
<path d="M38.0265 414.582H47.8794L47.8794 316.742H38.0265L38.0265 414.582Z" fill="#D8DEE8"/>
</g>
<path d="M37.6394 414.582H44.208L44.208 316.742H37.6394L37.6394 414.582Z" fill="#D8DEE8"/>
<path d="M246.975 423.12H363.361V309.967H246.975V423.12Z" fill="white"/>
<path d="M359.803 419.564V313.528H250.533V419.564H359.803Z" fill="#D8DEE8"/>
<path d="M252.08 417.422H304.379V315.668H252.08V417.422Z" fill="#D8DEE8"/>
<path d="M305.958 417.422H358.256V315.668H305.958V417.422Z" fill="#D8DEE8"/>
<g style="mix-blend-mode:multiply" opacity="0.3">
<path d="M305.958 353.558H358.256V344.664H305.958V353.558Z" fill="#D8DEE8"/>
</g>
<g style="mix-blend-mode:multiply" opacity="0.3">
<path d="M305.958 388.425H358.256V379.529H305.958V388.425Z" fill="#D8DEE8"/>
</g>
<g style="mix-blend-mode:multiply" opacity="0.3">
<path d="M252.08 353.558H304.379V344.664H252.08V353.558Z" fill="#D8DEE8"/>
</g>
<g style="mix-blend-mode:multiply" opacity="0.3">
<path d="M252.08 388.425H304.379V379.529H252.08V388.425Z" fill="#D8DEE8"/>
</g>
<path d="M332.169 419.019H334.918V312.997H332.169V419.019Z" fill="#D8DEE8"/>
<path d="M334.916 419.019V312.996H333.542L334.916 419.019Z" fill="#97A6B7"/>
<path d="M331.126 316.198H335.959V310.624H331.126V316.198Z" fill="#D8DEE8"/>
<path d="M331.126 421.807H335.959V416.232H331.126V421.807Z" fill="#D8DEE8"/>
<path d="M294.336 419.019H297.085V312.997H294.336V419.019Z" fill="#D8DEE8"/>
<path d="M297.085 419.019V312.996H295.711L297.085 419.019Z" fill="#97A6B7"/>
<path d="M293.293 316.198H298.126V310.624H293.293V316.198Z" fill="#D8DEE8"/>
<path d="M293.293 421.807H298.126V416.232H293.293V421.807Z" fill="#D8DEE8"/>
<path d="M275.421 419.019H278.169V312.997H275.421V419.019Z" fill="#D8DEE8"/>
<path d="M278.169 419.019V312.996H276.793L278.169 419.019Z" fill="#97A6B7"/>
<path d="M274.378 316.198H279.211V310.624H274.378V316.198Z" fill="#D8DEE8"/>
<path d="M274.378 421.807H279.211V416.232H274.378V421.807Z" fill="#D8DEE8"/>
<path d="M313.25 419.019H316.001V312.997H313.25V419.019Z" fill="#D8DEE8"/>
<path d="M316 419.019V312.996H314.626L316 419.019Z" fill="#97A6B7"/>
<path d="M312.209 316.198H317.042V310.624H312.209V316.198Z" fill="#D8DEE8"/>
<path d="M312.209 421.807H317.042V416.232H312.209V421.807Z" fill="#D8DEE8"/>
<path d="M52.9377 310.625L285.554 310.625V197.473L52.9377 197.473V310.625Z" fill="#D8DEE8"/>
<g style="mix-blend-mode:multiply" opacity="0.3">
<path d="M62.5741 302.086H275.914V204.246L62.5741 204.246V302.086Z" fill="#D8DEE8"/>
</g>
<g style="mix-blend-mode:multiply" opacity="0.6">
<path d="M252.42 302.086H262.273V204.246H252.42V302.086Z" fill="#D8DEE8"/>
</g>
<path d="M252.033 302.086H258.602V204.246H252.033V302.086Z" fill="#D8DEE8"/>
<g style="mix-blend-mode:multiply" opacity="0.6">
<path d="M227.304 302.086H237.157V204.246H227.304V302.086Z" fill="#D8DEE8"/>
</g>
<path d="M226.917 302.086H233.485V204.246H226.917V302.086Z" fill="#D8DEE8"/>
<g style="mix-blend-mode:multiply" opacity="0.6">
<path d="M202.187 302.086H212.041V204.246H202.187V302.086Z" fill="#D8DEE8"/>
</g>
<path d="M201.801 302.086H208.369V204.246H201.801V302.086Z" fill="#D8DEE8"/>
<g style="mix-blend-mode:multiply" opacity="0.6">
<path d="M177.071 302.086H186.924V204.246H177.071V302.086Z" fill="#D8DEE8"/>
</g>
<path d="M176.684 302.086H183.253V204.246H176.684V302.086Z" fill="#D8DEE8"/>
<g style="mix-blend-mode:multiply" opacity="0.6">
<path d="M151.953 302.086H161.806V204.246H151.953V302.086Z" fill="#D8DEE8"/>
</g>
<path d="M151.568 302.086H158.136V204.246H151.568V302.086Z" fill="#D8DEE8"/>
<g style="mix-blend-mode:multiply" opacity="0.6">
<path d="M126.837 302.086H136.69V204.246H126.837L126.837 302.086Z" fill="#D8DEE8"/>
</g>
<path d="M126.452 302.086H133.02V204.246H126.452L126.452 302.086Z" fill="#D8DEE8"/>
<g style="mix-blend-mode:multiply" opacity="0.6">
<path d="M101.721 302.086H111.574L111.574 204.246H101.721L101.721 302.086Z" fill="#D8DEE8"/>
</g>
<path d="M101.335 302.086H107.904L107.904 204.246H101.335L101.335 302.086Z" fill="#D8DEE8"/>
<g style="mix-blend-mode:multiply" opacity="0.6">
<path d="M76.6046 302.086H86.4575L86.4575 204.246H76.6046L76.6046 302.086Z" fill="#D8DEE8"/>
</g>
<path d="M76.219 302.086H82.7876L82.7876 204.246H76.219L76.219 302.086Z" fill="#D8DEE8"/>
<path d="M285.554 310.625H401.939V197.473H285.554V310.625Z" fill="white"/>
<g style="mix-blend-mode:multiply" opacity="0.3">
<path d="M398.382 307.065V201.029H289.113V307.065H398.382Z" fill="#D8DEE8"/>
</g>
<path d="M290.66 304.925H342.959V203.171H290.66V304.925Z" fill="white"/>
<path d="M344.535 304.925H396.835V203.171H344.535V304.925Z" fill="white"/>
<g style="mix-blend-mode:multiply" opacity="0.3">
<path d="M344.535 241.064H396.835V232.168H344.535V241.064Z" fill="#D8DEE8"/>
</g>
<g style="mix-blend-mode:multiply" opacity="0.3">
<path d="M344.535 275.93H396.835V267.035H344.535V275.93Z" fill="#D8DEE8"/>
</g>
<g style="mix-blend-mode:multiply" opacity="0.3">
<path d="M290.66 241.064H342.959V232.168H290.66V241.064Z" fill="#D8DEE8"/>
</g>
<g style="mix-blend-mode:multiply" opacity="0.3">
<path d="M290.66 275.93H342.959V267.035H290.66V275.93Z" fill="#D8DEE8"/>
</g>
<path d="M370.745 306.523H373.494V200.499H370.745V306.523Z" fill="#D8DEE8"/>
<path d="M373.496 306.523V200.501H372.12L373.496 306.523Z" fill="#97A6B7"/>
<path d="M369.702 203.703H374.536V198.129H369.702V203.703Z" fill="#D8DEE8"/>
<path d="M369.702 309.31H374.536V303.736H369.702V309.31Z" fill="#D8DEE8"/>
<path d="M332.915 306.523H335.665V200.499H332.915V306.523Z" fill="#D8DEE8"/>
<path d="M335.663 306.523V200.501H334.289L335.663 306.523Z" fill="#97A6B7"/>
<path d="M331.873 203.703H336.706V198.129H331.873V203.703Z" fill="#D8DEE8"/>
<path d="M331.873 309.31H336.706V303.736H331.873V309.31Z" fill="#D8DEE8"/>
<path d="M313.999 306.523H316.747V200.499H313.999V306.523Z" fill="#D8DEE8"/>
<path d="M316.747 306.523V200.501H315.373L316.747 306.523Z" fill="#97A6B7"/>
<path d="M312.955 203.703H317.789V198.129H312.955V203.703Z" fill="#D8DEE8"/>
<path d="M312.955 309.31H317.789V303.736H312.955V309.31Z" fill="#D8DEE8"/>
<path d="M351.83 306.523H354.578V200.499H351.83V306.523Z" fill="#D8DEE8"/>
<path d="M354.578 306.523V200.501H353.204L354.578 306.523Z" fill="#97A6B7"/>
<path d="M350.787 203.703H355.62V198.129H350.787V203.703Z" fill="#D8DEE8"/>
<path d="M350.787 309.31H355.62V303.736H350.787V309.31Z" fill="#D8DEE8"/>
<path d="M418.683 403.296L389.515 399.73V356.714L418.683 351.188V403.296Z" fill="url(#paint15_linear_125_4911)"/>
<path d="M454.259 401.03L418.683 403.296V351.188L454.259 356.1V401.03Z" fill="url(#paint16_linear_125_4911)"/>
<g style="mix-blend-mode:soft-light">
<path d="M432.092 353.04V360.345L443.937 361.453V354.675L432.092 353.04Z" fill="white"/>
</g>
<path d="M461.257 460.186L413.443 463.548V393.519L461.257 396.882V460.186Z" fill="url(#paint17_linear_125_4911)"/>
<path d="M413.443 463.548L374.243 458.755V397.99L413.443 393.519V463.548Z" fill="url(#paint18_linear_125_4911)"/>
<g style="mix-blend-mode:soft-light">
<path d="M430.369 394.709V405.659L446.389 406.472V395.836L430.369 394.709Z" fill="white"/>
</g>
<path d="M455.354 465.95L428.97 462.723V420.673L455.354 418.814V465.95Z" fill="url(#paint19_linear_125_4911)"/>
<path d="M487.536 463.775L455.354 465.95V418.814L487.536 420.664V463.775Z" fill="url(#paint20_linear_125_4911)"/>
<g style="mix-blend-mode:soft-light">
<path d="M467.043 419.485V439.13L477.803 439.486V420.104L467.043 419.485Z" fill="white"/>
</g>
<path d="M19.6323 413.564V432.732C19.6322 433.593 19.9516 434.424 20.5288 435.063C21.1059 435.702 21.8996 436.104 22.7562 436.191L219.012 454.787L245.429 472.269L281.907 423.746L19.6323 413.564Z" fill="url(#paint21_linear_125_4911)"/>
<path d="M170.063 439.909V457.065C170.063 457.761 170.311 458.435 170.763 458.965C171.214 459.495 171.84 459.847 172.528 459.957L219.643 467.527L218.274 439.869L173.178 436.986C172.779 436.961 172.378 437.017 172.001 437.153C171.624 437.288 171.279 437.499 170.988 437.773C170.696 438.047 170.463 438.378 170.304 438.746C170.145 439.113 170.063 439.509 170.063 439.909Z" fill="url(#paint22_linear_125_4911)"/>
<path d="M39.5144 422.408C39.3553 422.409 39.1963 422.419 39.0382 422.438L36.5476 422.408L36.5615 423.504C34.1476 425.391 32.4731 429.519 32.4731 434.318C32.4731 439.297 34.2836 443.562 36.851 445.336L36.8633 446.218H39.5144C43.4022 446.218 46.5539 440.89 46.5539 434.318C46.5539 427.745 43.4022 422.408 39.5144 422.408Z" fill="url(#paint23_linear_125_4911)"/>
<path d="M36.5476 446.211C40.4364 446.211 43.5889 440.882 43.5889 434.309C43.5889 427.735 40.4364 422.407 36.5476 422.407C32.6588 422.407 29.5063 427.735 29.5063 434.309C29.5063 440.882 32.6588 446.211 36.5476 446.211Z" fill="url(#paint24_linear_125_4911)"/>
<path d="M35.5583 440.996C37.7431 440.996 39.5142 438.002 39.5142 434.309C39.5142 430.616 37.7431 427.622 35.5583 427.622C33.3736 427.622 31.6025 430.616 31.6025 434.309C31.6025 438.002 33.3736 440.996 35.5583 440.996Z" fill="#D8DEE8"/>
<path d="M36.1569 440.516C38.0112 440.516 39.5144 437.737 39.5144 434.309C39.5144 430.881 38.0112 428.101 36.1569 428.101C34.3025 428.101 32.7993 430.881 32.7993 434.309C32.7993 437.737 34.3025 440.516 36.1569 440.516Z" fill="url(#paint25_linear_125_4911)"/>
<path d="M56.1521 423.746C55.9772 423.747 55.8025 423.758 55.6289 423.779L52.8992 423.746L52.9149 424.948C50.2707 427.016 48.4341 431.537 48.4341 436.787C48.4341 442.243 50.4172 446.914 53.2324 448.861L53.2446 449.827H56.1487C60.4097 449.827 63.8632 443.989 63.8632 436.787C63.8632 429.586 60.4062 423.746 56.1521 423.746Z" fill="url(#paint26_linear_125_4911)"/>
<path d="M52.903 449.827C57.1636 449.827 60.6175 443.989 60.6175 436.787C60.6175 429.586 57.1636 423.748 52.903 423.748C48.6424 423.748 45.1885 429.586 45.1885 436.787C45.1885 443.989 48.6424 449.827 52.903 449.827Z" fill="url(#paint27_linear_125_4911)"/>
<path d="M51.8197 444.113C54.2135 444.113 56.154 440.833 56.154 436.787C56.154 432.742 54.2135 429.462 51.8197 429.462C49.4259 429.462 47.4854 432.742 47.4854 436.787C47.4854 440.833 49.4259 444.113 51.8197 444.113Z" fill="#D8DEE8"/>
<path d="M52.4754 443.59C54.5069 443.59 56.1539 440.544 56.1539 436.787C56.1539 433.031 54.5069 429.985 52.4754 429.985C50.4438 429.985 48.7969 433.031 48.7969 436.787C48.7969 440.544 50.4438 443.59 52.4754 443.59Z" fill="url(#paint28_linear_125_4911)"/>
<path d="M73.9133 423.746C73.7239 423.748 73.5346 423.76 73.3465 423.783L70.3657 423.746L70.3831 425.059C67.4948 427.316 65.4907 432.254 65.4907 437.986C65.4907 443.942 67.6552 449.044 70.7232 451.166L70.7372 452.223H73.9081C78.5598 452.223 82.3307 445.848 82.3307 437.986C82.3307 430.123 78.5651 423.746 73.9133 423.746Z" fill="url(#paint29_linear_125_4911)"/>
<path d="M70.3655 452.222C75.0172 452.222 78.7881 445.847 78.7881 437.984C78.7881 430.121 75.0172 423.746 70.3655 423.746C65.7138 423.746 61.9429 430.121 61.9429 437.984C61.9429 445.847 65.7138 452.222 70.3655 452.222Z" fill="url(#paint30_linear_125_4911)"/>
<path d="M69.1812 445.983C71.7945 445.983 73.9131 442.402 73.9131 437.984C73.9131 433.566 71.7945 429.985 69.1812 429.985C66.5678 429.985 64.4492 433.566 64.4492 437.984C64.4492 442.402 66.5678 445.983 69.1812 445.983Z" fill="#D8DEE8"/>
<path d="M69.8982 445.411C72.1167 445.411 73.9151 442.086 73.9151 437.984C73.9151 433.882 72.1167 430.557 69.8982 430.557C67.6798 430.557 65.8813 433.882 65.8813 437.984C65.8813 442.086 67.6798 445.411 69.8982 445.411Z" fill="url(#paint31_linear_125_4911)"/>
<path d="M155.813 431.173C155.571 431.175 155.33 431.19 155.089 431.218L151.284 431.173L151.306 432.847C147.621 435.73 145.062 442.032 145.062 449.351C145.062 456.955 147.825 463.466 151.748 466.179L151.765 467.527H155.813C161.744 467.527 166.566 459.389 166.566 449.351C166.566 439.313 161.744 431.173 155.813 431.173Z" fill="url(#paint32_linear_125_4911)"/>
<path d="M151.276 467.525C157.215 467.525 162.029 459.387 162.029 449.349C162.029 439.311 157.215 431.173 151.276 431.173C145.338 431.173 140.523 439.311 140.523 449.349C140.523 459.387 145.338 467.525 151.276 467.525Z" fill="url(#paint33_linear_125_4911)"/>
<path d="M149.764 459.561C153.101 459.561 155.806 454.989 155.806 449.349C155.806 443.709 153.101 439.137 149.764 439.137C146.428 439.137 143.723 443.709 143.723 449.349C143.723 454.989 146.428 459.561 149.764 459.561Z" fill="#D8DEE8"/>
<path d="M150.678 458.83C153.51 458.83 155.805 454.585 155.805 449.349C155.805 444.113 153.51 439.868 150.678 439.868C147.847 439.868 145.552 444.113 145.552 449.349C145.552 454.585 147.847 458.83 150.678 458.83Z" fill="url(#paint34_linear_125_4911)"/>
<path d="M227.361 434.047C227.051 434.049 226.742 434.068 226.435 434.105L221.574 434.047L221.602 436.186C216.893 439.869 213.624 447.92 213.624 457.268C213.624 466.984 217.156 475.302 222.17 478.766L222.193 480.49H227.365C234.952 480.49 241.102 470.093 241.102 457.268C241.102 444.443 234.948 434.047 227.361 434.047Z" fill="url(#paint35_linear_125_4911)"/>
<path d="M221.574 480.49C229.161 480.49 235.311 470.093 235.311 457.268C235.311 444.442 229.161 434.046 221.574 434.046C213.987 434.046 207.837 444.442 207.837 457.268C207.837 470.093 213.987 480.49 221.574 480.49Z" fill="url(#paint36_linear_125_4911)"/>
<path d="M219.645 470.314C223.908 470.314 227.363 464.473 227.363 457.268C227.363 450.062 223.908 444.221 219.645 444.221C215.383 444.221 211.927 450.062 211.927 457.268C211.927 464.473 215.383 470.314 219.645 470.314Z" fill="#D8DEE8"/>
<path d="M220.812 469.379C224.429 469.379 227.362 463.957 227.362 457.268C227.362 450.579 224.429 445.156 220.812 445.156C217.195 445.156 214.263 450.579 214.263 457.268C214.263 463.957 217.195 469.379 220.812 469.379Z" fill="url(#paint37_linear_125_4911)"/>
<path d="M7.9568 311.532C6.71312 311.739 5.58311 312.38 4.76776 313.342C3.95241 314.303 3.50458 315.523 3.50391 316.784V413.952C3.504 415.314 4.02526 416.624 4.96069 417.613C5.89612 418.602 7.17476 419.196 8.53413 419.272L191.166 429.458V281.07L7.9568 311.532Z" fill="url(#paint38_linear_125_4911)"/>
<path d="M294.155 284.536L191.166 281.07V429.458H299.693V290.262C299.693 288.775 299.115 287.347 298.082 286.279C297.049 285.21 295.641 284.585 294.155 284.536Z" fill="url(#paint39_linear_125_4911)"/>
<path d="M152.577 392.161C129.125 381.359 107.11 397.847 85.6532 381.91C66.8613 367.957 72.9206 347.272 57.9207 322.824C54.4864 317.225 49.8852 311.349 43.5992 305.606L7.96029 311.536C6.71656 311.742 5.5862 312.382 4.77022 313.343C3.95424 314.304 3.50554 315.523 3.50391 316.784V413.953C3.504 415.314 4.02526 416.624 4.96069 417.613C5.89613 418.602 7.17476 419.196 8.53413 419.272L181.744 428.935C173.795 407.19 162.995 396.959 152.577 392.161Z" fill="url(#paint40_linear_125_4911)"/>
<path d="M354.559 382.514L346.948 363.371L346.721 347.543L354.411 346.006C354.587 345.971 354.755 345.901 354.904 345.799C355.052 345.697 355.178 345.566 355.275 345.414C355.371 345.262 355.436 345.092 355.464 344.915C355.493 344.737 355.485 344.555 355.442 344.381C354.28 339.715 350.024 324.298 343.407 319.205C338.741 315.617 250.253 314.543 250.253 314.543L207.662 317.307C206.051 317.412 204.539 318.126 203.435 319.304C202.33 320.483 201.716 322.038 201.716 323.653V418.025C201.716 419.22 202.164 420.371 202.971 421.251C203.779 422.131 204.887 422.677 206.077 422.78L235.311 425.316L241.098 431.168C241.098 431.168 323.959 437.796 357.025 431.773C357.856 431.626 358.608 431.191 359.15 430.545C359.692 429.899 359.99 429.083 359.991 428.239V386.728C359.985 380.705 354.559 382.514 354.559 382.514Z" fill="#F4F7FA"/>
<path style="mix-blend-mode:multiply" opacity="0.8" d="M264.723 388.241C264.723 388.241 263.818 347.243 264.723 330.361C265.161 322.163 261.061 317.393 256.719 314.637C252.673 314.572 250.252 314.543 250.252 314.543L207.662 317.307C206.051 317.412 204.539 318.126 203.435 319.304C202.33 320.483 201.716 322.038 201.716 323.653V418.025C201.716 419.22 202.164 420.371 202.971 421.251C203.779 422.131 204.887 422.677 206.077 422.78L235.311 425.316L241.098 431.168C241.098 431.168 254.741 432.261 273.164 433.156V398.185L264.723 388.241Z" fill="url(#paint41_linear_125_4911)"/>
<path d="M359.042 439.132L355.764 437.986V431.344C355.764 430.918 355.681 430.496 355.518 430.103C355.355 429.71 355.117 429.352 354.816 429.051C354.515 428.75 354.157 428.511 353.764 428.348C353.371 428.185 352.949 428.101 352.524 428.101H249.912C248.723 428.101 247.583 428.574 246.742 429.414C245.901 430.255 245.429 431.395 245.429 432.584V472.271C245.43 472.788 245.535 473.3 245.739 473.775C245.942 474.251 246.239 474.681 246.612 475.039C246.985 475.397 247.426 475.676 247.91 475.86C248.393 476.044 248.908 476.128 249.425 476.108L359.3 471.882C360.294 471.844 361.235 471.422 361.926 470.705C362.616 469.988 363.001 469.031 363.001 468.036V444.711C363 443.486 362.619 442.29 361.91 441.291C361.201 440.291 360.198 439.537 359.042 439.132Z" fill="#97A6B7"/>
<path d="M346.54 405.04H285.696C285.211 405.04 284.731 405.14 284.287 405.333C283.842 405.526 283.442 405.809 283.112 406.163C282.781 406.518 282.528 406.937 282.366 407.394C282.204 407.851 282.138 408.336 282.172 408.819L285.523 456.589C285.604 457.743 286.13 458.821 286.99 459.595C287.85 460.37 288.976 460.781 290.133 460.742L342.406 458.971C343.508 458.933 344.558 458.49 345.352 457.725C346.147 456.96 346.632 455.929 346.712 454.829L350.063 408.83C350.098 408.346 350.033 407.859 349.872 407.401C349.711 406.943 349.457 406.523 349.127 406.167C348.796 405.812 348.396 405.528 347.951 405.334C347.505 405.14 347.025 405.04 346.54 405.04Z" fill="url(#paint42_linear_125_4911)"/>
<g style="mix-blend-mode:multiply" opacity="0.3">
<g style="mix-blend-mode:multiply" opacity="0.3">
<path d="M359.042 439.132L355.764 437.986V431.344C355.764 430.672 355.555 430.017 355.166 429.469C354.777 428.921 354.227 428.508 353.593 428.286L347.349 457.646C346.987 459.346 346.07 460.877 344.741 461.996C343.412 463.116 341.747 463.76 340.011 463.827L292.056 465.692C290.382 465.757 288.731 465.281 287.348 464.336C285.964 463.391 284.921 462.027 284.372 460.444L273.163 428.101H249.912C248.723 428.101 247.583 428.574 246.742 429.414C245.901 430.255 245.429 431.395 245.429 432.584V472.269C245.429 472.787 245.533 473.3 245.736 473.776C245.939 474.253 246.236 474.684 246.609 475.043C246.982 475.402 247.424 475.682 247.908 475.866C248.391 476.051 248.908 476.135 249.425 476.115L359.3 471.889C360.294 471.851 361.235 471.429 361.926 470.712C362.616 469.995 363.001 469.038 363.001 468.043V444.711C363 443.486 362.619 442.29 361.91 441.291C361.201 440.291 360.198 439.537 359.042 439.132Z" fill="#97A6B7"/>
</g>
</g>
<path d="M278.288 463.004L266.879 463.575C263.473 463.746 260.133 462.586 257.566 460.34C254.999 458.094 253.406 454.939 253.123 451.54L252.664 445.993H275.513C276.251 445.993 276.96 446.286 277.483 446.807C278.006 447.329 278.301 448.036 278.303 448.775L278.288 463.004Z" fill="url(#paint43_linear_125_4911)"/>
<path d="M351.894 448.332L350.072 460.74C350.072 460.74 362.107 460.318 361.8 445.156L354.336 445.977C353.726 446.044 353.155 446.312 352.713 446.738C352.271 447.164 351.983 447.725 351.894 448.332Z" fill="url(#paint44_linear_125_4911)"/>
<path d="M267.333 388.501C265.531 388.498 263.776 387.925 262.32 386.863L257.627 383.426C256.764 382.794 256.062 381.968 255.578 381.015C255.093 380.063 254.839 379.009 254.836 377.94V350.611C254.836 349.995 254.971 349.387 255.231 348.829C255.491 348.271 255.87 347.776 256.341 347.38C256.812 346.983 257.364 346.694 257.958 346.533C258.552 346.372 259.174 346.343 259.781 346.447L264.38 347.241H346.96L354.867 382.515L353.977 386.966H353.729L267.474 388.499L267.333 388.501ZM259.069 347.002C258.112 347.002 257.195 347.383 256.518 348.059C255.841 348.736 255.461 349.654 255.46 350.611V377.94C255.462 378.912 255.692 379.869 256.132 380.736C256.571 381.602 257.208 382.353 257.991 382.928L262.685 386.366C264.075 387.375 265.755 387.907 267.473 387.884L353.478 386.356L354.247 382.519L346.477 347.853H264.335L259.683 347.056C259.48 347.021 259.275 347.003 259.069 347.002Z" fill="#808080"/>
<path d="M346.721 347.543H264.334L259.733 346.751C259.171 346.654 258.594 346.681 258.043 346.83C257.492 346.979 256.981 347.247 256.544 347.615C256.108 347.982 255.757 348.441 255.516 348.959C255.276 349.476 255.151 350.04 255.151 350.611V377.94C255.152 378.959 255.393 379.964 255.854 380.873C256.315 381.782 256.984 382.57 257.806 383.173L262.501 386.61C263.944 387.663 265.691 388.214 267.476 388.18L353.731 386.645L354.559 382.501L346.721 347.543Z" fill="url(#paint45_linear_125_4911)"/>
<path d="M295.51 338.047H288.502C287.44 338.047 286.58 338.908 286.58 339.969V342.908C286.58 343.97 287.44 344.831 288.502 344.831H295.51C296.571 344.831 297.432 343.97 297.432 342.908V339.969C297.432 338.908 296.571 338.047 295.51 338.047Z" fill="#97A6B7"/>
<path d="M336.661 338.047H329.653C328.591 338.047 327.73 338.908 327.73 339.969V342.908C327.73 343.97 328.591 344.831 329.653 344.831H336.661C337.722 344.831 338.583 343.97 338.583 342.908V339.969C338.583 338.908 337.722 338.047 336.661 338.047Z" fill="#97A6B7"/>
<g style="mix-blend-mode:overlay" opacity="0.3">
<path d="M320.946 366.989C299.686 358.857 279.689 368.991 270.526 357.943C268.048 354.957 267.048 351.24 266.816 347.543H264.334L259.735 346.751C259.173 346.654 258.596 346.681 258.045 346.83C257.494 346.979 256.982 347.247 256.545 347.615C256.109 347.982 255.758 348.441 255.517 348.958C255.276 349.476 255.151 350.04 255.151 350.611V377.94C255.152 378.96 255.392 379.965 255.854 380.874C256.316 381.783 256.985 382.571 257.808 383.173L262.501 386.611C263.944 387.663 265.691 388.214 267.476 388.181L345.615 386.785C336.777 374.899 327.807 369.612 320.946 366.989Z" fill="white"/>
</g>
<path d="M21.1622 381.762L9.56689 381.45V346.958L21.1622 345.779V352.03L13.7215 352.622V360.314L20.632 359.965V366.205L13.7215 366.404V375.437L21.1622 375.471V381.762Z" fill="white"/>
<path d="M45.1584 382.407L39.2788 382.248L33.8422 367.873L28.6009 381.961L23.6597 381.828L30.9364 362.816L24.1149 345.474L29.2219 344.951L34.0934 358.001L39.0346 343.953L44.5672 343.39L37.0166 363.019L45.1584 382.407Z" fill="white"/>
<path d="M67.8241 354.125C67.8241 358.644 66.8706 362.128 64.9637 364.578C63.0852 366.994 60.4497 368.222 57.0974 368.284L54.6835 368.33V382.664L49.1963 382.515V342.922L57.5369 342.074C60.8247 341.739 63.3695 342.563 65.1363 344.563C66.9032 346.564 67.8241 349.779 67.8241 354.125ZM54.6835 361.329L56.5323 361.252C58.2765 361.18 59.6003 360.6 60.4811 359.508C61.3619 358.416 61.8137 356.837 61.8137 354.809C61.8137 352.78 61.4404 351.273 60.6974 350.352C59.9544 349.431 58.8015 349.042 57.2439 349.166L54.6835 349.369V361.329Z" fill="white"/>
<path d="M103.739 360.617C103.739 368.332 102.298 374.262 99.4533 378.357C96.6504 382.388 92.7103 384.307 87.708 384.162C82.8452 384.024 79.2033 381.987 76.7092 378.094C74.2499 374.257 73.0342 368.811 73.0342 361.711C73.0342 354.61 74.2551 349.097 76.7196 345.124C79.2208 341.093 82.8731 338.806 87.7516 338.3C92.7696 337.777 96.708 339.394 99.4882 343.196C102.31 347.058 103.739 352.889 103.739 360.617ZM79.7284 361.519C79.7284 366.379 80.3836 370.038 81.694 372.493C83.0161 374.97 85.008 376.224 87.708 376.24C93.2388 376.273 96.0801 371.161 96.0801 360.905C96.0801 350.649 93.2615 345.717 87.7586 346.163C85.0638 346.381 83.0597 347.79 81.722 350.381C80.3842 352.971 79.7284 356.656 79.7284 361.519Z" fill="white"/>
<path d="M120.486 365.724V384.435L112.48 384.221V336.493L123.572 335.367C128.979 334.817 133.069 335.646 135.772 337.89C138.513 340.158 139.897 343.897 139.897 349.062C139.897 352.077 139.211 354.788 137.839 357.197C136.488 359.571 134.511 361.529 132.124 362.856C138.387 374.155 142.578 381.648 144.558 385.091L134.548 384.821L124.889 365.635L120.486 365.724ZM120.486 357.319L123.143 357.2C125.782 357.083 127.754 356.44 129.038 355.266C130.322 354.092 130.978 352.292 130.978 349.894C130.978 347.496 130.315 345.882 128.996 344.97C127.678 344.058 125.682 343.733 122.982 343.946L120.486 344.145V357.319Z" fill="white"/>
<path d="M169.901 385.766L159.701 385.493V341.18L147.328 342.157V332.942L183.72 329.243V339.284L169.908 340.376L169.901 385.766Z" fill="white"/>
</g>
<defs>
<linearGradient id="paint0_linear_125_4911" x1="415.148" y1="125.46" x2="384.361" y2="426.95" gradientUnits="userSpaceOnUse">
<stop stop-color="#AA80F9"/>
<stop offset="1" stop-color="#6165D7"/>
</linearGradient>
<linearGradient id="paint1_linear_125_4911" x1="461" y1="166.643" x2="314.745" y2="166.643" gradientUnits="userSpaceOnUse">
<stop stop-color="#FF9085"/>
<stop offset="1" stop-color="#FB6FBB"/>
</linearGradient>
<linearGradient id="paint2_linear_125_4911" x1="20.9526" y1="193.21" x2="384.284" y2="193.21" gradientUnits="userSpaceOnUse">
<stop stop-color="#444B8C"/>
<stop offset="1" stop-color="#26264F"/>
</linearGradient>
<linearGradient id="paint3_linear_125_4911" x1="102.818" y1="123.096" x2="129.124" y2="123.096" gradientUnits="userSpaceOnUse">
<stop stop-color="#311944"/>
<stop offset="1" stop-color="#6B3976"/>
</linearGradient>
<linearGradient id="paint4_linear_125_4911" x1="14794.1" y1="16367.8" x2="15926.9" y2="16367.8" gradientUnits="userSpaceOnUse">
<stop stop-color="#311944"/>
<stop offset="1" stop-color="#6B3976"/>
</linearGradient>
<linearGradient id="paint5_linear_125_4911" x1="32526.9" y1="60141.9" x2="36321.2" y2="60141.9" gradientUnits="userSpaceOnUse">
<stop stop-color="#311944"/>
<stop offset="1" stop-color="#6B3976"/>
</linearGradient>
<linearGradient id="paint6_linear_125_4911" x1="17907.2" y1="23153.4" x2="18990.8" y2="23153.4" gradientUnits="userSpaceOnUse">
<stop stop-color="#311944"/>
<stop offset="1" stop-color="#6B3976"/>
</linearGradient>
<linearGradient id="paint7_linear_125_4911" x1="49720.6" y1="57311" x2="52985.1" y2="57311" gradientUnits="userSpaceOnUse">
<stop stop-color="#311944"/>
<stop offset="1" stop-color="#6B3976"/>
</linearGradient>
<linearGradient id="paint8_linear_125_4911" x1="27098" y1="22068.7" x2="28030.3" y2="22068.7" gradientUnits="userSpaceOnUse">
<stop stop-color="#311944"/>
<stop offset="1" stop-color="#6B3976"/>
</linearGradient>
<linearGradient id="paint9_linear_125_4911" x1="45091.1" y1="47777" x2="48502.2" y2="47777" gradientUnits="userSpaceOnUse">
<stop stop-color="#311944"/>
<stop offset="1" stop-color="#6B3976"/>
</linearGradient>
<linearGradient id="paint10_linear_125_4911" x1="24619" y1="18319.6" x2="25593" y2="18319.6" gradientUnits="userSpaceOnUse">
<stop stop-color="#311944"/>
<stop offset="1" stop-color="#6B3976"/>
</linearGradient>
<linearGradient id="paint11_linear_125_4911" x1="26876.7" y1="42900.5" x2="30844.4" y2="42900.5" gradientUnits="userSpaceOnUse">
<stop stop-color="#FF9085"/>
<stop offset="1" stop-color="#FB6FBB"/>
</linearGradient>
<linearGradient id="paint12_linear_125_4911" x1="32696.1" y1="60141.9" x2="36490.5" y2="60141.9" gradientUnits="userSpaceOnUse">
<stop stop-color="#FF9085"/>
<stop offset="1" stop-color="#FB6FBB"/>
</linearGradient>
<linearGradient id="paint13_linear_125_4911" x1="49876.8" y1="57311" x2="53141.1" y2="57311" gradientUnits="userSpaceOnUse">
<stop stop-color="#FF9085"/>
<stop offset="1" stop-color="#FB6FBB"/>
</linearGradient>
<linearGradient id="paint14_linear_125_4911" x1="45253.4" y1="47777" x2="48664.7" y2="47777" gradientUnits="userSpaceOnUse">
<stop stop-color="#FF9085"/>
<stop offset="1" stop-color="#FB6FBB"/>
</linearGradient>
<linearGradient id="paint15_linear_125_4911" x1="419.045" y1="354.762" x2="387.034" y2="408.823" gradientUnits="userSpaceOnUse">
<stop stop-color="#FFC444"/>
<stop offset="0.31" stop-color="#FBA94A"/>
<stop offset="1" stop-color="#F36F56"/>
</linearGradient>
<linearGradient id="paint16_linear_125_4911" x1="214395" y1="129175" x2="203196" y2="142088" gradientUnits="userSpaceOnUse">
<stop stop-color="#FFC444"/>
<stop offset="0.31" stop-color="#FBA94A"/>
<stop offset="1" stop-color="#F36F56"/>
</linearGradient>
<linearGradient id="paint17_linear_125_4911" x1="289702" y1="190264" x2="268761" y2="214411" gradientUnits="userSpaceOnUse">
<stop stop-color="#FFC444"/>
<stop offset="0.31" stop-color="#FBA94A"/>
<stop offset="1" stop-color="#F36F56"/>
</linearGradient>
<linearGradient id="paint18_linear_125_4911" x1="228273" y1="190332" x2="208604" y2="208926" gradientUnits="userSpaceOnUse">
<stop stop-color="#FFC444"/>
<stop offset="0.31" stop-color="#FBA94A"/>
<stop offset="1" stop-color="#F36F56"/>
</linearGradient>
<linearGradient id="paint19_linear_125_4911" x1="160127" y1="134672" x2="151216" y2="143095" gradientUnits="userSpaceOnUse">
<stop stop-color="#FFC444"/>
<stop offset="0.31" stop-color="#FBA94A"/>
<stop offset="1" stop-color="#F36F56"/>
</linearGradient>
<linearGradient id="paint20_linear_125_4911" x1="200456" y1="134606" x2="190907" y2="145616" gradientUnits="userSpaceOnUse">
<stop stop-color="#FFC444"/>
<stop offset="0.31" stop-color="#FBA94A"/>
<stop offset="1" stop-color="#F36F56"/>
</linearGradient>
<linearGradient id="paint21_linear_125_4911" x1="140135" y1="174779" x2="534520" y2="174779" gradientUnits="userSpaceOnUse">
<stop stop-color="#444B8C"/>
<stop offset="1" stop-color="#26264F"/>
</linearGradient>
<linearGradient id="paint22_linear_125_4911" x1="69418.3" y1="92800.4" x2="83511.9" y2="92800.4" gradientUnits="userSpaceOnUse">
<stop stop-color="#444B8C"/>
<stop offset="1" stop-color="#26264F"/>
</linearGradient>
<linearGradient id="paint23_linear_125_4911" x1="8591.47" y1="69966.3" x2="9728.21" y2="69966.3" gradientUnits="userSpaceOnUse">
<stop stop-color="#311944"/>
<stop offset="1" stop-color="#6B3976"/>
</linearGradient>
<linearGradient id="paint24_linear_125_4911" x1="2412" y1="59696.8" x2="3548.88" y2="59696.8" gradientUnits="userSpaceOnUse">
<stop stop-color="#311944"/>
<stop offset="1" stop-color="#6B3976"/>
</linearGradient>
<linearGradient id="paint25_linear_125_4911" x1="43.2243" y1="435.261" x2="32.2272" y2="433.78" gradientUnits="userSpaceOnUse">
<stop offset="0.01" stop-color="#D8DEE8"/>
<stop offset="1" stop-color="#F4F7FA"/>
</linearGradient>
<linearGradient id="paint26_linear_125_4911" x1="10839.3" y1="76971.4" x2="12204.1" y2="76971.4" gradientUnits="userSpaceOnUse">
<stop stop-color="#311944"/>
<stop offset="1" stop-color="#6B3976"/>
</linearGradient>
<linearGradient id="paint27_linear_125_4911" x1="4042.55" y1="65732.2" x2="5407.4" y2="65732.2" gradientUnits="userSpaceOnUse">
<stop stop-color="#311944"/>
<stop offset="1" stop-color="#6B3976"/>
</linearGradient>
<linearGradient id="paint28_linear_125_4911" x1="2588.79" y1="34580.7" x2="2074.16" y2="34543.2" gradientUnits="userSpaceOnUse">
<stop offset="0.01" stop-color="#D8DEE8"/>
<stop offset="1" stop-color="#F4F7FA"/>
</linearGradient>
<linearGradient id="paint29_linear_125_4911" x1="13489.5" y1="84200.7" x2="15115.9" y2="84200.7" gradientUnits="userSpaceOnUse">
<stop stop-color="#311944"/>
<stop offset="1" stop-color="#6B3976"/>
</linearGradient>
<linearGradient id="paint30_linear_125_4911" x1="6044.37" y1="71929" x2="7671.28" y2="71929" gradientUnits="userSpaceOnUse">
<stop stop-color="#311944"/>
<stop offset="1" stop-color="#6B3976"/>
</linearGradient>
<linearGradient id="paint31_linear_125_4911" x1="3674.81" y1="37826.2" x2="3061.18" y2="37781.5" gradientUnits="userSpaceOnUse">
<stop offset="0.01" stop-color="#D8DEE8"/>
<stop offset="1" stop-color="#F4F7FA"/>
</linearGradient>
<linearGradient id="paint32_linear_125_4911" x1="27096.5" y1="109750" x2="29747.8" y2="109750" gradientUnits="userSpaceOnUse">
<stop stop-color="#311944"/>
<stop offset="1" stop-color="#6B3976"/>
</linearGradient>
<linearGradient id="paint33_linear_125_4911" x1="17467.1" y1="94084.3" x2="20118.8" y2="94084.3" gradientUnits="userSpaceOnUse">
<stop stop-color="#311944"/>
<stop offset="1" stop-color="#6B3976"/>
</linearGradient>
<linearGradient id="paint34_linear_125_4911" x1="9636.98" y1="49451" x2="8637.28" y2="49378.2" gradientUnits="userSpaceOnUse">
<stop offset="0.01" stop-color="#D8DEE8"/>
<stop offset="1" stop-color="#F4F7FA"/>
</linearGradient>
<linearGradient id="paint35_linear_125_4911" x1="45454" y1="142197" x2="49782.3" y2="142197" gradientUnits="userSpaceOnUse">
<stop stop-color="#311944"/>
<stop offset="1" stop-color="#6B3976"/>
</linearGradient>
<linearGradient id="paint36_linear_125_4911" x1="32946" y1="122195" x2="37273.7" y2="122195" gradientUnits="userSpaceOnUse">
<stop stop-color="#311944"/>
<stop offset="1" stop-color="#6B3976"/>
</linearGradient>
<linearGradient id="paint37_linear_125_4911" x1="17832.7" y1="64208.1" x2="16201" y2="64089.3" gradientUnits="userSpaceOnUse">
<stop offset="0.01" stop-color="#D8DEE8"/>
<stop offset="1" stop-color="#F4F7FA"/>
</linearGradient>
<linearGradient id="paint38_linear_125_4911" x1="249826" y1="346516" x2="-3529.33" y2="554722" gradientUnits="userSpaceOnUse">
<stop stop-color="#AA80F9"/>
<stop offset="1" stop-color="#6165D7"/>
</linearGradient>
<linearGradient id="paint39_linear_125_4911" x1="260069" y1="313060" x2="108864" y2="383382" gradientUnits="userSpaceOnUse">
<stop stop-color="#AA80F9"/>
<stop offset="1" stop-color="#6165D7"/>
</linearGradient>
<linearGradient id="paint40_linear_125_4911" x1="78742.7" y1="313126" x2="260888" y2="313126" gradientUnits="userSpaceOnUse">
<stop stop-color="#AA80F9"/>
<stop offset="1" stop-color="#6165D7"/>
</linearGradient>
<linearGradient id="paint41_linear_125_4911" x1="112958" y1="305648" x2="142225" y2="305648" gradientUnits="userSpaceOnUse">
<stop offset="0.01" stop-color="#D8DEE8"/>
<stop offset="1" stop-color="#F4F7FA"/>
</linearGradient>
<linearGradient id="paint42_linear_125_4911" x1="138776" y1="162653" x2="165215" y2="162653" gradientUnits="userSpaceOnUse">
<stop stop-color="#444B8C"/>
<stop offset="1" stop-color="#26264F"/>
</linearGradient>
<linearGradient id="paint43_linear_125_4911" x1="51040.9" y1="51606.2" x2="48626.6" y2="63860.3" gradientUnits="userSpaceOnUse">
<stop stop-color="#FF9085"/>
<stop offset="1" stop-color="#FB6FBB"/>
</linearGradient>
<linearGradient id="paint44_linear_125_4911" x1="29166.4" y1="47875.8" x2="25414.1" y2="57718.4" gradientUnits="userSpaceOnUse">
<stop stop-color="#FF9085"/>
<stop offset="1" stop-color="#FB6FBB"/>
</linearGradient>
<linearGradient id="paint45_linear_125_4911" x1="187593" y1="105620" x2="244249" y2="105620" gradientUnits="userSpaceOnUse">
<stop stop-color="#444B8C"/>
<stop offset="1" stop-color="#26264F"/>
</linearGradient>
<clipPath id="clip0_125_4911">
<rect width="500" height="492.598" fill="white"/>
</clipPath>
</defs>
</svg>
